<svg width="166" height="54" viewBox="0 0 166 54" fill="none" xmlns="http://www.w3.org/2000/svg">
<path d="M11.3232 53.7766C10.8967 53.7766 10.4804 53.7711 10.0572 53.7616C9.18049 53.7502 8.30584 53.6738 7.4404 53.5332C6.63343 53.3943 5.85169 53.1357 5.12097 52.7662C4.39694 52.3997 3.73658 51.9191 3.16517 51.3429C2.58548 50.7735 2.10287 50.1131 1.73645 49.3878C1.366 48.6579 1.10962 47.8754 0.976252 47.0678C0.832226 46.1999 0.754302 45.3224 0.743152 44.4428C0.734276 44.1475 0.722656 43.1644 0.722656 43.1644V10.8236C0.722656 10.8236 0.735032 9.85566 0.743222 9.57128C0.753898 8.69304 0.831369 7.81688 0.974964 6.95038C1.10858 6.14051 1.36515 5.35581 1.73581 4.62344C2.10088 3.89868 2.58081 3.23777 3.157 2.66631C3.73255 2.08943 4.39503 1.60641 5.12028 1.23486C5.84932 0.866493 6.62959 0.609788 7.43493 0.473341C8.30321 0.331333 9.1809 0.254557 10.0606 0.243657L11.3239 0.226562H155.2L156.478 0.244343C157.35 0.254701 158.22 0.330792 159.08 0.471968C159.893 0.610128 160.682 0.868624 161.419 1.23896C162.872 1.98774 164.054 3.17239 164.8 4.62686C165.165 5.35417 165.418 6.13247 165.55 6.93535C165.695 7.80895 165.776 8.692 165.793 9.57744C165.797 9.97392 165.797 10.3998 165.797 10.8236C165.808 11.3486 165.808 11.8483 165.808 12.3521V41.6523C165.808 42.1609 165.808 42.6572 165.797 43.1576C165.797 43.6128 165.797 44.0299 165.791 44.4591C165.775 45.3288 165.695 46.1961 165.552 47.054C165.422 47.8675 165.167 48.6561 164.796 49.392C164.427 50.1094 163.947 50.7641 163.374 51.332C162.802 51.9113 162.141 52.3947 161.415 52.7635C160.68 53.1359 159.893 53.3954 159.08 53.5332C158.215 53.6746 157.34 53.7509 156.463 53.7616C156.053 53.7711 155.624 53.7766 155.207 53.7766L153.689 53.7794L11.3232 53.7766Z" fill="black"/>
<path d="M34.4958 26.8489C34.5115 25.6337 34.8343 24.4423 35.4341 23.3854C36.034 22.3285 36.8914 21.4406 37.9267 20.8041C37.269 19.8648 36.4014 19.0919 35.3927 18.5466C34.3841 18.0013 33.2622 17.6987 32.1161 17.6628C29.6714 17.4062 27.3013 19.1257 26.0555 19.1257C24.7856 19.1257 22.8675 17.6883 20.8021 17.7308C19.4661 17.774 18.164 18.1625 17.0228 18.8584C15.8816 19.5544 14.9401 20.5342 14.2901 21.7022C11.4746 26.577 13.5747 33.7413 16.2718 37.6818C17.6213 39.6113 19.1984 41.7666 21.262 41.6902C23.2813 41.6064 24.0355 40.4025 26.4731 40.4025C28.888 40.4025 29.5956 41.6902 31.701 41.6416C33.8679 41.6064 35.2331 39.7035 36.5352 37.7557C37.5048 36.3809 38.2509 34.8613 38.7458 33.2535C37.4869 32.721 36.4126 31.8298 35.6569 30.6909C34.9011 29.5519 34.4973 28.2157 34.4958 26.8489Z" fill="white"/>
<path d="M30.5185 15.0701C31.7 13.6518 32.282 11.8288 32.1411 9.98828C30.3361 10.1779 28.6687 11.0405 27.4713 12.4044C26.8859 13.0707 26.4375 13.8459 26.1518 14.6856C25.866 15.5253 25.7486 16.413 25.8062 17.2981C26.7091 17.3074 27.6022 17.1117 28.4185 16.7258C29.2347 16.3399 29.9527 15.7738 30.5185 15.0701Z" fill="white"/>
<path d="M58.7232 36.9967H52.0965L50.5051 41.6957H47.6982L53.975 24.3105H56.8912L63.168 41.6957H60.3133L58.7232 36.9967ZM52.7828 34.8284H58.0356L55.4461 27.2022H55.3736L52.7828 34.8284Z" fill="white"/>
<path d="M76.7239 35.36C76.7239 39.2988 74.6157 41.8295 71.4342 41.8295C70.6283 41.8716 69.8268 41.686 69.1215 41.2938C68.4162 40.9016 67.8356 40.3187 67.4461 39.6119H67.3859V45.89H64.7842V29.0217H67.3025V31.1299H67.3504C67.7577 30.4264 68.3481 29.8466 69.0588 29.452C69.7695 29.0574 70.5739 28.8629 71.3863 28.8891C74.6034 28.8891 76.7239 31.432 76.7239 35.36ZM74.0496 35.36C74.0496 32.7938 72.7235 31.1066 70.7 31.1066C68.7121 31.1066 67.375 32.8293 67.375 35.36C67.375 37.9139 68.7121 39.6242 70.7 39.6242C72.7235 39.6242 74.0496 37.9494 74.0496 35.36H74.0496Z" fill="white"/>
<path d="M90.6747 35.36C90.6747 39.2988 88.5658 41.8295 85.3844 41.8295C84.5785 41.8716 83.777 41.686 83.0717 41.2938C82.3664 40.9016 81.7858 40.3187 81.3963 39.6119H81.3361V45.89H78.7344V29.0217H81.2527V31.1299H81.3006C81.7079 30.4264 82.2983 29.8466 83.009 29.452C83.7197 29.0574 84.5241 28.8629 85.3365 28.8891C88.5536 28.8891 90.6747 31.432 90.6747 35.36ZM87.9998 35.36C87.9998 32.7938 86.6737 31.1066 84.6502 31.1066C82.6623 31.1066 81.3252 32.8293 81.3252 35.36C81.3252 37.9139 82.6623 39.6242 84.6502 39.6242C86.6737 39.6242 87.9998 37.9494 87.9998 35.36Z" fill="white"/>
<path d="M99.8938 36.8526C100.087 38.5766 101.761 39.7086 104.05 39.7086C106.243 39.7086 107.821 38.5766 107.821 37.0221C107.821 35.6727 106.869 34.8647 104.616 34.311L102.363 33.7682C99.1706 32.9971 97.6886 31.5041 97.6886 29.0814C97.6886 26.0818 100.303 24.0215 104.013 24.0215C107.688 24.0215 110.207 26.0818 110.291 29.0814H107.665C107.508 27.3465 106.073 26.2992 103.978 26.2992C101.882 26.2992 100.448 27.3588 100.448 28.901C100.448 30.1301 101.364 30.8533 103.604 31.407L105.52 31.8773C109.087 32.7209 110.567 34.1537 110.567 36.6966C110.567 39.9492 107.978 41.9863 103.857 41.9863C100.002 41.9863 97.3986 39.997 97.2305 36.8525L99.8938 36.8526Z" fill="white"/>
<path d="M116.186 26.0234V29.0231H118.596V31.0834H116.186V38.0711C116.186 39.1566 116.668 39.6625 117.728 39.6625C118.014 39.6575 118.3 39.6374 118.584 39.6023V41.6504C118.107 41.7394 117.623 41.7797 117.138 41.7707C114.572 41.7707 113.571 40.8068 113.571 38.3486V31.0834H111.729V29.0231H113.571V26.0234H116.186Z" fill="white"/>
<path d="M119.99 35.3613C119.99 31.3732 122.339 28.8672 126.002 28.8672C129.677 28.8672 132.015 31.3732 132.015 35.3613C132.015 39.3604 129.689 41.8555 126.002 41.8555C122.316 41.8555 119.99 39.3603 119.99 35.3613ZM129.364 35.3613C129.364 32.6256 128.11 31.0109 126.002 31.0109C123.894 31.0109 122.64 32.6379 122.64 35.3613C122.64 38.108 123.894 39.7104 126.002 39.7104C128.11 39.7104 129.364 38.108 129.364 35.3613H129.364Z" fill="white"/>
<path d="M134.16 29.0216H136.642V31.179H136.702C136.87 30.5052 137.264 29.9097 137.82 29.4927C138.375 29.0756 139.057 28.8624 139.751 28.8889C140.05 28.8879 140.349 28.9204 140.642 28.986V31.4196C140.264 31.3039 139.869 31.2508 139.473 31.2624C139.095 31.247 138.718 31.3137 138.368 31.4577C138.019 31.6018 137.704 31.8198 137.447 32.0968C137.189 32.3739 136.995 32.7034 136.876 33.0627C136.758 33.4221 136.719 33.8027 136.762 34.1786V41.6967H134.16L134.16 29.0216Z" fill="white"/>
<path d="M152.638 37.9754C152.288 40.2764 150.047 41.8555 147.18 41.8555C143.493 41.8555 141.204 39.385 141.204 35.4215C141.204 31.4457 143.505 28.8672 147.071 28.8672C150.578 28.8672 152.783 31.2762 152.783 35.1193V36.0107H143.83V36.168C143.789 36.6344 143.848 37.1044 144.002 37.5466C144.156 37.9887 144.403 38.393 144.725 38.7326C145.048 39.0722 145.439 39.3392 145.872 39.5161C146.306 39.6929 146.772 39.7754 147.24 39.7582C147.855 39.8158 148.472 39.6734 148.999 39.3522C149.527 39.031 149.936 38.5481 150.167 37.9754L152.638 37.9754ZM143.843 34.1924H150.18C150.203 33.7729 150.139 33.3532 149.993 32.9595C149.846 32.5658 149.62 32.2067 149.328 31.9046C149.036 31.6025 148.685 31.3641 148.296 31.2042C147.908 31.0443 147.491 30.9664 147.071 30.9754C146.647 30.9729 146.227 31.0543 145.835 31.2149C145.443 31.3755 145.087 31.6122 144.786 31.9113C144.486 32.2104 144.248 32.566 144.086 32.9575C143.925 33.349 143.842 33.7687 143.843 34.1924V34.1924Z" fill="white"/>
<path d="M52.4568 11.2263C53.0023 11.1871 53.5496 11.2695 54.0594 11.4675C54.5692 11.6655 55.0286 11.9742 55.4046 12.3713C55.7807 12.7684 56.0639 13.244 56.2338 13.7637C56.4038 14.2835 56.4563 14.8345 56.3875 15.3771C56.3875 18.0458 54.9451 19.5799 52.4568 19.5799H49.4395V11.2263H52.4568ZM50.7369 18.3985H52.3119C52.7017 18.4218 53.0917 18.3579 53.4537 18.2114C53.8156 18.0649 54.1404 17.8396 54.4043 17.5518C54.6682 17.264 54.8646 16.921 54.9792 16.5478C55.0938 16.1745 55.1237 15.7804 55.0668 15.3941C55.1196 15.0093 55.0866 14.6176 54.9702 14.2471C54.8539 13.8766 54.657 13.5364 54.3937 13.2509C54.1304 12.9654 53.8072 12.7416 53.4473 12.5957C53.0874 12.4498 52.6997 12.3853 52.3119 12.4068H50.7369V18.3985Z" fill="white"/>
<path d="M57.8529 16.4252C57.8133 16.0109 57.8607 15.5929 57.9921 15.198C58.1234 14.8032 58.3359 14.4401 58.6158 14.1321C58.8957 13.8241 59.2369 13.5781 59.6175 13.4097C59.9981 13.2413 60.4097 13.1543 60.8259 13.1543C61.2421 13.1543 61.6536 13.2413 62.0342 13.4097C62.4148 13.5781 62.756 13.8241 63.0359 14.1321C63.3159 14.4401 63.5283 14.8032 63.6597 15.198C63.7911 15.5929 63.8385 16.0109 63.7988 16.4252C63.8392 16.8399 63.7924 17.2585 63.6614 17.654C63.5303 18.0496 63.318 18.4133 63.038 18.7219C62.758 19.0305 62.4166 19.2771 62.0356 19.4458C61.6546 19.6146 61.2426 19.7017 60.8259 19.7017C60.4092 19.7017 59.9971 19.6146 59.6162 19.4458C59.2352 19.2771 58.8937 19.0305 58.6138 18.7219C58.3338 18.4133 58.1214 18.0496 57.9904 17.654C57.8594 17.2585 57.8125 16.8399 57.8529 16.4252ZM62.5191 16.4252C62.5191 15.0587 61.9053 14.2596 60.8279 14.2596C59.7465 14.2596 59.1381 15.0587 59.1381 16.4252C59.1381 17.8027 59.7465 18.5956 60.8279 18.5956C61.9053 18.5956 62.5191 17.7972 62.5191 16.4252H62.5191Z" fill="white"/>
<path d="M71.7027 19.5795H70.4121L69.1092 14.9365H69.0108L67.7133 19.5795H66.435L64.6973 13.2754H65.9592L67.0885 18.0858H67.1815L68.4776 13.2754H69.6711L70.9672 18.0858H71.0656L72.1895 13.2754H73.4336L71.7027 19.5795Z" fill="white"/>
<path d="M74.8955 13.2744H76.0932V14.2758H76.1861C76.3439 13.9162 76.6099 13.6146 76.9471 13.4133C77.2843 13.212 77.6759 13.1209 78.0674 13.1527C78.3741 13.1296 78.6821 13.1759 78.9686 13.288C79.255 13.4001 79.5125 13.5753 79.7221 13.8005C79.9317 14.0257 80.0879 14.2951 80.1791 14.5888C80.2704 14.8826 80.2944 15.1931 80.2494 15.4974V19.5784H79.0053V15.8098C79.0053 14.7968 78.5651 14.2929 77.6449 14.2929C77.4367 14.2832 77.2288 14.3187 77.0355 14.3968C76.8422 14.475 76.6681 14.594 76.5251 14.7458C76.3822 14.8975 76.2737 15.0784 76.2072 15.276C76.1406 15.4735 76.1176 15.6832 76.1396 15.8905V19.5785H74.8955L74.8955 13.2744Z" fill="white"/>
<path d="M82.2314 10.8145H83.4756V19.5795H82.2314V10.8145Z" fill="white"/>
<path d="M85.2054 16.4234C85.1658 16.0091 85.2133 15.5911 85.3447 15.1961C85.4761 14.8012 85.6886 14.4381 85.9685 14.1302C86.2485 13.8222 86.5897 13.5761 86.9703 13.4077C87.3509 13.2393 87.7625 13.1523 88.1787 13.1523C88.5949 13.1523 89.0065 13.2393 89.3871 13.4077C89.7678 13.5761 90.109 13.8222 90.3889 14.1302C90.6689 14.4381 90.8814 14.8012 91.0128 15.1961C91.1442 15.5911 91.1916 16.0091 91.152 16.4234C91.1923 16.8381 91.1455 17.2567 91.0144 17.6522C90.8833 18.0478 90.671 18.4115 90.3909 18.7201C90.1109 19.0286 89.7695 19.2752 89.3885 19.444C89.0075 19.6127 88.5954 19.6999 88.1787 19.6999C87.762 19.6999 87.35 19.6127 86.969 19.444C86.588 19.2752 86.2465 19.0286 85.9665 18.7201C85.6865 18.4115 85.4741 18.0478 85.343 17.6522C85.212 17.2567 85.1651 16.8381 85.2054 16.4234ZM89.8716 16.4234C89.8716 15.0569 89.2578 14.2578 88.1804 14.2578C87.099 14.2578 86.4906 15.0569 86.4906 16.4234C86.4906 17.8009 87.099 18.5938 88.1804 18.5938C89.2578 18.5938 89.8716 17.7954 89.8716 16.4234H89.8716Z" fill="white"/>
<path d="M92.4619 17.7973C92.4619 16.6625 93.3068 16.0083 94.8066 15.9153L96.5143 15.8169V15.2728C96.5143 14.6069 96.074 14.231 95.2236 14.231C94.5291 14.231 94.0479 14.4859 93.9098 14.9316H92.7053C92.8324 13.8488 93.851 13.1543 95.2811 13.1543C96.8615 13.1543 97.7529 13.9411 97.7529 15.2728V19.5801H96.5553V18.6941H96.4568C96.257 19.0119 95.9765 19.271 95.6438 19.4449C95.3111 19.6188 94.9383 19.7013 94.5633 19.6839C94.2986 19.7115 94.0312 19.6832 93.7781 19.6011C93.525 19.5189 93.292 19.3846 93.094 19.2068C92.896 19.0291 92.7375 18.8118 92.6286 18.569C92.5197 18.3262 92.463 18.0633 92.4619 17.7973ZM96.5143 17.2586V16.7315L94.9748 16.83C94.1066 16.8881 93.7129 17.1834 93.7129 17.7391C93.7129 18.3065 94.2051 18.6367 94.8819 18.6367C95.0802 18.6568 95.2805 18.6367 95.4709 18.5778C95.6613 18.5189 95.8379 18.4223 95.9902 18.2937C96.1425 18.1651 96.2674 18.0072 96.3574 17.8294C96.4475 17.6516 96.5008 17.4574 96.5143 17.2586Z" fill="white"/>
<path d="M99.3877 16.4247C99.3877 14.4327 100.412 13.1708 102.004 13.1708C102.398 13.1527 102.789 13.247 103.132 13.4429C103.474 13.6387 103.754 13.928 103.938 14.2768H104.031V10.8145H105.275V19.5795H104.083V18.5835H103.984C103.786 18.93 103.497 19.2156 103.148 19.4095C102.799 19.6034 102.403 19.6981 102.005 19.6834C100.401 19.6835 99.3877 18.4215 99.3877 16.4247ZM100.673 16.4247C100.673 17.7618 101.303 18.5664 102.357 18.5664C103.406 18.5664 104.054 17.7502 104.054 16.4302C104.054 15.1163 103.399 14.2885 102.357 14.2885C101.31 14.2885 100.673 15.0985 100.673 16.4247H100.673Z" fill="white"/>
<path d="M110.422 16.4252C110.383 16.0109 110.43 15.5929 110.561 15.198C110.693 14.8032 110.905 14.4401 111.185 14.1321C111.465 13.8241 111.806 13.5781 112.187 13.4097C112.567 13.2413 112.979 13.1543 113.395 13.1543C113.811 13.1543 114.223 13.2413 114.604 13.4097C114.984 13.5781 115.325 13.8241 115.605 14.1321C115.885 14.4401 116.098 14.8032 116.229 15.198C116.36 15.5929 116.408 16.0109 116.368 16.4252C116.409 16.8399 116.362 17.2585 116.231 17.654C116.1 18.0496 115.887 18.4133 115.607 18.7219C115.327 19.0305 114.986 19.2771 114.605 19.4458C114.224 19.6146 113.812 19.7017 113.395 19.7017C112.979 19.7017 112.566 19.6146 112.186 19.4458C111.805 19.2771 111.463 19.0305 111.183 18.7219C110.903 18.4133 110.691 18.0496 110.56 17.654C110.429 17.2585 110.382 16.8399 110.422 16.4252ZM115.088 16.4252C115.088 15.0587 114.475 14.2596 113.397 14.2596C112.316 14.2596 111.707 15.0587 111.707 16.4252C111.707 17.8027 112.316 18.5956 113.397 18.5956C114.475 18.5956 115.088 17.7972 115.088 16.4252Z" fill="white"/>
<path d="M118.037 13.2744H119.235V14.2758H119.328C119.485 13.9162 119.751 13.6146 120.089 13.4133C120.426 13.212 120.818 13.1209 121.209 13.1527C121.516 13.1296 121.824 13.1759 122.11 13.288C122.397 13.4001 122.654 13.5753 122.864 13.8005C123.073 14.0257 123.229 14.2951 123.321 14.5888C123.412 14.8826 123.436 15.1931 123.391 15.4974V19.5784H122.147V15.8098C122.147 14.7968 121.707 14.2929 120.787 14.2929C120.578 14.2832 120.37 14.3187 120.177 14.3968C119.984 14.475 119.81 14.594 119.667 14.7458C119.524 14.8975 119.415 15.0784 119.349 15.276C119.282 15.4735 119.259 15.6832 119.281 15.8905V19.5785H118.037V13.2744Z" fill="white"/>
<path d="M130.421 11.7051V13.3033H131.787V14.3513H130.421V17.5929C130.421 18.2532 130.693 18.5424 131.313 18.5424C131.471 18.5419 131.629 18.5323 131.787 18.5137V19.55C131.563 19.59 131.337 19.6112 131.11 19.6136C129.727 19.6136 129.176 19.1268 129.176 17.9114V14.3512H128.175V13.3033H129.176V11.7051H130.421Z" fill="white"/>
<path d="M133.486 10.8145H134.72V14.2885H134.818C134.983 13.9254 135.257 13.6222 135.601 13.4201C135.945 13.218 136.343 13.1269 136.74 13.1592C137.045 13.1426 137.35 13.1935 137.634 13.3084C137.917 13.4232 138.171 13.5992 138.378 13.8237C138.586 14.0481 138.741 14.3156 138.833 14.607C138.925 14.8984 138.952 15.2065 138.911 15.5094V19.5795H137.666V15.8163C137.666 14.8094 137.197 14.2994 136.318 14.2994C136.104 14.2819 135.889 14.3113 135.688 14.3855C135.486 14.4598 135.304 14.5772 135.153 14.7294C135.001 14.8816 134.885 15.0651 134.812 15.2669C134.739 15.4686 134.712 15.6839 134.731 15.8976V19.5795H133.486L133.486 10.8145Z" fill="white"/>
<path d="M146.166 17.8761C145.997 18.4522 145.63 18.9506 145.131 19.284C144.632 19.6174 144.031 19.7646 143.434 19.6999C143.019 19.7109 142.606 19.6313 142.225 19.4668C141.843 19.3022 141.502 19.0566 141.225 18.7471C140.948 18.4375 140.741 18.0713 140.62 17.6739C140.499 17.2766 140.465 16.8576 140.522 16.446C140.467 16.0332 140.501 15.6133 140.622 15.2147C140.743 14.8162 140.948 14.4483 141.224 14.136C141.499 13.8237 141.839 13.5743 142.219 13.4046C142.6 13.2349 143.012 13.1489 143.429 13.1524C145.183 13.1524 146.241 14.3508 146.241 16.3304V16.7646H141.789V16.8343C141.77 17.0656 141.799 17.2985 141.875 17.518C141.951 17.7374 142.071 17.9386 142.229 18.1086C142.387 18.2787 142.579 18.4138 142.793 18.5054C143.006 18.5969 143.236 18.6429 143.468 18.6403C143.766 18.676 144.067 18.6224 144.334 18.4863C144.602 18.3503 144.822 18.1378 144.968 17.876L146.166 17.8761ZM141.789 15.8444H144.974C144.989 15.6329 144.96 15.4203 144.889 15.2205C144.818 15.0207 144.705 14.8381 144.559 14.6843C144.413 14.5305 144.236 14.4089 144.041 14.3275C143.845 14.246 143.634 14.2065 143.422 14.2113C143.207 14.2086 142.993 14.249 142.794 14.3302C142.594 14.4113 142.413 14.5315 142.261 14.6837C142.109 14.8359 141.989 15.017 141.908 15.2163C141.827 15.4157 141.787 15.6293 141.789 15.8444H141.789Z" fill="white"/>
</svg>
