<svg width="113" height="112" viewBox="0 0 113 112" fill="none" xmlns="http://www.w3.org/2000/svg">
<path opacity="0.18" d="M3.39919 53.8734C5.214 62.2106 7.02979 70.5421 8.84655 78.8678C9.55618 82.1222 10.2716 85.397 11.5484 88.4654C12.4749 90.6904 13.6946 92.7816 15.1751 94.6834C19.6569 100.465 26.3956 104.519 33.6577 105.508C38.2879 106.139 43.0197 105.607 47.6411 106.297C53.4753 107.169 58.8616 109.938 64.623 111.197C72.8479 112.997 81.5555 111.613 89.3441 108.402C95.4778 105.875 105.974 101.332 110.066 94.6892C110.876 93.4161 111.421 91.9927 111.669 90.5041C113.704 77.3874 111.183 61.2926 106.841 48.8797C98.4065 24.7403 76.4222 5.85346 51.2911 1.12447C41.7604 -0.667079 31.6801 -0.504211 22.6292 2.97709C13.5784 6.4584 5.68807 13.5141 2.45689 22.6579C-1.06514 32.6074 1.15103 43.5603 3.39919 53.8734Z" fill="#F24748"/>
<path d="M15.1754 94.6895C19.6572 100.471 26.3959 104.526 33.658 105.514C38.2881 106.145 43.02 105.613 47.6414 106.303C53.4756 107.175 58.8619 109.944 64.6233 111.203C72.8481 113.003 81.5558 111.619 89.3444 108.408C95.4781 105.875 105.974 101.332 110.066 94.6895H15.1754Z" fill="#F24748"/>
<path d="M57.1188 96.3723C66.4837 94.2026 76.25 95.0926 85.8185 95.9913C86.691 96.0727 87.5955 96.1658 88.34 96.6253C89.0846 97.0848 89.6052 98.0358 89.2882 98.8531C88.9973 99.5715 88.2237 99.9379 87.4908 100.182C82.8374 101.756 77.7885 101.38 72.8821 101.157C56.985 100.435 40.8902 101.506 25.3043 98.222C23.7163 97.8875 22.0178 97.4367 20.997 96.1861C23.9199 94.7 27.4448 95.1071 30.5946 96.0087C33.7443 96.9103 36.7923 98.2802 40.0497 98.6408C41.879 98.8415 42.4927 96.9219 44.0079 96.2268C45.1713 95.6917 45.9304 95.8255 47.1228 96.1861C50.8193 97.2971 53.2943 97.2593 57.1188 96.3723Z" fill="url(#paint0_linear_3504_28055)"/>
<path d="M68.5669 94.7216C69.0132 94.7189 69.4504 94.5954 69.8321 94.364C70.2138 94.1327 70.5256 93.8023 70.7345 93.4079C70.9433 93.0134 71.0413 92.5698 71.0181 92.1241C70.995 91.6784 70.8514 91.2473 70.6027 90.8767C70.3648 90.5221 70.039 90.2353 69.6572 90.0442C69.2753 89.8531 68.8504 89.7644 68.424 89.7865C67.9976 89.8087 67.5842 89.9411 67.2242 90.1708C66.8642 90.4005 66.5699 90.7196 66.3701 91.0969C66.1703 91.4743 66.0718 91.8971 66.0841 92.3239C66.0965 92.7507 66.2193 93.167 66.4406 93.5322C66.662 93.8974 66.9742 94.1989 67.3469 94.4074C67.7195 94.6158 68.1399 94.7241 68.5669 94.7216ZM69.4074 91.6881C69.5191 91.8548 69.579 92.0508 69.5794 92.2514C69.5798 92.4521 69.5207 92.6483 69.4096 92.8154C69.2985 92.9825 69.1404 93.1129 68.9552 93.1901C68.77 93.2674 68.5661 93.288 68.3692 93.2495C68.1724 93.2109 67.9913 93.1149 67.849 92.9734C67.7066 92.832 67.6094 92.6516 67.5696 92.455C67.5297 92.2583 67.549 92.0543 67.6251 91.8686C67.7011 91.683 67.8305 91.524 67.9969 91.4118C68.2207 91.2618 68.4948 91.2067 68.7592 91.2585C69.0236 91.3103 69.2567 91.4648 69.4074 91.6881Z" fill="#2E2E3F"/>
<path d="M86.6591 94.7216C87.1058 94.7199 87.5436 94.597 87.9259 94.3658C88.3082 94.1347 88.6205 93.8042 88.8295 93.4094C89.0385 93.0146 89.1364 92.5705 89.1127 92.1244C89.089 91.6784 88.9446 91.2471 88.6949 90.8767C88.457 90.5221 88.1312 90.2353 87.7494 90.0442C87.3675 89.8531 86.9426 89.7644 86.5162 89.7865C86.0897 89.8087 85.6764 89.9411 85.3164 90.1708C84.9564 90.4005 84.6621 90.7196 84.4623 91.0969C84.2625 91.4743 84.164 91.8971 84.1763 92.3239C84.1887 92.7507 84.3115 93.167 84.5328 93.5322C84.7542 93.8974 85.0664 94.1989 85.4391 94.4074C85.8117 94.6158 86.2321 94.7241 86.6591 94.7216ZM87.4967 91.6881C87.6088 91.8547 87.6689 92.0509 87.6696 92.2517C87.6702 92.4525 87.6112 92.649 87.5001 92.8162C87.389 92.9835 87.2308 93.1141 87.0455 93.1914C86.8602 93.2688 86.6561 93.2894 86.459 93.2507C86.262 93.2121 86.0808 93.1158 85.9385 92.9742C85.7962 92.8325 85.6991 92.6518 85.6595 92.455C85.6199 92.2581 85.6395 92.0539 85.716 91.8682C85.7925 91.6825 85.9223 91.5237 86.0891 91.4118C86.3124 91.262 86.5861 91.2069 86.85 91.2587C87.114 91.3105 87.3466 91.465 87.4967 91.6881Z" fill="#2E2E3F"/>
<path d="M48.3834 43.4576C48.471 43.7449 48.5993 44.0182 48.7644 44.2691C49.0905 44.6567 49.5029 44.9625 49.9685 45.1619C51.8124 46.1072 54.6219 47.1251 56.1866 48.492C56.3765 48.643 56.5339 48.831 56.649 49.0446C56.8729 49.5303 56.649 50.0916 56.4425 50.5802C56.3497 50.8567 56.1851 51.1036 55.9655 51.2957C55.5671 51.5865 55.0145 51.4614 54.5404 51.3218C52.7223 50.7798 50.934 50.142 49.1832 49.411C48.2037 49.016 47.2524 48.5545 46.3359 48.0296C45.9685 47.8406 45.6491 47.57 45.4024 47.2385C45.2291 46.9399 45.1137 46.6114 45.0621 46.27C44.7311 44.5074 44.5087 42.726 44.3961 40.9361L44.0471 36.7364C43.9773 35.9279 41.5168 33.0981 42.2584 32.5426C43.7126 31.4548 45.827 34.4156 46.1585 35.0234C47.095 36.7364 48.0199 42.4223 48.3834 43.4576Z" fill="#F24748"/>
<path d="M48.3834 43.4576C48.471 43.7449 48.5993 44.0182 48.7644 44.2691C49.0905 44.6567 49.5029 44.9625 49.9685 45.1619C51.8124 46.1072 54.6219 47.1251 56.1866 48.492C56.3765 48.643 56.5339 48.831 56.649 49.0446C56.8729 49.5303 56.649 50.0916 56.4425 50.5802C56.3497 50.8567 56.1851 51.1036 55.9655 51.2957C55.5671 51.5865 55.0145 51.4614 54.5404 51.3218C52.7223 50.7798 50.934 50.142 49.1832 49.411C48.2037 49.016 47.2524 48.5545 46.3359 48.0296C45.9685 47.8406 45.6491 47.57 45.4024 47.2385C45.2291 46.9399 45.1137 46.6114 45.0621 46.27C44.7311 44.5074 44.5087 42.726 44.3961 40.9361L44.0471 36.7364C43.9773 35.9279 41.5168 33.0981 42.2584 32.5426C43.7126 31.4548 45.827 34.4156 46.1585 35.0234C47.095 36.7364 48.0199 42.4223 48.3834 43.4576Z" fill="url(#paint1_linear_3504_28055)"/>
<path d="M25.796 88.9443C25.5609 89.3198 25.4388 89.7549 25.4441 90.1978C25.4715 90.3642 25.5339 90.5228 25.6272 90.6633C25.7204 90.8037 25.8424 90.9228 25.985 91.0127C26.1277 91.1026 26.2877 91.1612 26.4547 91.1847C26.6216 91.2081 26.7917 91.1959 26.9536 91.1489C27.217 91.0399 27.4562 90.8798 27.6574 90.6777C30.0917 88.5139 32.0199 85.8469 33.7649 83.084C34.2361 82.3336 34.6927 81.5745 35.0941 80.7864C36.4501 78.1155 37.1622 75.1643 37.1735 72.1689C37.1919 71.9971 37.1497 71.8243 37.0543 71.6803C36.9542 71.5789 36.8252 71.5108 36.6849 71.4854C35.4809 71.1481 33.605 71.1161 32.5405 71.9013C31.3452 72.7739 31.6331 75.5223 31.6855 76.7728C31.7463 77.3064 31.6927 77.8467 31.5284 78.3579C31.3104 78.7953 31.0148 79.1895 30.6559 79.5212C28.2158 82.1417 27.3695 85.7742 25.796 88.9443Z" fill="#F3BD8F"/>
<path d="M40.8912 82.9809C40.6391 86.3785 41.0875 89.7917 42.2087 93.0089C42.277 93.3001 42.4334 93.5632 42.6566 93.7622C42.8077 93.8552 42.9807 93.9064 43.1581 93.9105C43.3354 93.9145 43.5106 93.8714 43.6658 93.7855C44.454 93.4016 44.7303 92.564 44.8641 91.7496C45.4491 88.156 45.7273 84.519 45.6958 80.8782C45.6958 79.1593 45.6464 77.5219 45.7802 75.8118C45.914 74.0523 46.1117 72.2956 46.1117 70.5273C46.1444 70.352 46.1113 70.1708 46.0187 70.0184C45.9454 69.951 45.8581 69.9007 45.7631 69.871C45.668 69.8413 45.5676 69.8331 45.469 69.8468C44.2068 69.8468 41.9033 69.1197 40.9203 69.9224C39.6261 70.9781 41.6969 75.6199 41.9033 76.9635C42.2494 79.2059 41.2751 79.8719 40.9872 82.0852C40.9494 82.3993 40.9174 82.6901 40.8912 82.9809Z" fill="#F5BD8D"/>
<path d="M47.2452 70.5466C47.2748 70.8873 47.1899 71.2281 47.0038 71.5151C46.8102 71.7151 46.5626 71.8545 46.2913 71.9164C44.9069 72.3469 43.4469 72.437 42.0014 72.5272C41.5594 72.5533 41.0708 72.565 40.7305 72.2858C40.5196 72.081 40.3627 71.8272 40.2739 71.5471L38.6685 67.6179C38.7886 69.0046 38.8245 70.3974 38.7761 71.7885C38.7993 72.0867 38.7113 72.3831 38.5289 72.6202C38.2951 72.8004 38.0029 72.8874 37.7087 72.8645C35.4806 72.9484 33.25 72.7865 31.0573 72.3818C30.208 69.2495 30.1848 65.9368 30.6065 62.7202C30.7723 61.4667 31.0195 60.1899 31.6855 59.1138C31.8483 58.8197 32.0798 58.5692 32.3602 58.3838C32.7801 58.1825 33.2455 58.0952 33.7097 58.1308C37.0776 58.0959 40.4978 58.0174 43.8453 58.4943C44.8894 58.6427 45.4362 58.9684 45.7997 59.9892C46.3235 61.5978 46.6888 63.2538 46.8904 64.9334C47.1574 66.7921 47.2761 68.6691 47.2452 70.5466Z" fill="#2E2E3F"/>
<path d="M31.0572 72.3828L31.5807 72.473C33.6047 72.8114 35.6579 72.943 37.7086 72.8656C38.0028 72.8885 38.295 72.8014 38.5287 72.6213C38.7112 72.3842 38.7992 72.0878 38.776 71.7895C38.8211 70.4957 38.7919 69.2003 38.6887 67.9098C38.6887 67.8778 38.6887 67.8429 38.6887 67.8109C38.6887 67.7789 38.6887 67.6829 38.6742 67.6189C39.2093 68.9248 39.7415 70.2365 40.2767 71.5423C40.3656 71.8225 40.5224 72.0763 40.7333 72.281C41.0736 72.5719 41.5622 72.5486 42.0042 72.5224H42.2049C43.5835 72.4352 44.9708 72.3334 46.2766 71.9233C46.5484 71.8625 46.7963 71.7229 46.9892 71.522C47.1752 71.235 47.2602 70.8942 47.2306 70.5535C47.2622 68.6711 47.1436 66.7893 46.8757 64.9258C46.6746 63.2542 46.3112 61.6061 45.7909 60.0049C45.4274 58.984 44.8806 58.6583 43.8365 58.51C40.489 58.033 37.0688 58.1115 33.7009 58.1464C33.2809 58.1222 32.8605 58.1876 32.4677 58.3384C32.4275 58.3558 32.3886 58.3762 32.3514 58.3995C32.0709 58.5848 31.8394 58.8353 31.6767 59.1295C31.0106 60.2055 30.7634 61.4823 30.5977 62.7358C30.1789 65.9379 30.2079 69.2505 31.0572 72.3828Z" fill="url(#paint2_linear_3504_28055)"/>
<path d="M31.0585 72.3814L31.582 72.4715C31.7067 72.407 31.8281 72.3362 31.9455 72.2592C32.2336 72.1002 32.476 71.8699 32.6494 71.5903C32.7764 71.3071 32.838 70.9989 32.8297 70.6887C32.9257 68.0944 32.4312 65.4536 32.9576 62.9205C33.1467 62.0072 33.5248 61.1755 33.7953 60.3029C34.0425 59.4973 33.4899 59.0174 32.8413 58.5579C32.7269 58.4728 32.6053 58.3979 32.4778 58.334C32.4375 58.3514 32.3986 58.3718 32.3614 58.3951C32.081 58.5804 31.8495 58.8309 31.6867 59.1251C31.0207 60.2012 30.7735 61.4779 30.6077 62.7314C30.1802 65.9364 30.2092 69.2491 31.0585 72.3814Z" fill="url(#paint3_linear_3504_28055)"/>
<path d="M38.6717 67.6249C39.2069 68.9307 39.7391 70.2424 40.2742 71.5482C40.3631 71.8284 40.52 72.0822 40.7308 72.287C41.0711 72.5778 41.5597 72.5545 42.0018 72.5284H42.2025C42.2778 72.488 42.3489 72.4403 42.4148 72.3858C42.6612 72.1774 42.8367 71.8974 42.917 71.5848C42.9972 71.2721 42.9782 70.9422 42.8627 70.6408C42.7203 70.3509 42.5404 70.081 42.3275 69.8381C41.0595 68.2123 40.3673 66.2259 39.6926 64.2773C39.3298 64.6973 39.0531 65.1845 38.8782 65.7112C38.6908 66.3306 38.6208 66.9797 38.6717 67.6249Z" fill="url(#paint4_linear_3504_28055)"/>
<path d="M39.3268 30.0478C39.3404 30.5727 39.5476 31.074 39.9084 31.4554C40.4436 31.9382 41.255 31.9091 41.9268 32.1796C42.0115 32.2077 42.0883 32.2555 42.1508 32.3192C42.2006 32.3779 42.2355 32.4477 42.2526 32.5228C42.3387 32.8732 42.3112 33.2419 42.1741 33.5756C41.9689 34.0752 41.6569 34.5239 41.26 34.8901C40.8631 35.2564 40.3909 35.5314 39.8765 35.6958C38.8423 36.0196 37.7465 36.0963 36.6773 35.9197C36.3225 35.899 35.9768 35.7997 35.6651 35.6289C35.3347 35.3772 35.0719 35.0474 34.9002 34.6691C34.6924 34.3239 34.5531 33.9417 34.4902 33.5436C34.4615 33.3432 34.4856 33.1389 34.56 32.9506C34.6345 32.7624 34.7568 32.5969 34.9148 32.4704C35.0632 32.3804 35.2213 32.3072 35.3859 32.2523C35.6448 32.1529 35.8932 32.0282 36.1276 31.88C36.3681 31.7568 36.5553 31.55 36.654 31.2984C36.6946 31.0859 36.6857 30.8669 36.6278 30.6585C36.4954 29.9511 36.4954 29.2253 36.6278 28.518C36.6594 28.3084 36.7242 28.1051 36.8198 27.9159C36.9094 27.755 37.0346 27.6167 37.1859 27.5115C37.3371 27.4063 37.5104 27.3371 37.6924 27.309C37.8745 27.281 38.0606 27.2949 38.2364 27.3496C38.4123 27.4044 38.5734 27.4986 38.7073 27.6251C39.3937 28.2504 39.2453 29.2392 39.3268 30.0478Z" fill="#F3BD8F"/>
<path d="M42.5459 26.2873C42.5853 26.7695 42.545 27.2549 42.4267 27.7241C42.0835 28.838 40.9056 29.5563 39.7394 29.6029C39.3567 29.6328 38.973 29.5595 38.6284 29.3906C38.431 29.2779 38.2492 29.1401 38.0874 28.9805C37.2731 28.2359 36.5227 27.346 36.2755 26.2699C36.191 25.8616 36.1559 25.4447 36.1708 25.028C36.1605 24.4144 36.2671 23.8044 36.4849 23.2307C36.7024 22.7237 37.0473 22.2817 37.4861 21.9474C37.9248 21.6131 38.4426 21.3979 38.989 21.3228C40.1146 21.1803 41.1703 21.7503 41.9934 22.457C42.4063 22.8119 42.3453 23.5099 42.3976 24.0421C42.4703 24.7837 42.5198 25.537 42.5459 26.2873Z" fill="#F3BD8F"/>
<path d="M42.406 20.0844C42.7201 20.6224 42.9324 21.2477 43.4181 21.6345C43.6188 21.7916 43.8544 21.905 44.0405 22.0766C44.2799 22.3291 44.4195 22.6599 44.4334 23.0076C44.4473 23.3553 44.3346 23.6962 44.1161 23.967C43.8866 24.2289 43.5889 24.4219 43.2561 24.5246C42.9234 24.6273 42.5687 24.6356 42.2315 24.5487C41.556 24.3601 40.9783 23.9199 40.6174 23.3185C40.376 22.9404 40.1608 22.4809 39.7449 22.3413C39.5605 22.2994 39.3688 22.3015 39.1854 22.3475C39.002 22.3935 38.832 22.482 38.6891 22.6059C38.3838 22.827 38.1278 23.1178 37.8166 23.3156C37.6308 23.4109 37.4529 23.5208 37.2844 23.6442C36.7842 24.0775 36.8598 24.8599 36.9761 25.5114C36.7667 25.5754 36.726 25.2002 36.5428 25.0809C36.3596 24.9617 36.1472 25.1362 36.1152 25.331C36.1046 25.528 36.1609 25.7228 36.2752 25.8836C36.7522 26.7183 37.3164 27.5385 37.4764 28.4837C37.5087 28.6096 37.5026 28.7423 37.4589 28.8647C37.3628 29.0102 37.2153 29.1141 37.0459 29.1555C36.755 29.2816 36.4411 29.3459 36.124 29.3446C35.9655 29.342 35.8098 29.302 35.6698 29.2276C35.5297 29.1533 35.4093 29.0469 35.3184 28.9171C35.2285 28.7486 35.1741 28.5635 35.1584 28.3732C35.1188 27.7425 35.0333 27.1155 34.9025 26.4973C34.5505 25.2816 33.5064 24.223 33.6606 22.9695C33.7736 22.4029 34.011 21.8685 34.3557 21.4048C34.557 21.0524 34.8034 20.7278 35.0886 20.4392C35.369 20.1991 35.6776 19.994 36.0076 19.8284C36.6887 19.4223 37.4343 19.136 38.2122 18.9821C39.1341 18.8425 39.9572 19.1421 40.8588 19.1857C41.5684 19.2177 42.0105 19.3893 42.406 20.0844Z" fill="#2E2E3F"/>
<path d="M31.8577 59.3792C32.379 59.7416 32.9756 59.9812 33.6027 60.0801C36.9471 60.8218 40.414 60.8158 43.7558 60.0626C44.4538 59.9027 45.2303 59.6467 45.5328 58.9953C45.6683 58.6375 45.7191 58.2533 45.6811 57.8726C45.6016 54.2779 45.5221 50.6822 45.4426 47.0855C45.3525 42.9993 45.2623 38.8985 44.6632 34.8559C44.4866 34.0204 44.1552 33.2253 43.686 32.5117C43.2963 31.9795 41.5309 32.2645 40.0564 31.3106C39.6521 31.0488 40.5304 32.4012 39.21 32.9596C37.8402 33.5413 36.3017 30.8162 35.4699 31.9097C35.0016 32.5205 33.5126 32.0668 33.0414 32.6746C32.6633 33.1632 32.4306 34.1957 32.2823 35.4405C31.9682 38.0842 32.0467 41.6731 31.9915 42.9789C31.7443 47.548 32.1282 53.3763 30.6187 57.1484C30.2726 57.9686 31.1771 58.8411 31.8577 59.3792Z" fill="#F24748"/>
<path d="M31.8583 59.3797C32.3795 59.7421 32.9761 59.9817 33.6033 60.0806C34.4384 60.2656 35.2831 60.4044 36.1336 60.4965L36.372 60.4645C35.7497 58.4286 35.7206 56.2881 35.738 54.1708C35.738 53.0074 35.7729 51.8296 35.7962 50.6604C35.8107 49.9217 35.8369 49.1452 36.2179 48.514C36.5989 47.8829 37.4656 47.4816 38.0996 47.8626C37.009 47.2053 36.1161 44.4249 35.6682 43.2848C35.024 41.6332 34.5731 39.9126 34.3246 38.1574C34.1559 36.9533 34.2199 34.836 32.376 35.4061L32.2742 35.441C31.9601 38.0847 32.0386 41.6736 31.9833 42.9794C31.7361 47.5485 32.12 53.3768 30.6106 57.1489C30.2732 57.9691 31.1777 58.8416 31.8583 59.3797Z" fill="url(#paint5_linear_3504_28055)"/>
<path d="M42.2785 92.0829C42.1732 92.0918 42.0754 92.1407 42.0051 92.2196C41.9608 92.3097 41.9436 92.4107 41.9557 92.5104C41.9557 93.0921 41.5863 93.6185 41.6067 94.1943C41.6212 94.7091 41.9411 95.1919 41.8975 95.7067C41.8975 95.8085 41.8713 95.9277 41.944 95.9975C41.9913 96.0365 42.0489 96.0607 42.1098 96.0673C43.5698 96.3465 45.0366 96.5899 46.5102 96.7973C46.7821 96.8696 47.0712 96.8385 47.3216 96.7101C47.4349 96.6235 47.524 96.5094 47.5804 96.3785C47.9789 95.5671 47.6241 94.5724 47.0831 93.8482C45.7598 92.0654 44.483 91.6379 42.2785 92.0829Z" fill="#2E2E3F"/>
<path d="M23.8997 91.8574C24.0024 92.321 24.2662 92.7333 24.6442 93.0207C25.5806 93.8858 26.6512 94.593 27.8143 95.1147C28.0487 95.2462 28.3176 95.303 28.5851 95.2776C28.7879 95.2189 28.9659 95.0952 29.0915 94.9255C29.2171 94.7557 29.2834 94.5494 29.2802 94.3382C29.2658 93.916 29.1565 93.5024 28.9602 93.1283C28.3989 91.8312 28.0092 89.9291 26.5114 89.4144C25.2026 88.9752 23.7601 90.5661 23.8997 91.8574Z" fill="#2E2E3F"/>
<path d="M42.2785 92.0829C42.1732 92.0918 42.0754 92.1407 42.0051 92.2196C41.9608 92.3097 41.9436 92.4107 41.9557 92.5104C41.9557 93.0921 41.5863 93.6185 41.6067 94.1943C41.6212 94.7091 41.9411 95.1919 41.8975 95.7067C41.8975 95.8085 41.8713 95.9277 41.944 95.9975C41.9913 96.0365 42.0489 96.0607 42.1098 96.0673C43.5698 96.3465 45.0366 96.5899 46.5102 96.7973C46.7821 96.8696 47.0712 96.8385 47.3216 96.7101C47.4349 96.6235 47.524 96.5094 47.5804 96.3785C47.9789 95.5671 47.6241 94.5724 47.0831 93.8482C45.7598 92.0654 44.483 91.6379 42.2785 92.0829Z" fill="url(#paint6_linear_3504_28055)"/>
<path d="M24.6441 93.0254C25.5805 93.8904 26.6511 94.5976 27.8142 95.1194C28.0486 95.2508 28.3175 95.3077 28.585 95.2823" fill="url(#paint7_linear_3504_28055)"/>
<path d="M34.7106 43.1349C34.6602 43.4994 34.6992 43.8707 34.8241 44.2168C35.0335 44.6967 35.5192 44.9875 35.9874 45.2464L46.3033 51.0834C46.7861 51.3568 47.3038 51.6651 47.5103 52.1828C47.964 53.3461 46.5418 54.3903 45.3058 54.4833C44.0116 54.5793 42.7377 54.1925 41.5104 53.765C37.6332 52.428 33.8886 50.7339 30.3248 48.7044C29.8844 48.5408 29.5152 48.2281 29.2815 47.8205C29.0477 47.413 28.9641 46.9365 29.0452 46.4737C29.035 43.6262 29.2528 40.7824 29.6966 37.9697C29.938 36.4311 30.2783 34.8228 31.3166 33.6566C32.8522 31.9116 35.6558 31.8592 35.8972 34.4156C36.1648 37.3182 34.9055 40.2789 34.7106 43.1349Z" fill="#F24748"/>
<path d="M34.7106 43.1349C34.6602 43.4994 34.6992 43.8707 34.8241 44.2168C35.0335 44.6967 35.5192 44.9875 35.9874 45.2464L46.3033 51.0834C46.7861 51.3568 47.3038 51.6651 47.5103 52.1828C47.964 53.3461 46.5418 54.3903 45.3058 54.4833C44.0116 54.5793 42.7377 54.1925 41.5104 53.765C37.6332 52.428 33.8886 50.7339 30.3248 48.7044C29.8844 48.5408 29.5152 48.2281 29.2815 47.8205C29.0477 47.413 28.9641 46.9365 29.0452 46.4737C29.035 43.6262 29.2528 40.7824 29.6966 37.9697C29.938 36.4311 30.2783 34.8228 31.3166 33.6566C32.8522 31.9116 35.6558 31.8592 35.8972 34.4156C36.1648 37.3182 34.9055 40.2789 34.7106 43.1349Z" fill="url(#paint8_linear_3504_28055)"/>
<path d="M48.8355 52.0528C49.5798 52.0505 50.2972 52.3312 50.8423 52.838C51.1079 53.0967 51.2869 53.4313 51.3546 53.7959C51.4223 54.1605 51.3754 54.537 51.2204 54.8739C51.11 55.0995 50.9175 55.2743 50.6823 55.3625C50.4747 55.4197 50.2547 55.4126 50.0512 55.3421C49.4695 55.1647 48.9897 54.7139 48.4196 54.4696C48.2816 54.4018 48.1242 54.3843 47.9746 54.4202C47.8785 54.469 47.787 54.5264 47.7013 54.5917C47.5815 54.6572 47.4481 54.6937 47.3117 54.6982C47.1754 54.7028 47.0398 54.6753 46.916 54.6179C46.6696 54.4985 46.462 54.312 46.3169 54.0799C46.1063 53.7882 46.0035 53.4326 46.026 53.0736C46.0842 52.521 46.4041 52.3436 46.8811 52.2883C47.5355 52.2185 48.1637 52.0295 48.8355 52.0528Z" fill="#F3BD8F"/>
<path d="M58.4186 50.2585C58.6935 50.5959 58.8822 50.9952 58.9683 51.4218C59.014 51.6238 59.007 51.8341 58.9479 52.0325C58.8638 52.2257 58.7239 52.3893 58.5462 52.5023C58.3684 52.6152 58.1609 52.6725 57.9503 52.6666C57.5285 52.6488 57.1185 52.5215 56.7608 52.2972C56.0962 51.9141 55.4613 51.4814 54.8617 51.003C54.7373 50.9183 54.6265 50.8154 54.533 50.6976C54.4216 50.5158 54.3756 50.3014 54.4025 50.0898C54.4295 49.8783 54.5279 49.6823 54.6813 49.5343C55.6644 48.5483 57.6799 49.3423 58.4186 50.2585Z" fill="#F3BD8F"/>
<path d="M67.7446 83.8529H92.2563L101.77 57.9395H60.3661L67.7446 83.8529ZM91.2413 82.3987H68.8469L62.2944 59.3878H99.6871L91.2413 82.3987Z" fill="#F24748"/>
<path d="M58.0708 83.8529H82.5854L92.0957 57.9395H49.9827L58.0708 83.8529ZM81.5645 82.3987H59.1702L52.6177 59.3878H89.9988L81.5645 82.3987Z" fill="#F24748"/>
<path d="M57.925 83.8675H69.5352L64.335 65.5303L60.0423 52.2129L48.3332 52.3699L57.925 83.8675ZM67.6127 82.4133H59.0011L50.276 53.7979L58.9778 53.6816L62.9506 65.952L67.6127 82.4133Z" fill="#F24748"/>
<defs>
<linearGradient id="paint0_linear_3504_28055" x1="54.8067" y1="83.782" x2="55.6239" y2="112.441" gradientUnits="userSpaceOnUse">
<stop offset="0.01"/>
<stop offset="0.13" stop-opacity="0.69"/>
<stop offset="1" stop-opacity="0"/>
</linearGradient>
<linearGradient id="paint1_linear_3504_28055" x1="45.3936" y1="48.2913" x2="47.8483" y2="44.1149" gradientUnits="userSpaceOnUse">
<stop offset="0.01"/>
<stop offset="0.13" stop-opacity="0.69"/>
<stop offset="1" stop-opacity="0"/>
</linearGradient>
<linearGradient id="paint2_linear_3504_28055" x1="34.7682" y1="58.1173" x2="41.8646" y2="73.7294" gradientUnits="userSpaceOnUse">
<stop offset="0.01"/>
<stop offset="0.13" stop-opacity="0.69"/>
<stop offset="1" stop-opacity="0"/>
</linearGradient>
<linearGradient id="paint3_linear_3504_28055" x1="33.8563" y1="65.3955" x2="30.3372" y2="65.3955" gradientUnits="userSpaceOnUse">
<stop offset="0.01"/>
<stop offset="0.13" stop-opacity="0.69"/>
<stop offset="1" stop-opacity="0"/>
</linearGradient>
<linearGradient id="paint4_linear_3504_28055" x1="42.313" y1="67.1944" x2="35.2631" y2="73.4648" gradientUnits="userSpaceOnUse">
<stop offset="0.01"/>
<stop offset="0.13" stop-opacity="0.69"/>
<stop offset="1" stop-opacity="0"/>
</linearGradient>
<linearGradient id="paint5_linear_3504_28055" x1="19.3407" y1="48.7583" x2="52.3477" y2="46.8999" gradientUnits="userSpaceOnUse">
<stop offset="0.01"/>
<stop offset="0.13" stop-opacity="0.69"/>
<stop offset="1" stop-opacity="0"/>
</linearGradient>
<linearGradient id="paint6_linear_3504_28055" x1="47.752" y1="94.3688" x2="41.6038" y2="94.3688" gradientUnits="userSpaceOnUse">
<stop offset="0.01"/>
<stop offset="0.13" stop-opacity="0.69"/>
<stop offset="1" stop-opacity="0"/>
</linearGradient>
<linearGradient id="paint7_linear_3504_28055" x1="28.585" y1="94.1596" x2="24.6441" y2="94.1596" gradientUnits="userSpaceOnUse">
<stop offset="0.01"/>
<stop offset="0.13" stop-opacity="0.69"/>
<stop offset="1" stop-opacity="0"/>
</linearGradient>
<linearGradient id="paint8_linear_3504_28055" x1="33.8003" y1="54.0791" x2="38.9597" y2="44.0888" gradientUnits="userSpaceOnUse">
<stop offset="0.01"/>
<stop offset="0.13" stop-opacity="0.69"/>
<stop offset="1" stop-opacity="0"/>
</linearGradient>
</defs>
</svg>
