<svg width="141" height="112" viewBox="0 0 141 112" fill="none" xmlns="http://www.w3.org/2000/svg">
<path opacity="0.18" d="M107.277 6.07694C104.13 4.93353 101.261 3.12845 98.1294 1.9576C93.8789 0.372063 89.287 -0.00602602 84.7377 7.21913e-05C70.0685 7.21913e-05 55.1035 4.08892 43.6388 13.2393C39.0713 16.8769 34.9672 21.356 29.5001 23.3837C25.1734 24.9936 20.0875 25.0332 16.5871 28.0427C12.6721 31.3967 12.1873 37.2479 12.5379 42.4009C12.8886 47.5539 13.7271 52.9966 11.5256 57.6678C10.2328 60.412 8.01611 62.5799 6.19884 65.007C3.73598 68.3015 2.00793 72.0857 1.13115 76.1045C0.254368 80.1234 0.249223 84.2834 1.11606 88.3044C1.9829 92.3254 3.70158 96.1138 6.15628 99.4145C8.61098 102.715 11.7447 105.451 15.3462 107.438C22.5451 111.402 31.0795 112.122 39.303 111.985C46.8099 111.86 54.6613 110.978 60.8907 106.786C64.9033 104.081 68.0561 100.117 72.4132 98.0136C77.6668 95.4828 83.7955 96.0378 89.6285 96.0012C96.5378 95.9524 103.618 94.9279 109.646 91.5495C115.674 88.1711 120.501 82.1247 121.05 75.2398C121.467 69.9557 119.44 64.446 121.211 59.4546C121.885 57.555 123.071 55.881 124.343 54.3199C129.02 48.554 135.213 43.7791 138.167 36.9491C139.768 33.2536 140.302 29.1831 140.491 25.1613C140.722 20.0967 140.039 14.2607 135.883 11.3519C132.115 8.71442 127.474 9.93406 123.227 9.32424C118.007 8.56501 112.25 7.87591 107.277 6.07694Z" fill="#F24748"/>
<path d="M51.798 58.4155C51.798 58.4155 38.3088 55.1073 29.2712 62.6142C20.2337 70.121 30.5458 66.9439 33.8449 67.9623C37.144 68.9807 42.1171 70.8894 42.1171 70.8894C42.1171 70.8894 55.8716 64.3918 51.798 58.4155Z" fill="#3E3E54"/>
<path d="M51.798 58.4155C51.798 58.4155 38.3088 55.1073 29.2712 62.6142C20.2337 70.121 30.5458 66.9439 33.8449 67.9623C37.144 68.9807 42.1171 70.8894 42.1171 70.8894C42.1171 70.8894 55.8716 64.3918 51.798 58.4155Z" fill="url(#paint0_linear_3504_27719)"/>
<path d="M47.0721 79.832C47.0721 79.832 55.5578 74.2338 60.8175 75.9291L65.2295 77.286C65.2295 77.286 62.5158 94.428 47.4106 95.9556C47.4106 95.9556 44.1876 96.2941 47.7521 90.3544C51.3165 84.4148 47.0721 79.832 47.0721 79.832Z" fill="#3E3E54"/>
<path d="M47.0721 79.832C47.0721 79.832 55.5578 74.2338 60.8175 75.9291L65.2295 77.286C65.2295 77.286 62.5158 94.428 47.4106 95.9556C47.4106 95.9556 44.1876 96.2941 47.7521 90.3544C51.3165 84.4148 47.0721 79.832 47.0721 79.832Z" fill="url(#paint1_linear_3504_27719)"/>
<path d="M70.7065 23.9774C71.3136 24.3004 71.9665 24.5287 72.6427 24.6543C73.6397 24.7854 74.6307 24.4683 75.5972 24.1969C76.7228 23.8823 77.8637 23.6248 79.0153 23.4255C79.6495 23.3188 80.3904 23.2608 80.8448 23.7304C81.2991 24.2 81.2076 25.011 80.8112 25.5324C80.4148 26.0538 79.802 26.3526 79.2104 26.6362L75.7406 28.2919C75.1468 28.598 74.5263 28.8491 73.8867 29.0419C71.2431 29.7554 68.4989 28.4321 66.1968 26.9594C65.3096 26.3862 64.3491 25.63 64.3125 24.575C64.3239 24.1564 64.4107 23.7432 64.5686 23.3554C64.6922 22.8742 64.9428 22.435 65.2943 22.0839C66.3432 21.1783 69.6484 23.4804 70.7065 23.9774Z" fill="#F24748"/>
<path d="M70.6328 24.0148C71.2399 24.3378 71.8928 24.5661 72.5689 24.6917C73.566 24.8228 74.5569 24.5057 75.5235 24.2343C76.6528 23.9188 77.7978 23.6623 78.9538 23.4659C79.5849 23.3562 80.3289 23.2982 80.7832 23.7708C81.2375 24.2434 81.1461 25.0484 80.7497 25.5698C80.3533 26.0912 79.7404 26.39 79.1489 26.6736L75.679 28.3292C75.0853 28.6354 74.4648 28.8865 73.8252 29.0793C71.1816 29.7928 68.4374 28.4695 66.1353 26.9968C65.248 26.4266 64.2876 25.6674 64.251 24.6124C64.2602 24.1935 64.347 23.78 64.5071 23.3927C64.6256 22.9176 64.8675 22.4821 65.2084 22.1304C66.2695 21.2157 69.5625 23.5208 70.6328 24.0148Z" fill="url(#paint2_linear_3504_27719)"/>
<path d="M77.6018 36.8546C76.6169 38.3791 75.3516 39.7238 74.0953 41.044C72.8391 42.3643 71.5829 43.6632 69.912 44.2822C69.0887 44.5871 68.113 44.6908 67.3629 44.2273C66.5488 43.7273 66.2134 42.657 66.3658 41.7118C66.5699 40.7698 67.0385 39.9056 67.7166 39.2207C68.2367 38.5788 68.8143 37.9858 69.4424 37.4491C70.1315 36.9247 70.8633 36.9521 71.7628 36.8881C73.7062 36.7474 75.6569 36.7362 77.6018 36.8546Z" fill="#3E3E54"/>
<path d="M77.6018 36.8546C76.6169 38.3791 75.3516 39.7238 74.0953 41.044C72.8391 42.3643 71.5829 43.6632 69.912 44.2822C69.0887 44.5871 68.113 44.6908 67.3629 44.2273C66.5488 43.7273 66.2134 42.657 66.3658 41.7118C66.5699 40.7698 67.0385 39.9056 67.7166 39.2207C68.2367 38.5788 68.8143 37.9858 69.4424 37.4491C70.1315 36.9247 70.8633 36.9521 71.7628 36.8881C73.7062 36.7474 75.6569 36.7362 77.6018 36.8546Z" fill="url(#paint3_linear_3504_27719)"/>
<path d="M129.472 23.1974C129.351 23.9343 129.19 24.6641 128.99 25.3836C127.934 29.155 126.438 32.7891 124.532 36.211C120.288 43.9953 112.513 54.2007 98.4136 63.6529C76.2771 78.5509 56.8482 81.0328 49.6798 81.4079C47.7832 81.5146 46.7435 81.475 46.7435 81.475L40.252 71.4129C40.252 71.4129 47.5698 60.5185 60.7785 49.0935C66.8702 43.7917 73.4805 39.1172 80.5093 35.1407C84.7158 32.7707 89.0708 30.6747 93.5473 28.8657C99.6907 26.3465 106.1 24.5328 112.653 23.4596C123.267 21.807 129.472 23.1974 129.472 23.1974Z" fill="#F24748"/>
<path d="M77.4448 39.5471C77.1399 40.1112 78.0881 41.9102 78.6065 42.2913C79.1248 42.6725 79.759 42.9012 80.131 43.4317C80.2058 43.5241 80.259 43.6319 80.287 43.7474C80.3149 43.8629 80.3169 43.9831 80.2926 44.0995C80.1951 44.441 79.8048 44.5934 79.4663 44.7093L70.3678 47.5084C70.1158 47.5616 69.8823 47.6805 69.6909 47.8529C69.325 48.2432 69.508 48.9262 69.9257 49.2525C70.3783 49.5431 70.9143 49.6761 71.4502 49.6305C74.3926 49.6305 77.6247 48.4109 80.0883 50.0086C80.7889 50.5093 81.3967 51.1284 81.8843 51.8381C83.6217 54.1432 84.952 56.7285 85.8176 59.4822C86.0829 60.3299 86.3024 61.2537 85.9975 62.0892C84.5577 61.5007 83.3202 60.5059 82.4362 59.2261C81.3324 57.6161 80.7653 55.5489 79.1584 54.4451C77.9845 53.6371 76.466 53.5303 75.0451 53.6493C73.6242 53.7682 72.2247 54.1249 70.8008 54.1432C67.6297 54.1829 64.7026 52.6187 61.9096 51.0941C61.3272 50.7892 60.6655 50.3349 60.6534 49.6702C60.652 49.4875 60.696 49.3073 60.7814 49.1457C66.8731 43.844 73.4834 39.1695 80.5122 35.193C84.7186 32.823 89.0737 30.727 93.5502 28.918C94.7576 30.6346 77.5759 39.3124 77.4448 39.5471Z" fill="url(#paint4_linear_3504_27719)"/>
<path d="M129.359 23.308C129.359 23.308 128.606 28.644 124.42 36.3216C123.074 35.8998 121.75 35.4072 120.456 34.8458C115.144 32.5712 112.955 25.1344 112.553 23.5916C123.154 21.9207 129.359 23.308 129.359 23.308Z" fill="url(#paint5_linear_3504_27719)"/>
<path opacity="0.31" d="M104.094 42.9433C106.889 42.9433 109.155 40.6772 109.155 37.8818C109.155 35.0864 106.889 32.8203 104.094 32.8203C101.298 32.8203 99.0322 35.0864 99.0322 37.8818C99.0322 40.6772 101.298 42.9433 104.094 42.9433Z" fill="#3E3E54"/>
<path opacity="0.31" d="M90.7295 50.707C93.5249 50.707 95.791 48.4409 95.791 45.6455C95.791 42.8501 93.5249 40.584 90.7295 40.584C87.9341 40.584 85.668 42.8501 85.668 45.6455C85.668 48.4409 87.9341 50.707 90.7295 50.707Z" fill="#3E3E54"/>
<path opacity="0.31" d="M76.0937 60.6347C78.8891 60.6347 81.1553 58.3686 81.1553 55.5732C81.1553 52.7778 78.8891 50.5117 76.0937 50.5117C73.2983 50.5117 71.0322 52.7778 71.0322 55.5732C71.0322 58.3686 73.2983 60.6347 76.0937 60.6347Z" fill="#3E3E54"/>
<path d="M41.354 68.0781L49.8397 81.6527L45.2569 83.3511L38.2988 71.6425L41.354 68.0781Z" fill="#3E3E54"/>
<path d="M66.2071 51.8863C70.2167 52.8559 74.4 51.8101 78.4462 51.0021C78.8619 50.8831 79.3018 50.8768 79.7207 50.9838C80.1994 51.1515 80.5196 51.5936 80.8001 52.0174C82.1982 54.141 83.3626 56.4095 84.273 58.7834C84.8219 60.2134 85.3372 61.7685 86.5568 62.6954C87.7765 63.6223 89.9535 63.415 90.3956 61.9484C88.3131 56.091 85.7488 50.4197 83.1876 44.7545C82.9558 44.2422 82.6997 43.6995 82.224 43.3976C81.8076 43.1778 81.3442 43.0617 80.8733 43.0592L66.4327 41.8121C63.1885 41.5316 58.3099 41.1016 59.3984 45.6143C60.1485 48.761 63.158 51.1484 66.2071 51.8863Z" fill="#3E3E54"/>
<path d="M66.2071 51.8863C70.2167 52.8559 74.4 51.8101 78.4462 51.0021C78.8619 50.8831 79.3018 50.8768 79.7207 50.9838C80.1994 51.1515 80.5196 51.5936 80.8001 52.0174C82.1982 54.141 83.3626 56.4095 84.273 58.7834C84.8219 60.2134 85.3372 61.7685 86.5568 62.6954C87.7765 63.6223 89.9535 63.415 90.3956 61.9484C88.3131 56.091 85.7488 50.4197 83.1876 44.7545C82.9558 44.2422 82.6997 43.6995 82.224 43.3976C81.8076 43.1778 81.3442 43.0617 80.8733 43.0592L66.4327 41.8121C63.1885 41.5316 58.3099 41.1016 59.3984 45.6143C60.1485 48.761 63.158 51.1484 66.2071 51.8863Z" fill="url(#paint6_linear_3504_27719)"/>
<path d="M69.8295 39.4029C69.8295 40.3877 69.8295 41.4061 69.3874 42.2904C68.8233 43.449 67.6067 44.1778 66.3383 44.4735C65.9368 44.5638 65.5291 44.6239 65.1186 44.6534C64.2432 44.692 63.3662 44.6727 62.4934 44.5955C60.8194 44.4857 58.9198 44.257 57.9197 42.9093C57.2184 41.9611 57.1574 40.6987 57.13 39.5187C57.0568 36.2928 57.0416 33.0668 57.0172 29.8409C57.0172 27.9962 56.2701 25.5081 56.5324 23.7427C56.621 23.0138 56.9049 22.3224 57.3541 21.7417C57.8034 21.1609 58.4012 20.7124 59.0845 20.4435C61.5573 19.3855 65.1491 20.163 66.9024 22.1785C68.308 23.7884 68.8508 25.9685 69.1801 28.0815C69.7807 31.8106 69.8265 35.6159 69.8295 39.4029Z" fill="#F24748"/>
<path d="M64.3285 33.2566C64.487 35.6958 64.5724 38.1351 64.5846 40.5744C64.5652 41.2467 64.5978 41.9195 64.6821 42.5868C64.7645 43.096 65.0907 43.5656 65.1487 44.0473C65.1737 44.2504 65.1676 44.456 65.1304 44.6572C64.255 44.6957 63.3779 44.6764 62.5051 44.5992C60.8311 44.4895 58.9315 44.2608 57.9314 42.9131C57.2301 41.9648 57.1692 40.7025 57.1417 39.5225C57.0685 36.2965 57.0533 33.0706 57.0289 29.8446C57.0289 27.9999 56.2819 25.5118 56.5441 23.7464C56.6327 23.0175 56.9166 22.3262 57.3659 21.7454C57.8151 21.1647 58.413 20.7161 59.0962 20.4473C59.2921 20.5115 59.4819 20.5931 59.6633 20.6912C60.7336 21.2583 61.5416 22.2157 62.2795 23.1793C62.6645 23.6587 62.992 24.1816 63.2552 24.7374C63.5343 25.466 63.7068 26.2311 63.7674 27.0089C63.9565 28.6097 64.1089 30.2166 64.2339 31.8265C64.301 32.6864 64.0723 33.2291 64.9993 33.3938C65.7875 33.5314 66.5841 33.616 67.3837 33.6468C68.1978 33.6834 69.1613 33.5889 69.5912 32.8968C69.7344 32.6295 69.7975 32.3266 69.7732 32.0244C69.7489 31.7221 69.6381 31.4333 69.454 31.1923C69.0755 30.7164 68.5623 30.3657 67.9813 30.1861C67.4142 29.9788 66.8165 29.8629 66.2433 29.6708C65.661 29.4929 65.1235 29.1924 64.6669 28.7896C64.2071 28.383 63.9174 27.8179 63.8558 27.2071" fill="url(#paint7_linear_3504_27719)"/>
<path d="M60.6767 19.9303C60.6444 20.2232 60.6568 20.5192 60.7133 20.8084C60.8932 21.525 61.5762 21.9945 62.2531 22.2903C62.6708 22.4732 63.2288 22.5952 63.5307 22.2445C63.7654 21.9732 63.7075 21.5646 63.6343 21.2109L63.2319 19.2869C63.158 18.8563 63.0406 18.4344 62.8812 18.0276C62.7044 17.616 61.5365 15.939 60.945 16.3659C60.698 16.5427 60.8017 17.7502 60.7865 18.052L60.6767 19.9303Z" fill="url(#paint8_linear_3504_27719)"/>
<path d="M60.7365 16.4225C60.9032 17.2177 61.2658 17.9587 61.7915 18.5782C62.3248 19.1994 63.0775 19.5905 63.8924 19.6698C64.1894 19.7044 64.4899 19.6458 64.7522 19.5021C65.0743 19.2498 65.3098 18.9035 65.4261 18.5112C66.1182 16.8311 66.8195 14.9833 66.2951 13.2393C66.1633 12.6963 65.824 12.2267 65.3498 11.9312C64.8422 11.7143 64.2744 11.683 63.746 11.8428C62.8313 12.0501 61.4592 12.5258 60.8677 13.3063C60.2761 14.0869 60.5353 15.5657 60.7365 16.4225Z" fill="url(#paint9_linear_3504_27719)"/>
<path d="M64.0947 8.8526C63.4245 8.55166 62.6867 8.43293 61.9559 8.50842C61.2251 8.58391 60.5272 8.85094 59.9326 9.28253C59.1643 9.85881 58.6154 10.6882 57.8318 11.2401C57.0939 11.7614 56.2005 11.9993 55.3742 12.3652C55.2736 12.4079 55.1608 12.4719 55.1425 12.5786C55.112 12.7433 55.3041 12.85 55.3803 12.9994C55.4962 13.2281 55.3102 13.4903 55.1364 13.6824L54.1424 14.7679C54.0205 14.8738 53.9378 15.0178 53.9076 15.1764C53.8741 15.5942 54.4656 15.7131 54.8833 15.6765L56.2615 15.5545C55.4513 16.0996 54.7501 16.7915 54.1942 17.5944C54.4991 17.9176 55.0632 17.7651 55.4383 17.5182C55.8133 17.2712 56.17 16.9083 56.6152 16.9327C55.9475 18.0091 58.0392 17.9664 58.6642 17.9511C59.1953 17.9182 59.7141 17.7771 60.1888 17.5365C60.4165 17.4479 60.624 17.3141 60.7986 17.1431C60.8863 17.0579 60.9517 16.9524 60.9889 16.836C61.0261 16.7195 61.0341 16.5956 61.012 16.4754C60.9772 16.3701 60.9334 16.2681 60.8809 16.1705C60.7936 15.9784 60.75 15.7695 60.7532 15.5586C60.7563 15.3477 60.8062 15.1401 60.8992 14.9508C60.9297 14.8929 60.9693 14.8289 61.0364 14.8197C61.0909 14.8178 61.1442 14.8363 61.1858 14.8715L61.6462 15.1764C61.6214 14.5577 61.842 13.9542 62.26 13.4973C62.6781 13.0404 63.2597 12.7672 63.8782 12.7372C64.8295 12.6853 66.5705 13.1549 66.3419 11.6029C66.1589 10.4381 65.1344 9.32521 64.0947 8.8526Z" fill="#3E3E54"/>
<path d="M65.6185 12.7209C65.7986 12.6383 65.951 12.5053 66.057 12.3379C66.1631 12.1705 66.2183 11.976 66.2161 11.7779C66.2138 11.5797 66.1541 11.3865 66.0443 11.2216C65.9344 11.0567 65.7791 10.9272 65.5972 10.8487C65.1577 10.6141 64.661 10.5084 64.1641 10.5438C63.3293 10.5252 62.5013 10.6972 61.7431 11.0469C60.7064 11.5653 59.9563 12.5196 58.9989 13.1813C58.1869 13.6921 57.2956 14.0641 56.3614 14.282C55.9317 14.3544 55.5246 14.5256 55.1723 14.7821C55.1174 14.8339 55.0625 14.904 55.0869 14.9742C55.1045 15.0061 55.1296 15.0333 55.1601 15.0534C55.2773 15.1336 55.4105 15.1874 55.5505 15.2111C55.6906 15.2348 55.8341 15.2278 55.9711 15.1906C56.1297 15.148 56.276 15.0626 56.4224 15.0077C56.88 14.8949 57.3582 14.8949 57.8158 15.0077C58.4574 15.131 59.118 15.1133 59.752 14.9559C60.2843 14.7532 60.795 14.4978 61.2766 14.1936C61.4662 14.1012 61.6757 14.0572 61.8864 14.0655C61.7253 14.4076 61.6449 14.7821 61.6516 15.1602L61.1912 14.8552C61.1676 14.8371 61.1406 14.824 61.1117 14.8167C61.0829 14.8093 61.0529 14.8079 61.0235 14.8126C60.9595 14.8126 60.9168 14.8857 60.8863 14.9437C60.7941 15.1332 60.7447 15.3407 60.7415 15.5515C60.7384 15.7622 60.7815 15.9711 60.868 16.1633C60.9207 16.2604 60.9636 16.3626 60.9961 16.4682C61.0205 16.588 61.0144 16.712 60.9781 16.8287C60.9419 16.9455 60.8767 17.0511 60.7887 17.136C60.6117 17.3046 60.4049 17.439 60.1789 17.5324C59.7035 17.7704 59.185 17.9104 58.6543 17.944C58.0445 17.944 55.9437 18.0019 56.6084 16.9256C56.1632 16.9256 55.7851 17.2823 55.4314 17.511C55.0777 17.7397 54.5167 17.9074 54.1874 17.5872C54.7424 16.7836 55.4437 16.0916 56.2547 15.5474L54.8765 15.6694C54.4557 15.7059 53.8672 15.587 53.9008 15.1693C53.931 15.0113 54.0125 14.8678 54.1325 14.7607L55.1296 13.6752C55.3034 13.4831 55.4894 13.2209 55.3735 12.9922C55.2973 12.8428 55.1052 12.7331 55.1357 12.5715C55.154 12.4617 55.2668 12.4007 55.3674 12.355C56.1907 11.9921 57.0871 11.7452 57.825 11.236C58.6117 10.6841 59.1605 9.84861 59.9258 9.27843C60.5195 8.84519 61.2174 8.57691 61.9485 8.50086C62.6795 8.42481 63.4177 8.5437 64.0878 8.84546C65.1245 9.33026 66.1521 10.431 66.3228 11.5897C66.4357 12.3428 66.1033 12.6233 65.6185 12.7209Z" fill="url(#paint10_linear_3504_27719)"/>
<path d="M82.8517 22.0083C83.7146 21.8101 84.7208 22.0083 85.2666 22.7096C85.3358 22.7879 85.3784 22.8861 85.3886 22.9901C85.3916 23.0138 85.3897 23.0379 85.3831 23.0609C85.3765 23.0838 85.3653 23.1052 85.3502 23.1237C85.3351 23.1423 85.3164 23.1575 85.2952 23.1686C85.274 23.1797 85.2508 23.1864 85.227 23.1883H84.5897C84.1566 23.4544 83.7555 23.7695 83.3945 24.1274C82.869 24.5561 82.2458 24.8483 81.5803 24.9781C80.696 25.1519 79.5984 24.5512 80.2844 23.5908C80.821 22.8376 81.9675 22.2126 82.8517 22.0083Z" fill="url(#paint11_linear_3504_27719)"/>
<path d="M81.3235 29.8659C81.465 29.934 81.5886 30.0343 81.6844 30.1587C81.7803 30.2831 81.8457 30.4282 81.8753 30.5825C81.8801 30.6338 81.8706 30.6855 81.8479 30.7319C81.7656 30.8721 81.5613 30.8386 81.3997 30.8111C80.3477 30.6221 79.3476 31.4423 78.2774 31.421C77.7877 31.4083 77.322 31.2061 76.9785 30.8569C76.6736 30.5306 76.3687 29.9147 76.5394 29.4573C76.7193 28.9329 77.3291 28.9237 77.8048 28.9085C79.0477 28.8624 80.2752 29.1964 81.3235 29.8659Z" fill="url(#paint12_linear_3504_27719)"/>
<path d="M88.2822 18.4348L92.429 15.2973C92.429 15.2973 93.4474 14.9558 93.7889 15.3827C94.1304 15.8095 93.7462 28.817 93.7462 28.817L88.6115 31.235L88.2822 18.4348Z" fill="#F24748"/>
<path d="M88.3438 18.47L92.4997 15.3324C92.4997 15.3324 93.5181 14.991 93.8596 15.4178C94.2011 15.8447 93.7559 28.8339 93.7559 28.8339L88.6822 31.2732L88.3438 18.47Z" fill="url(#paint13_linear_3504_27719)"/>
<path d="M89.5725 18.4092L93.8596 15.4211C93.8596 15.4211 93.0943 14.8692 92.4997 15.3357C91.9051 15.8023 88.3438 18.4702 88.3438 18.4702L89.5725 18.4092Z" fill="url(#paint14_linear_3504_27719)"/>
<path d="M88.1233 64.6541C88.1568 64.7366 88.2054 64.8121 88.2666 64.8767C88.3435 64.9406 88.4344 64.9855 88.5319 65.0078C88.7818 65.0773 89.0438 65.0915 89.2998 65.0494C89.5557 65.0073 89.7994 64.9098 90.0138 64.7639C90.1918 64.6505 90.3311 64.4857 90.4132 64.2913C90.4904 63.9878 90.4701 63.6678 90.3553 63.3765L90.1022 62.4984C90.1003 62.486 90.0951 62.4744 90.087 62.4648C90.0656 62.4648 90.0382 62.4648 90.0168 62.4648C89.282 62.9039 88.416 62.4648 87.7147 62.7698C87.1232 63.0564 87.9068 64.2089 88.1233 64.6541Z" fill="url(#paint15_linear_3504_27719)"/>
<path d="M88.9778 64.5925C88.7307 64.6076 88.4851 64.6413 88.243 64.6931C88.1226 64.7225 88.0118 64.7822 87.9211 64.8665C87.8304 64.9509 87.7627 65.057 87.7246 65.1749C87.7039 65.407 87.7654 65.6391 87.8984 65.8304C88.0753 66.1567 88.2521 66.4829 88.4412 66.8031C88.5429 67.0176 88.7051 67.1978 88.9077 67.3215C89.1131 67.4034 89.3387 67.4204 89.5541 67.3702C90.2022 67.246 90.8321 67.0411 91.4293 66.7604C92.6489 66.2461 93.8594 65.6963 95.0608 65.1109C95.259 65.0133 95.4785 64.8883 95.5182 64.6718C95.5283 64.5962 95.52 64.5193 95.494 64.4476C95.468 64.3759 95.425 64.3116 95.3687 64.2602C95.2543 64.1592 95.1219 64.0806 94.9785 64.0284C94.1224 63.7004 93.2221 63.5021 92.3074 63.4399C91.9842 63.4064 91.4415 63.254 91.1396 63.4003C90.8378 63.5467 90.5481 63.9065 90.2249 64.1016C89.8486 64.3516 89.4236 64.519 88.9778 64.5925Z" fill="#3E3E54"/>
<path d="M76.6321 31.2193C76.1011 31.5403 75.5093 31.7479 74.8941 31.8291L71.5858 32.4969C70.8596 32.6797 70.1117 32.7618 69.363 32.7408C68.6834 32.6666 68.0168 32.5014 67.3811 32.2499C64.8138 31.3352 60.7432 30.2588 58.7735 28.2647C57.2825 26.7402 57.6484 23.7215 59.5754 22.9654C59.9421 22.8233 60.3359 22.765 60.728 22.7946C62.3623 22.8983 63.4722 24.4015 64.7284 25.4595C67.4238 27.7586 71.1864 28.158 74.7295 28.4202H74.8027H75.0405C75.9552 28.4873 77.0834 28.7251 77.3334 29.6002C77.4889 30.2192 77.1413 30.8625 76.6321 31.2193Z" fill="#F24748"/>
<path d="M79.6447 36.2285L88.6822 31.2768L89.5726 18.4218C89.5726 18.4218 88.2005 17.8546 88.0876 19.1566C87.9748 20.4586 87.0144 30.2431 87.0144 30.2431L79.2087 34.3716C79.2087 34.3716 78.0469 35.5455 79.6447 36.2285Z" fill="#F24748"/>
<path d="M45.0436 82.7729C42.7015 86.379 39.191 89.0703 35.1005 90.3957L36.6555 87.0599C34.7041 89.4748 32.7374 91.9019 30.4262 93.9784C28.115 96.0548 25.4165 97.7775 22.4101 98.552C22.1052 98.1099 22.4314 97.5184 22.7546 97.0884C24.8943 94.2403 27.2698 91.5771 29.856 89.1272C23.9011 92.5941 17.9218 96.0731 11.5156 98.6099C15.6344 92.895 20.5649 87.8114 26.1513 83.5199L22.2241 84.5322C26.8431 79.1656 32.4099 74.6944 38.6466 71.3418C41.2048 74.8452 43.2446 78.8426 45.0436 82.7729Z" fill="#F24748"/>
<path d="M45.0436 82.7729C42.7015 86.379 39.191 89.0703 35.1005 90.3957L36.6555 87.0599C34.7041 89.4748 32.7374 91.9019 30.4262 93.9784C28.115 96.0548 25.4165 97.7775 22.4101 98.552C22.1052 98.1099 22.4314 97.5184 22.7546 97.0884C24.8943 94.2403 27.2698 91.5771 29.856 89.1272C23.9011 92.5941 17.9218 96.0731 11.5156 98.6099C15.6344 92.895 20.5649 87.8114 26.1513 83.5199L22.2241 84.5322C26.8431 79.1656 32.4099 74.6944 38.6466 71.3418C41.2048 74.8452 43.2446 78.8426 45.0436 82.7729Z" fill="url(#paint16_linear_3504_27719)"/>
<path d="M32.6666 79.4925C32.5233 79.6907 32.38 79.956 32.505 80.1664C32.6011 80.2863 32.7358 80.3693 32.8862 80.4012L34.0601 80.7884C32.548 82.1184 31.1544 83.5773 29.895 85.1486C29.6846 85.4108 29.4803 85.8103 29.7212 86.0451C29.8354 86.1388 29.9789 86.1895 30.1267 86.1884C31.758 86.3347 33.2795 85.4322 34.6699 84.5662C34.4173 85.4847 33.9794 86.3418 33.3832 87.0848C34.9565 86.7799 36.3804 85.9658 37.6519 85.0175C38.9234 84.0692 40.1217 82.9838 41.4328 82.066L40.9998 83.1941C41.8022 82.666 42.4941 81.9866 43.0366 81.1939C43.1674 81.052 43.2499 80.8723 43.2723 80.6806C43.2948 80.4889 43.256 80.2951 43.1616 80.1267C42.5076 78.3548 41.5717 76.7002 40.39 75.2268C40.187 74.9421 39.9275 74.7024 39.6277 74.5225C38.6703 74.0194 36.6731 75.6567 35.9048 76.2208C34.6605 77.1348 33.5677 78.2389 32.6666 79.4925Z" fill="#F24748"/>
<path d="M32.6666 79.4925C32.5233 79.6907 32.38 79.956 32.505 80.1664C32.6011 80.2863 32.7358 80.3693 32.8862 80.4012L34.0601 80.7884C32.548 82.1184 31.1544 83.5773 29.895 85.1486C29.6846 85.4108 29.4803 85.8103 29.7212 86.0451C29.8354 86.1388 29.9789 86.1895 30.1267 86.1884C31.758 86.3347 33.2795 85.4322 34.6699 84.5662C34.4173 85.4847 33.9794 86.3418 33.3832 87.0848C34.9565 86.7799 36.3804 85.9658 37.6519 85.0175C38.9234 84.0692 40.1217 82.9838 41.4328 82.066L40.9998 83.1941C41.8022 82.666 42.4941 81.9866 43.0366 81.1939C43.1674 81.052 43.2499 80.8723 43.2723 80.6806C43.2948 80.4889 43.256 80.2951 43.1616 80.1267C42.5076 78.3548 41.5717 76.7002 40.39 75.2268C40.187 74.9421 39.9275 74.7024 39.6277 74.5225C38.6703 74.0194 36.6731 75.6567 35.9048 76.2208C34.6605 77.1348 33.5677 78.2389 32.6666 79.4925Z" fill="url(#paint17_linear_3504_27719)"/>
<path d="M76.0862 29.585C75.9031 29.6566 75.7058 29.6848 75.5099 29.6673C73.4731 29.6673 71.4211 29.6368 69.4117 29.2801C67.4024 28.9233 65.4204 28.2098 63.8349 26.9322C62.7159 26.0175 61.8317 24.8863 60.7096 23.996C60.4047 23.7429 59.6119 23.4258 59.5723 22.9654C59.9389 22.8233 60.3327 22.765 60.7248 22.7946C62.3591 22.8983 63.469 24.4015 64.7253 25.4595C67.4207 27.7586 71.1833 28.158 74.7263 28.4202H74.7995C75.2479 28.4575 75.6834 28.5895 76.0771 28.8074C76.1991 28.8668 76.294 28.9703 76.3423 29.0971C76.3623 29.1955 76.3478 29.2977 76.3011 29.3866C76.2544 29.4755 76.1785 29.5456 76.0862 29.585Z" fill="url(#paint18_linear_3504_27719)"/>
<path d="M129.361 23.3045L128.986 25.384C127.934 29.1564 126.438 32.7909 124.531 36.2114C120.284 43.9958 112.511 54.1859 98.4155 63.6534C76.2759 78.5513 56.847 81.0333 49.6785 81.4114L47.2393 78.0238C103.306 61.4702 116.552 34.9796 118.094 34.76C119.637 34.5405 124.278 23.2832 124.278 23.2832L129.361 23.3045Z" fill="url(#paint19_linear_3504_27719)"/>
<defs>
<linearGradient id="paint0_linear_3504_27719" x1="25.6489" y1="64.282" x2="52.5542" y2="64.282" gradientUnits="userSpaceOnUse">
<stop stop-opacity="0"/>
<stop offset="0.99"/>
</linearGradient>
<linearGradient id="paint1_linear_3504_27719" x1="46.075" y1="85.7838" x2="65.2295" y2="85.7838" gradientUnits="userSpaceOnUse">
<stop stop-opacity="0"/>
<stop offset="0.99"/>
</linearGradient>
<linearGradient id="paint2_linear_3504_27719" x1="77.4445" y1="18.2184" x2="57.0246" y2="43.8248" gradientUnits="userSpaceOnUse">
<stop stop-opacity="0"/>
<stop offset="0.99"/>
</linearGradient>
<linearGradient id="paint3_linear_3504_27719" x1="68.5886" y1="36.4856" x2="74.0343" y2="42.224" gradientUnits="userSpaceOnUse">
<stop stop-opacity="0"/>
<stop offset="0.99"/>
</linearGradient>
<linearGradient id="paint4_linear_3504_27719" x1="64.5532" y1="28.2136" x2="99.6819" y2="59.8054" gradientUnits="userSpaceOnUse">
<stop stop-opacity="0"/>
<stop offset="0.99"/>
</linearGradient>
<linearGradient id="paint5_linear_3504_27719" x1="120.041" y1="25.2747" x2="131.372" y2="34.6934" gradientUnits="userSpaceOnUse">
<stop stop-opacity="0"/>
<stop offset="0.99"/>
</linearGradient>
<linearGradient id="paint6_linear_3504_27719" x1="59.2368" y1="52.4535" x2="90.3895" y2="52.4535" gradientUnits="userSpaceOnUse">
<stop stop-opacity="0"/>
<stop offset="0.99"/>
</linearGradient>
<linearGradient id="paint7_linear_3504_27719" x1="82.306" y1="30.3508" x2="7.28882" y2="38.501" gradientUnits="userSpaceOnUse">
<stop stop-opacity="0"/>
<stop offset="0.99"/>
</linearGradient>
<linearGradient id="paint8_linear_3504_27719" x1="60.6615" y1="19.3814" x2="63.6984" y2="19.3814" gradientUnits="userSpaceOnUse">
<stop stop-color="#E5C5D5"/>
<stop offset="0.42" stop-color="#EAD4D1"/>
<stop offset="1" stop-color="#F0E9CB"/>
</linearGradient>
<linearGradient id="paint9_linear_3504_27719" x1="60.5109" y1="15.7121" x2="66.478" y2="15.7121" gradientUnits="userSpaceOnUse">
<stop stop-color="#E5C5D5"/>
<stop offset="0.42" stop-color="#EAD4D1"/>
<stop offset="1" stop-color="#F0E9CB"/>
</linearGradient>
<linearGradient id="paint10_linear_3504_27719" x1="60.618" y1="8.26308" x2="59.7703" y2="17.4195" gradientUnits="userSpaceOnUse">
<stop stop-opacity="0"/>
<stop offset="0.99"/>
</linearGradient>
<linearGradient id="paint11_linear_3504_27719" x1="80.071" y1="23.4719" x2="85.3886" y2="23.4719" gradientUnits="userSpaceOnUse">
<stop stop-color="#E5C5D5"/>
<stop offset="0.42" stop-color="#EAD4D1"/>
<stop offset="1" stop-color="#F0E9CB"/>
</linearGradient>
<linearGradient id="paint12_linear_3504_27719" x1="76.7249" y1="29.0861" x2="81.3881" y2="31.5907" gradientUnits="userSpaceOnUse">
<stop stop-color="#E5C5D5"/>
<stop offset="0.42" stop-color="#EAD4D1"/>
<stop offset="1" stop-color="#F0E9CB"/>
</linearGradient>
<linearGradient id="paint13_linear_3504_27719" x1="91.2495" y1="14.5153" x2="90.8074" y2="38.0605" gradientUnits="userSpaceOnUse">
<stop stop-opacity="0"/>
<stop offset="0.99"/>
</linearGradient>
<linearGradient id="paint14_linear_3504_27719" x1="90.4141" y1="16.1529" x2="92.3381" y2="18.3513" gradientUnits="userSpaceOnUse">
<stop stop-opacity="0"/>
<stop offset="0.99"/>
</linearGradient>
<linearGradient id="paint15_linear_3504_27719" x1="87.4983" y1="63.7668" x2="90.465" y2="63.7668" gradientUnits="userSpaceOnUse">
<stop stop-color="#E5C5D5"/>
<stop offset="0.42" stop-color="#EAD4D1"/>
<stop offset="1" stop-color="#F0E9CB"/>
</linearGradient>
<linearGradient id="paint16_linear_3504_27719" x1="57.2522" y1="84.023" x2="10.4545" y2="85.6421" gradientUnits="userSpaceOnUse">
<stop offset="0.02" stop-color="white" stop-opacity="0"/>
<stop offset="0.58" stop-color="white" stop-opacity="0.39"/>
<stop offset="0.68" stop-color="white" stop-opacity="0.68"/>
<stop offset="1" stop-color="white"/>
</linearGradient>
<linearGradient id="paint17_linear_3504_27719" x1="63.1028" y1="70.8971" x2="21.8972" y2="86.0542" gradientUnits="userSpaceOnUse">
<stop offset="0.02" stop-color="white" stop-opacity="0"/>
<stop offset="0.58" stop-color="white" stop-opacity="0.39"/>
<stop offset="0.68" stop-color="white" stop-opacity="0.68"/>
<stop offset="1" stop-color="white"/>
</linearGradient>
<linearGradient id="paint18_linear_3504_27719" x1="70.0154" y1="21.2243" x2="61.1852" y2="42.3028" gradientUnits="userSpaceOnUse">
<stop offset="0.02" stop-color="white" stop-opacity="0"/>
<stop offset="0.58" stop-color="white" stop-opacity="0.39"/>
<stop offset="0.68" stop-color="white" stop-opacity="0.68"/>
<stop offset="1" stop-color="white"/>
</linearGradient>
<linearGradient id="paint19_linear_3504_27719" x1="87.5027" y1="44.8495" x2="93.6832" y2="89.8787" gradientUnits="userSpaceOnUse">
<stop stop-opacity="0"/>
<stop offset="0.99"/>
</linearGradient>
</defs>
</svg>
