<svg width="189" height="56" viewBox="0 0 189 56" fill="none" xmlns="http://www.w3.org/2000/svg">
<path d="M181.263 55.8633H7.13412C3.30327 55.8633 0.168945 52.729 0.168945 48.8981V7.10706C0.168945 3.27622 3.30327 0.141891 7.13412 0.141891H181.263C185.094 0.141891 188.229 3.27622 188.229 7.10706V48.8981C188.229 52.729 185.094 55.8633 181.263 55.8633Z" fill="black"/>
<path d="M66.2241 14.4108C66.2241 15.5779 65.8785 16.5073 65.1863 17.2006C64.4001 18.025 63.3754 18.4375 62.1157 18.4375C60.9093 18.4375 59.8836 18.0196 59.0401 17.1827C58.1951 16.3463 57.7734 15.3092 57.7734 14.0717C57.7734 12.8337 58.1951 11.7972 59.0401 10.9602C59.8836 10.1239 60.9093 9.7054 62.1157 9.7054C62.7142 9.7054 63.2873 9.82241 63.8315 10.0559C64.3756 10.2899 64.812 10.6006 65.1385 10.9896L64.4039 11.7247C63.8505 11.0636 63.0887 10.7333 62.1157 10.7333C61.2358 10.7333 60.4751 11.0424 59.833 11.6611C59.1908 12.2804 58.8699 13.0835 58.8699 14.0717C58.8699 15.0599 59.1908 15.863 59.833 16.4824C60.4751 17.101 61.2358 17.4101 62.1157 17.4101C63.049 17.4101 63.8271 17.0993 64.4501 16.4769C64.8545 16.0714 65.0884 15.5078 65.1509 14.784H62.1157V13.78H66.1659C66.2051 13.9983 66.2241 14.2078 66.2241 14.4108Z" fill="white"/>
<path d="M66.2248 14.4121H66.0855C66.0844 15.5526 65.7513 16.4384 65.0885 17.1035L65.0869 17.1046L65.0864 17.1057C64.3251 17.9017 63.3466 18.2978 62.1163 18.2995C60.9421 18.2978 59.9593 17.8973 59.1387 17.0855C58.3199 16.272 57.9149 15.2789 57.9134 14.073C57.9149 12.8667 58.3199 11.8741 59.1387 11.0612C59.9593 10.2488 60.9421 9.8477 62.1163 9.84603C62.6969 9.84603 63.2498 9.95928 63.7771 10.1851C64.3049 10.4126 64.7218 10.7107 65.0325 11.0808L65.1392 10.991L65.0407 10.8925L64.306 11.6281L64.4045 11.7261L64.5118 11.6369C63.9327 10.943 63.1198 10.5932 62.1163 10.5953C61.2039 10.5942 60.4012 10.9202 59.7373 11.5624C59.0669 12.2067 58.7301 13.0549 58.7312 14.073C58.7301 15.0912 59.0669 15.9394 59.7373 16.5837C60.4012 17.2259 61.2039 17.5519 62.1163 17.5508C63.0806 17.5524 63.9023 17.2253 64.5492 16.5767C64.9814 16.1435 65.2263 15.5434 65.2905 14.7973L65.3034 14.646H62.2556V13.9207H66.1665V13.7813L66.0293 13.8059C66.0675 14.017 66.0855 14.2178 66.0855 14.4121H66.2248H66.3641C66.3641 14.2004 66.3444 13.9828 66.3036 13.7564L66.283 13.642H61.977V14.7853V14.9246H65.1516V14.7853L65.0128 14.7733C64.9514 15.4743 64.7282 16.0021 64.3523 16.3798C63.7537 16.9761 63.0191 17.2705 62.1163 17.2722C61.2691 17.271 60.5502 16.9793 59.9305 16.3835C59.3167 15.7898 59.0114 15.0319 59.0098 14.073C59.0114 13.1142 59.3167 12.3563 59.9305 11.7626C60.5502 11.1668 61.2691 10.8751 62.1163 10.8739C63.0583 10.8762 63.7696 11.1874 64.2979 11.8159L64.3959 11.9324L65.2377 11.0894L65.3279 10.9992L65.2458 10.9017C64.9035 10.4936 64.4475 10.1698 63.887 9.92933C63.3255 9.68819 62.7329 9.56742 62.1163 9.56742C60.8779 9.5663 59.8092 10.0016 58.9423 10.8631C58.0722 11.7229 57.6337 12.8036 57.6348 14.073C57.6337 15.342 58.0722 16.4232 58.9428 17.2836C59.8092 18.1445 60.8779 18.5792 62.1163 18.5781C63.406 18.5792 64.4758 18.1509 65.2877 17.2982L65.187 17.2019L65.2855 17.3004C66.007 16.5794 66.3651 15.6054 66.3641 14.4121H66.2248Z" fill="white"/>
<path d="M72.645 10.9205H68.8387V13.5707H72.2712V14.575H68.8387V17.2251H72.645V18.252H67.7656V9.89374H72.645V10.9205Z" fill="white"/>
<path d="M72.6456 10.9199V10.7806H68.7V13.7093H72.1326V14.4347L68.7 14.4351V17.3638H72.5063V18.112H67.9056V10.0324H72.5063V10.9199H72.6456V10.7806V10.9199H72.7849V9.89311V9.75381H67.627V18.3906H72.7849V17.2245V17.0852H68.9786V14.7137H72.4112V13.57V13.4307H68.9786V11.0592H72.7849V10.9199H72.6456Z" fill="white"/>
<path d="M77.1748 18.252H76.1001V10.9205H73.7656V9.89374H79.5093V10.9205H77.1748V18.252Z" fill="white"/>
<path d="M77.1745 18.2513V18.112H76.239V10.7806H73.9046V10.0324H79.3696V10.7806H77.0352V18.2513H77.1745V18.112V18.2513H77.3138V11.0592H79.6482V9.89311V9.75381H73.626V10.9199V11.0592H75.9604V18.3906H77.1745H77.3138V18.2513H77.1745Z" fill="white"/>
<path d="M83.6641 18.252V9.89374H84.7377V18.252H83.6641Z" fill="white"/>
<path d="M83.6647 18.2513H83.804V10.0324H84.599V18.112H83.6647V18.2513H83.804H83.6647V18.3906H84.7383H84.8776V9.75381H83.6647H83.5254V18.3906H83.6647V18.2513Z" fill="white"/>
<path d="M89.5028 18.252H88.4281V10.9205H86.0938V9.89374H91.8372V10.9205H89.5028V18.252Z" fill="white"/>
<path d="M89.5024 18.2513V18.112H88.567V10.7806H86.2327V10.0324H91.6976V10.7806H89.3631V18.2513H89.5024V18.112V18.2513H89.6417V11.0592H91.9762V9.89311V9.75381H85.9541V10.9199V11.0592H88.2884V18.3906H89.5024H89.6417V18.2513H89.5024Z" fill="white"/>
<path d="M97.3738 16.471C97.9925 17.0973 98.7494 17.4101 99.6446 17.4101C100.54 17.4101 101.297 17.0973 101.915 16.471C102.534 15.8446 102.844 15.0441 102.844 14.0717C102.844 13.0994 102.534 12.2988 101.915 11.6725C101.297 11.0462 100.54 10.7333 99.6446 10.7333C98.7494 10.7333 97.9925 11.0462 97.3738 11.6725C96.7562 12.2988 96.4461 13.0994 96.4461 14.0717C96.4461 15.0441 96.7562 15.8446 97.3738 16.471ZM102.709 17.1707C101.888 18.0157 100.866 18.4375 99.6446 18.4375C98.4224 18.4375 97.401 18.0157 96.581 17.1707C95.7587 16.3266 95.3496 15.2934 95.3496 14.0717C95.3496 12.85 95.7587 11.8167 96.581 10.9728C97.401 10.1276 98.4224 9.7054 99.6446 9.7054C100.859 9.7054 101.878 10.1299 102.704 10.9782C103.528 11.8266 103.941 12.8577 103.941 14.0717C103.941 15.2934 103.529 16.3266 102.709 17.1707Z" fill="white"/>
<path d="M97.3745 16.4723L97.2754 16.5702C97.917 17.2216 98.7175 17.5524 99.6453 17.5508C100.572 17.5524 101.374 17.2216 102.015 16.5702C102.66 15.9183 102.985 15.0748 102.984 14.073C102.985 13.0713 102.66 12.2278 102.015 11.5759C101.374 10.9245 100.572 10.5937 99.6453 10.5953C98.7175 10.5937 97.917 10.9245 97.2754 11.5759C96.6311 12.2278 96.3057 13.0713 96.3074 14.073C96.3057 15.0748 96.6311 15.9183 97.2754 16.5702L97.3745 16.4723L97.4735 16.3743C96.8826 15.773 96.5871 15.0166 96.586 14.073C96.5871 13.1295 96.8826 12.3731 97.4735 11.7718C98.0699 11.1705 98.7821 10.8756 99.6453 10.8739C100.508 10.8756 101.222 11.1705 101.816 11.7718C102.408 12.3731 102.704 13.1295 102.705 14.073C102.704 15.0166 102.408 15.773 101.816 16.3743C101.222 16.9756 100.508 17.2705 99.6453 17.2722C98.7821 17.2705 98.0699 16.9756 97.4735 16.3743L97.3745 16.4723ZM102.71 17.172L102.61 17.0752C101.812 17.8936 100.835 18.2978 99.6453 18.2995C98.4552 18.2978 97.4784 17.8936 96.6811 17.0752L96.6774 17.0709L96.6811 17.0752C95.884 16.254 95.4907 15.2637 95.4895 14.073C95.4907 12.8824 95.884 11.8921 96.6811 11.0709C97.4784 10.2525 98.4552 9.8477 99.6453 9.84602C100.827 9.8477 101.802 10.2542 102.605 11.0769C103.405 11.9019 103.8 12.8906 103.802 14.073C103.8 15.2637 103.406 16.254 102.61 17.0752L102.71 17.172L102.81 17.2688C103.655 16.4015 104.082 15.3257 104.081 14.073C104.082 12.8275 103.653 11.7539 102.805 10.8827C101.956 10.0082 100.892 9.56588 99.6453 9.56742C98.3915 9.56588 97.325 10.0061 96.4815 10.8773V10.8767C95.6354 11.7446 95.2098 12.8204 95.2109 14.073C95.2098 15.3257 95.6354 16.4015 96.4815 17.2694L96.4853 17.2733L96.4815 17.2688C97.325 18.14 98.3915 18.5792 99.6453 18.5781C100.898 18.5792 101.965 18.14 102.81 17.2688L102.71 17.172Z" fill="white"/>
<path d="M105.448 18.252V9.89374H106.755L110.817 16.3959H110.864L110.817 14.7851V9.89374H111.892V18.252H110.771L106.521 11.4347H106.475L106.521 13.046V18.252H105.448Z" fill="white"/>
<path d="M105.448 18.2513H105.587V10.0324H106.678L110.74 16.5345H110.863H111.006L110.956 14.7824V10.0324H111.752V18.112H110.848L106.598 11.2948H106.475H106.332L106.382 13.0476V18.112H105.448V18.2513H105.587H105.448V18.3906H106.521H106.66V13.0432L106.614 11.4303L106.475 11.4341V11.5734H106.521V11.4341L106.403 11.5082L110.693 18.3906H111.892H112.031V9.75381H110.817H110.678V14.7861L110.724 16.399L110.863 16.3952V16.2559H110.817V16.3952L110.935 16.3213L106.832 9.75381H105.448H105.309V18.3906H105.448V18.2513Z" fill="white"/>
<path d="M149.135 41.933H151.734V24.5184H149.135V41.933ZM172.547 30.7915L169.568 38.3417H169.479L166.386 30.7915H163.586L168.223 41.3442L165.58 47.214H168.292L175.438 30.7915H172.547ZM157.806 39.9551C156.954 39.9551 155.767 39.5295 155.767 38.4761C155.767 37.1319 157.246 36.6167 158.522 36.6167C159.666 36.6167 160.202 36.8631 160.898 37.1995C160.696 38.8124 159.307 39.9551 157.806 39.9551ZM158.12 30.4106C156.238 30.4106 154.289 31.2398 153.482 33.077L155.789 34.0401C156.282 33.077 157.2 32.763 158.164 32.763C159.509 32.763 160.875 33.57 160.898 35.0038V35.1828C160.427 34.914 159.419 34.5108 158.187 34.5108C155.7 34.5108 153.168 35.8771 153.168 38.4314C153.168 40.7615 155.207 42.2628 157.492 42.2628C159.24 42.2628 160.202 41.4786 160.808 40.5602H160.898V41.9042H163.406V35.2274C163.406 32.1361 161.099 30.4106 158.12 30.4106ZM142.055 32.9115H138.358V26.9422H142.055C143.999 26.9422 145.102 28.5511 145.102 29.9268C145.102 31.2763 143.999 32.9115 142.055 32.9115ZM141.988 24.5184H135.76V41.933H138.358V35.3352H141.988C144.869 35.3352 147.701 33.2494 147.701 29.9268C147.701 26.6042 144.869 24.5184 141.988 24.5184ZM108.025 39.9583C106.229 39.9583 104.726 38.4548 104.726 36.3897C104.726 34.303 106.229 32.7766 108.025 32.7766C109.798 32.7766 111.189 34.303 111.189 36.3897C111.189 38.4548 109.798 39.9583 108.025 39.9583ZM111.01 31.7667H110.92C110.336 31.0711 109.214 30.4427 107.8 30.4427C104.838 30.4427 102.122 33.0459 102.122 36.3897C102.122 39.7113 104.838 42.2922 107.8 42.2922C109.214 42.2922 110.336 41.6636 110.92 40.9459H111.01V41.7986C111.01 44.0656 109.798 45.2774 107.845 45.2774C106.252 45.2774 105.264 44.1325 104.86 43.1677L102.594 44.1102C103.245 45.6811 104.973 47.6113 107.845 47.6113C110.897 47.6113 113.478 45.8156 113.478 41.4395V30.8019H111.01V31.7667ZM115.274 41.933H117.877V24.5179H115.274V41.933ZM121.715 36.1879C121.647 33.8986 123.488 32.7319 124.811 32.7319C125.845 32.7319 126.719 33.2477 127.011 33.989L121.715 36.1879ZM129.794 34.2131C129.301 32.8886 127.796 30.4427 124.722 30.4427C121.67 30.4427 119.134 32.844 119.134 36.3674C119.134 39.689 121.647 42.2922 125.013 42.2922C127.729 42.2922 129.301 40.6314 129.951 39.6666L127.931 38.3198C127.258 39.3074 126.338 39.9583 125.013 39.9583C123.689 39.9583 122.747 39.3522 122.141 38.1631L130.063 34.8862L129.794 34.2131ZM66.6779 32.2606V34.7741H72.6923C72.5128 36.1879 72.0415 37.2201 71.3233 37.9384C70.4483 38.8139 69.0792 39.7787 66.6779 39.7787C62.9748 39.7787 60.0799 36.794 60.0799 33.091C60.0799 29.3881 62.9748 26.4029 66.6779 26.4029C68.6754 26.4029 70.1338 27.1886 71.2111 28.1986L72.984 26.4258C71.4805 24.9891 69.4829 23.8895 66.6779 23.8895C61.6057 23.8895 57.3418 28.019 57.3418 33.091C57.3418 38.1631 61.6057 42.2922 66.6779 42.2922C69.4161 42.2922 71.4805 41.3949 73.0962 39.7113C74.757 38.0505 75.2734 35.7166 75.2734 33.8317C75.2734 33.2477 75.2286 32.7096 75.1384 32.2606H66.6779ZM82.1112 39.9583C80.3154 39.9583 78.7668 38.4771 78.7668 36.3674C78.7668 34.2354 80.3154 32.7766 82.1112 32.7766C83.9063 32.7766 85.4549 34.2354 85.4549 36.3674C85.4549 38.4771 83.9063 39.9583 82.1112 39.9583ZM82.1112 30.4427C78.8342 30.4427 76.1635 32.9338 76.1635 36.3674C76.1635 39.7787 78.8342 42.2922 82.1112 42.2922C85.3875 42.2922 88.0582 39.7787 88.0582 36.3674C88.0582 32.9338 85.3875 30.4427 82.1112 30.4427ZM95.0848 39.9583C93.2898 39.9583 91.741 38.4771 91.741 36.3674C91.741 34.2354 93.2898 32.7766 95.0848 32.7766C96.88 32.7766 98.4287 34.2354 98.4287 36.3674C98.4287 38.4771 96.88 39.9583 95.0848 39.9583ZM95.0848 30.4427C91.808 30.4427 89.1378 32.9338 89.1378 36.3674C89.1378 39.7787 91.808 42.2922 95.0848 42.2922C98.3612 42.2922 101.032 39.7787 101.032 36.3674C101.032 32.9338 98.3612 30.4427 95.0848 30.4427Z" fill="white"/>
<path d="M14.8097 45.2617L14.7062 45.1627C14.3008 44.7338 14.0615 44.0677 14.0615 43.2053V43.4083V12.5999C14.0615 12.5971 14.0615 12.5951 14.0615 12.5928C14.0615 12.5955 14.0615 12.5977 14.0615 12.6005V12.804C14.0615 11.8701 14.3405 11.1666 14.8081 10.7448L32.0675 28.0038L14.8097 45.2617ZM14.0615 12.5912C14.0615 12.5144 14.0636 12.4399 14.0675 12.3665C14.0636 12.4393 14.0615 12.5144 14.0615 12.5912ZM14.0675 12.3631C14.0675 12.3621 14.0675 12.361 14.0679 12.3599C14.0675 12.361 14.0675 12.3621 14.0675 12.3631ZM14.0679 12.3534C14.0679 12.3528 14.0679 12.3523 14.0679 12.3517C14.0679 12.3523 14.0679 12.3528 14.0679 12.3534Z" fill="url(#paint0_linear_3504_28180)"/>
<path d="M37.8196 33.9629L37.9509 33.8884L44.7668 30.0156C45.4167 29.6462 45.8498 29.1983 46.0659 28.7244C45.8503 29.1983 45.4171 29.6467 44.7668 30.0161L37.9509 33.8889L37.8196 33.9629ZM37.8213 33.7588L32.0674 28.0039L37.8208 22.25L44.7668 26.1962C45.6489 26.6974 46.1441 27.3433 46.2269 28.0033C46.2269 28.0039 46.2269 28.005 46.2269 28.006C46.1441 28.6645 45.6489 29.311 44.7668 29.8121L37.8213 33.7588Z" fill="url(#paint1_linear_3504_28180)"/>
<path d="M16.0399 45.9199C15.5578 45.9199 15.1371 45.7632 14.809 45.4672L14.8096 45.4666C15.1376 45.7626 15.5589 45.9199 16.041 45.9199C16.0828 45.9199 16.1253 45.9188 16.1683 45.9167C16.1247 45.9188 16.0817 45.9199 16.0399 45.9199ZM16.0405 45.7158C15.5583 45.7164 15.1376 45.5591 14.8096 45.2631V45.2627L32.0673 28.0048L37.8213 33.7597L17.6011 45.2485C17.0416 45.5657 16.5116 45.7158 16.0405 45.7158ZM14.8047 45.4634C14.7742 45.4357 14.7442 45.4063 14.7148 45.3758L14.8047 45.4634Z" fill="url(#paint2_linear_3504_28180)"/>
<path d="M32.0661 28.0039L14.8066 10.7449C15.1347 10.4494 15.5548 10.2927 16.0364 10.2927C16.5088 10.2927 17.0393 10.4434 17.5998 10.7612L37.8194 22.25L32.0661 28.0039ZM37.9495 22.12L17.5998 10.5578C17.0393 10.2399 16.5088 10.0892 16.0364 10.0892C16.0342 10.0892 16.0327 10.0892 16.0304 10.0892C16.0332 10.0892 16.0353 10.0892 16.0386 10.0892C16.5099 10.0892 17.0398 10.2394 17.5998 10.5573L37.9495 22.12Z" fill="url(#paint3_linear_3504_28180)"/>
<path d="M16.1683 45.916C16.6063 45.8909 17.0912 45.7402 17.6011 45.4513L37.8196 33.9631L17.6011 45.4513C17.0916 45.7408 16.6063 45.8909 16.1683 45.916ZM14.809 45.4665L14.8047 45.4627C14.8062 45.4638 14.8079 45.4654 14.809 45.4665ZM14.7148 45.3751L14.7061 45.3665V45.3659C14.7094 45.3691 14.712 45.3723 14.7148 45.3751Z" fill="white"/>
<path d="M37.8193 33.9629L37.9506 33.8884L37.8193 33.9629Z" fill="url(#paint4_linear_3504_28180)"/>
<path d="M16.042 45.9199C15.5598 45.9199 15.1386 45.7626 14.8105 45.4666L14.81 45.4672C14.8089 45.4661 14.8072 45.4645 14.8057 45.4634L14.7158 45.3758C14.713 45.373 14.7104 45.3698 14.707 45.3666L14.8105 45.2631C15.1386 45.5591 15.5593 45.7164 16.0414 45.7158C16.5125 45.7158 17.0426 45.5657 17.602 45.2485L37.8222 33.7597L37.9518 33.8892L37.8205 33.9638L17.602 45.452C17.0922 45.7409 16.6073 45.8916 16.1693 45.9167C16.1263 45.9188 16.0838 45.9199 16.042 45.9199Z" fill="url(#paint5_linear_3504_28180)"/>
<path d="M14.7062 45.3652C14.3008 44.9363 14.0615 44.2703 14.0615 43.4079V43.4073C14.0615 44.2703 14.3008 44.9358 14.7062 45.3647V45.3652Z" fill="white"/>
<path d="M14.7062 45.3652C14.3008 44.9363 14.0615 44.2709 14.0615 43.4079V43.2049C14.0615 44.0673 14.3008 44.7334 14.7062 45.1623L14.8097 45.2613L14.7062 45.3652Z" fill="url(#paint6_linear_3504_28180)"/>
<path d="M14.707 45.3652L14.8105 45.2613V45.2617L14.707 45.3652Z" fill="url(#paint7_linear_3504_28180)"/>
<path d="M46.0654 28.7246C46.1726 28.4895 46.2265 28.2479 46.2265 28.0062C46.2265 28.0058 46.2265 28.0052 46.2265 28.0052C46.2265 28.2474 46.1726 28.4889 46.0654 28.7246Z" fill="white"/>
<path d="M37.9518 33.8887L37.8223 33.7591L44.7678 29.8124C45.6499 29.3113 46.1451 28.6648 46.2278 28.0063C46.2278 28.248 46.1739 28.4895 46.0668 28.7247C45.8507 29.1986 45.4176 29.6465 44.7678 30.0159L37.9518 33.8887Z" fill="url(#paint8_linear_3504_28180)"/>
<path d="M46.2268 28.0039V28.0033C46.2262 27.2747 45.7392 26.5461 44.7667 25.9932L37.9508 22.1204H37.9502L37.9508 22.12L44.7667 25.9926C45.7403 26.5455 46.2279 27.2752 46.2268 28.0039Z" fill="#404040"/>
<path d="M46.2264 28.0039C46.1437 27.3439 45.6485 26.6979 44.7664 26.1967L37.8203 22.2505L37.9499 22.121H37.9504L44.7664 25.9938C45.7389 26.5467 46.2259 27.2752 46.2264 28.0039Z" fill="url(#paint9_linear_3504_28180)"/>
<path d="M14.0615 12.5918C14.0615 12.5912 14.0615 12.5907 14.0615 12.5901C14.0615 12.5907 14.0615 12.5912 14.0615 12.5918ZM14.0675 12.3654C14.0675 12.3643 14.0675 12.3632 14.0675 12.3621C14.0675 12.3632 14.0675 12.3643 14.0675 12.3654ZM14.0679 12.3589C14.0679 12.3567 14.0679 12.3546 14.0679 12.3523C14.0679 12.3546 14.0679 12.3567 14.0679 12.3589ZM14.0679 12.3507C14.1486 10.9196 14.9267 10.093 16.0275 10.0881C15.5503 10.0909 15.1346 10.2476 14.8092 10.5408V10.5403L14.8053 10.5442C14.771 10.5751 14.7384 10.6078 14.7062 10.6415C14.3405 11.0284 14.1099 11.6079 14.0679 12.3507Z" fill="#404040"/>
<path d="M14.0615 12.8047V12.6012C14.0615 12.5984 14.0615 12.5962 14.0615 12.5935C14.0615 12.5929 14.0615 12.5924 14.0615 12.5918C14.0615 12.5151 14.0636 12.44 14.0675 12.3671C14.0675 12.366 14.0675 12.3649 14.0675 12.3638C14.0675 12.3628 14.0675 12.3617 14.0679 12.3606C14.0679 12.3584 14.0679 12.3563 14.0679 12.354C14.0679 12.3535 14.0679 12.3529 14.0679 12.3524C14.1099 11.6096 14.3405 11.0301 14.7062 10.6433L14.8081 10.7455C14.3405 11.1673 14.0615 11.8708 14.0615 12.8047ZM14.8053 10.5459L14.8092 10.542C14.8081 10.5437 14.8064 10.5448 14.8053 10.5459Z" fill="url(#paint10_linear_3504_28180)"/>
<path d="M37.8217 22.25L17.602 10.7612C17.0415 10.4435 16.511 10.2927 16.0386 10.2927C15.5571 10.2927 15.1369 10.4495 14.8089 10.7449L14.707 10.6427C14.7392 10.609 14.7718 10.5762 14.8061 10.5453C14.8072 10.5442 14.8089 10.5431 14.81 10.542C15.1354 10.2487 15.5511 10.092 16.0283 10.0892C16.0294 10.0892 16.031 10.0892 16.0326 10.0892C16.0349 10.0892 16.0364 10.0892 16.0386 10.0892C16.511 10.0892 17.0415 10.2399 17.602 10.5578L37.9518 22.12L37.9512 22.1204L37.8217 22.25Z" fill="url(#paint11_linear_3504_28180)"/>
<defs>
<linearGradient id="paint0_linear_3504_28180" x1="30.5371" y1="12.2749" x2="7.15848" y2="35.6535" gradientUnits="userSpaceOnUse">
<stop stop-color="#00A0FF"/>
<stop offset="0.00657445" stop-color="#00A1FF"/>
<stop offset="0.2601" stop-color="#00BEFF"/>
<stop offset="0.5122" stop-color="#00D2FF"/>
<stop offset="0.7604" stop-color="#00DFFF"/>
<stop offset="1" stop-color="#00E3FF"/>
</linearGradient>
<linearGradient id="paint1_linear_3504_28180" x1="47.3016" y1="28.0047" x2="13.5943" y2="28.0047" gradientUnits="userSpaceOnUse">
<stop stop-color="#FFE000"/>
<stop offset="0.4087" stop-color="#FFBD00"/>
<stop offset="0.7754" stop-color="#FFA500"/>
<stop offset="1" stop-color="#FF9C00"/>
</linearGradient>
<linearGradient id="paint2_linear_3504_28180" x1="34.7539" y1="31.2022" x2="3.05081" y2="62.9053" gradientUnits="userSpaceOnUse">
<stop stop-color="#FF3A44"/>
<stop offset="1" stop-color="#C31162"/>
</linearGradient>
<linearGradient id="paint3_linear_3504_28180" x1="10.3332" y1="0.387549" x2="24.4899" y2="14.5443" gradientUnits="userSpaceOnUse">
<stop stop-color="#32A071"/>
<stop offset="0.0685" stop-color="#2DA771"/>
<stop offset="0.4762" stop-color="#15CF74"/>
<stop offset="0.8009" stop-color="#06E775"/>
<stop offset="1" stop-color="#00F076"/>
</linearGradient>
<linearGradient id="paint4_linear_3504_28180" x1="47.3009" y1="28.005" x2="13.595" y2="28.005" gradientUnits="userSpaceOnUse">
<stop stop-color="#CCB300"/>
<stop offset="0.4087" stop-color="#CC9700"/>
<stop offset="0.7754" stop-color="#CC8400"/>
<stop offset="1" stop-color="#CC7D00"/>
</linearGradient>
<linearGradient id="paint5_linear_3504_28180" x1="34.7549" y1="31.2022" x2="3.05177" y2="62.9053" gradientUnits="userSpaceOnUse">
<stop stop-color="#CC2E36"/>
<stop offset="1" stop-color="#9C0E4E"/>
</linearGradient>
<linearGradient id="paint6_linear_3504_28180" x1="30.5371" y1="12.2745" x2="7.15851" y2="35.6532" gradientUnits="userSpaceOnUse">
<stop stop-color="#008DE0"/>
<stop offset="0.00657445" stop-color="#008DE0"/>
<stop offset="0.2601" stop-color="#00A7E0"/>
<stop offset="0.5122" stop-color="#00B8E0"/>
<stop offset="0.7604" stop-color="#00C4E0"/>
<stop offset="1" stop-color="#00C7E0"/>
</linearGradient>
<linearGradient id="paint7_linear_3504_28180" x1="34.7554" y1="31.2012" x2="3.053" y2="62.905" gradientUnits="userSpaceOnUse">
<stop stop-color="#E0333C"/>
<stop offset="1" stop-color="#AB0F56"/>
</linearGradient>
<linearGradient id="paint8_linear_3504_28180" x1="47.3026" y1="28.005" x2="13.5953" y2="28.005" gradientUnits="userSpaceOnUse">
<stop stop-color="#E0C500"/>
<stop offset="0.4087" stop-color="#E0A600"/>
<stop offset="0.7754" stop-color="#E09100"/>
<stop offset="1" stop-color="#E08900"/>
</linearGradient>
<linearGradient id="paint9_linear_3504_28180" x1="47.3012" y1="28.0053" x2="13.5939" y2="28.0053" gradientUnits="userSpaceOnUse">
<stop stop-color="#FFE840"/>
<stop offset="0.4087" stop-color="#FFCE40"/>
<stop offset="0.7754" stop-color="#FFBC40"/>
<stop offset="1" stop-color="#FFB540"/>
</linearGradient>
<linearGradient id="paint10_linear_3504_28180" x1="30.5371" y1="12.2756" x2="7.1585" y2="35.6543" gradientUnits="userSpaceOnUse">
<stop stop-color="#40B8FF"/>
<stop offset="0.00657445" stop-color="#40B9FF"/>
<stop offset="0.2601" stop-color="#40CEFF"/>
<stop offset="0.5122" stop-color="#40DDFF"/>
<stop offset="0.7604" stop-color="#40E7FF"/>
<stop offset="1" stop-color="#40EAFF"/>
</linearGradient>
<linearGradient id="paint11_linear_3504_28180" x1="10.3354" y1="0.387568" x2="24.4921" y2="14.5443" gradientUnits="userSpaceOnUse">
<stop stop-color="#65B895"/>
<stop offset="0.0685" stop-color="#62BD95"/>
<stop offset="0.4762" stop-color="#50DB97"/>
<stop offset="0.8009" stop-color="#44ED98"/>
<stop offset="1" stop-color="#40F498"/>
</linearGradient>
</defs>
</svg>
