<svg width="24" height="23" viewBox="0 0 24 23" fill="none" xmlns="http://www.w3.org/2000/svg">
<path d="M1.71429 0H10.2857C10.7404 0 11.1764 0.234132 11.4979 0.650889C11.8194 1.06765 12 1.63289 12 2.22227C12 2.81166 11.8194 3.3769 11.4979 3.79366C11.1764 4.21042 10.7404 4.44455 10.2857 4.44455H1.71429C1.25963 4.44455 0.823594 4.21042 0.502103 3.79366C0.180612 3.3769 0 2.81166 0 2.22227C0 1.63289 0.180612 1.06765 0.502103 0.650889C0.823594 0.234132 1.25963 0 1.71429 0V0ZM13.7143 17.7782H22.2857C22.7404 17.7782 23.1764 18.0123 23.4979 18.4291C23.8194 18.8458 24 19.4111 24 20.0005C24 20.5899 23.8194 21.1551 23.4979 21.5719C23.1764 21.9886 22.7404 22.2227 22.2857 22.2227H13.7143C13.2596 22.2227 12.8236 21.9886 12.5021 21.5719C12.1806 21.1551 12 20.5899 12 20.0005C12 19.4111 12.1806 18.8458 12.5021 18.4291C12.8236 18.0123 13.2596 17.7782 13.7143 17.7782ZM1.71429 8.8891H22.2857C22.7404 8.8891 23.1764 9.12323 23.4979 9.53999C23.8194 9.95674 24 10.522 24 11.1114C24 11.7008 23.8194 12.266 23.4979 12.6828C23.1764 13.0995 22.7404 13.3336 22.2857 13.3336H1.71429C1.25963 13.3336 0.823594 13.0995 0.502103 12.6828C0.180612 12.266 0 11.7008 0 11.1114C0 10.522 0.180612 9.95674 0.502103 9.53999C0.823594 9.12323 1.25963 8.8891 1.71429 8.8891Z" fill="#189D60"/>
</svg>
