<svg width="22" height="23" viewBox="0 0 22 23" fill="none" xmlns="http://www.w3.org/2000/svg">
<path fill-rule="evenodd" clip-rule="evenodd" d="M6.465 0.552328C7.638 0.498328 8.012 0.486328 11 0.486328C13.988 0.486328 14.362 0.499328 15.534 0.552328C16.706 0.605328 17.506 0.792328 18.206 1.06333C18.939 1.34033 19.604 1.77333 20.154 2.33333C20.714 2.88233 21.146 3.54633 21.422 4.28033C21.694 4.98033 21.88 5.78033 21.934 6.95033C21.988 8.12533 22 8.49933 22 11.4863C22 14.4743 21.987 14.8483 21.934 16.0213C21.881 17.1913 21.694 17.9913 21.422 18.6913C21.146 19.4254 20.7133 20.0905 20.154 20.6403C19.604 21.2003 18.939 21.6323 18.206 21.9083C17.506 22.1803 16.706 22.3663 15.536 22.4203C14.362 22.4743 13.988 22.4863 11 22.4863C8.012 22.4863 7.638 22.4733 6.465 22.4203C5.295 22.3673 4.495 22.1803 3.795 21.9083C3.06092 21.6323 2.39582 21.1996 1.846 20.6403C1.28638 20.091 0.853315 19.4262 0.577 18.6923C0.306 17.9923 0.12 17.1923 0.066 16.0223C0.012 14.8473 0 14.4733 0 11.4863C0 8.49833 0.013 8.12433 0.066 6.95233C0.119 5.78033 0.306 4.98033 0.577 4.28033C0.853723 3.54641 1.28712 2.88164 1.847 2.33233C2.39604 1.77283 3.06047 1.33977 3.794 1.06333C4.494 0.792328 5.294 0.606328 6.464 0.552328H6.465ZM15.445 2.53233C14.285 2.47933 13.937 2.46833 11 2.46833C8.063 2.46833 7.715 2.47933 6.555 2.53233C5.482 2.58133 4.9 2.76033 4.512 2.91133C3.999 3.11133 3.632 3.34833 3.247 3.73333C2.88205 4.08838 2.60118 4.52061 2.425 4.99833C2.274 5.38633 2.095 5.96833 2.046 7.04133C1.993 8.20133 1.982 8.54933 1.982 11.4863C1.982 14.4233 1.993 14.7713 2.046 15.9313C2.095 17.0043 2.274 17.5863 2.425 17.9743C2.601 18.4513 2.882 18.8843 3.247 19.2393C3.602 19.6043 4.035 19.8853 4.512 20.0613C4.9 20.2123 5.482 20.3913 6.555 20.4403C7.715 20.4933 8.062 20.5043 11 20.5043C13.938 20.5043 14.285 20.4933 15.445 20.4403C16.518 20.3913 17.1 20.2123 17.488 20.0613C18.001 19.8613 18.368 19.6243 18.753 19.2393C19.118 18.8843 19.399 18.4513 19.575 17.9743C19.726 17.5863 19.905 17.0043 19.954 15.9313C20.007 14.7713 20.018 14.4233 20.018 11.4863C20.018 8.54933 20.007 8.20133 19.954 7.04133C19.905 5.96833 19.726 5.38633 19.575 4.99833C19.375 4.48533 19.138 4.11833 18.753 3.73333C18.3979 3.3684 17.9657 3.08754 17.488 2.91133C17.1 2.76033 16.518 2.58133 15.445 2.53233ZM9.595 14.8773C10.3797 15.204 11.2534 15.248 12.0669 15.002C12.8805 14.7561 13.5834 14.2352 14.0556 13.5286C14.5278 12.8219 14.7401 11.9732 14.656 11.1274C14.572 10.2817 14.197 9.4913 13.595 8.89133C13.2112 8.5078 12.7472 8.21414 12.2363 8.03148C11.7255 7.84881 11.1804 7.78169 10.6405 7.83494C10.1006 7.8882 9.57915 8.06051 9.1138 8.33946C8.64845 8.61841 8.25074 8.99707 7.9493 9.44818C7.64786 9.89929 7.45019 10.4116 7.37052 10.9483C7.29084 11.485 7.33115 12.0326 7.48854 12.5518C7.64593 13.0711 7.91648 13.5489 8.28072 13.951C8.64496 14.3532 9.09382 14.6695 9.595 14.8773ZM7.002 7.48833C7.52702 6.9633 8.15032 6.54683 8.8363 6.26269C9.52228 5.97855 10.2575 5.8323 11 5.8323C11.7425 5.8323 12.4777 5.97855 13.1637 6.26269C13.8497 6.54683 14.473 6.9633 14.998 7.48833C15.523 8.01335 15.9395 8.63665 16.2236 9.32263C16.5078 10.0086 16.654 10.7438 16.654 11.4863C16.654 12.2288 16.5078 12.9641 16.2236 13.65C15.9395 14.336 15.523 14.9593 14.998 15.4843C13.9377 16.5447 12.4995 17.1404 11 17.1404C9.50046 17.1404 8.06234 16.5447 7.002 15.4843C5.94166 14.424 5.34597 12.9859 5.34597 11.4863C5.34597 9.98679 5.94166 8.54866 7.002 7.48833ZM17.908 6.67433C18.0381 6.5516 18.1423 6.40401 18.2143 6.2403C18.2863 6.0766 18.3248 5.9001 18.3274 5.72126C18.33 5.54242 18.2967 5.36488 18.2295 5.19914C18.1622 5.0334 18.0624 4.88284 17.936 4.75637C17.8095 4.6299 17.6589 4.53009 17.4932 4.46285C17.3275 4.39561 17.1499 4.3623 16.9711 4.36491C16.7922 4.36752 16.6157 4.40598 16.452 4.47802C16.2883 4.55007 16.1407 4.65422 16.018 4.78433C15.7793 5.03736 15.6486 5.37345 15.6537 5.72126C15.6588 6.06907 15.7992 6.40121 16.0452 6.64717C16.2911 6.89314 16.6233 7.03356 16.9711 7.03863C17.3189 7.0437 17.655 6.91302 17.908 6.67433Z" fill="white"/>
</svg>
