<svg width="24" height="25" viewBox="0 0 24 25" fill="none" xmlns="http://www.w3.org/2000/svg">
<path fill-rule="evenodd" clip-rule="evenodd" d="M9.429 9.45533H13.143V11.3053C13.678 10.2413 15.05 9.28533 17.111 9.28533C21.062 9.28533 22 11.4033 22 15.2893V22.4863H18V16.1743C18 13.9613 17.465 12.7133 16.103 12.7133C14.214 12.7133 13.429 14.0583 13.429 16.1733V22.4863H9.429V9.45533ZM2.57 22.3163H6.57V9.28533H2.57V22.3163ZM7.143 5.03633C7.14315 5.3716 7.07666 5.70356 6.94739 6.01292C6.81812 6.32227 6.62865 6.60284 6.39 6.83833C5.9064 7.31895 5.25181 7.58798 4.57 7.58633C3.88939 7.58587 3.23631 7.31753 2.752 6.83933C2.51421 6.60304 2.32539 6.32215 2.19634 6.01276C2.0673 5.70337 2.00058 5.37155 2 5.03633C2 4.35933 2.27 3.71133 2.753 3.23333C3.23689 2.75449 3.89024 2.48603 4.571 2.48633C5.253 2.48633 5.907 2.75533 6.39 3.23333C6.872 3.71133 7.143 4.35933 7.143 5.03633Z" fill="white"/>
</svg>
