<svg width="55" height="17" viewBox="0 0 55 17" fill="none" xmlns="http://www.w3.org/2000/svg">
<path d="M28.8028 16.879C32.2045 16.879 34.9621 14.1215 34.9621 10.7198C34.9621 7.31814 32.2045 4.56055 28.8028 4.56055C25.4011 4.56055 22.6436 7.31814 22.6436 10.7198C22.6436 14.1215 25.4011 16.879 28.8028 16.879Z" fill="#F24748"/>
<path d="M28.8018 13.4513C30.3104 13.4513 31.5333 12.2283 31.5333 10.7198C31.5333 9.21121 30.3104 7.98828 28.8018 7.98828C27.2932 7.98828 26.0703 9.21121 26.0703 10.7198C26.0703 12.2283 27.2932 13.4513 28.8018 13.4513Z" fill="white"/>
<path d="M25.5683 4.25962C26.7446 4.25962 27.6981 3.30607 27.6981 2.12981C27.6981 0.953545 26.7446 0 25.5683 0C24.392 0 23.4385 0.953545 23.4385 2.12981C23.4385 3.30607 24.392 4.25962 25.5683 4.25962Z" fill="#F24748"/>
<path d="M32.038 4.25962C33.2143 4.25962 34.1678 3.30607 34.1678 2.12981C34.1678 0.953545 33.2143 0 32.038 0C30.8617 0 29.9082 0.953545 29.9082 2.12981C29.9082 3.30607 30.8617 4.25962 32.038 4.25962Z" fill="#F24748"/>
<path d="M6.67766 16.6932C5.71792 16.6932 4.82757 16.5429 4.00659 16.2423C3.19718 15.9301 2.49184 15.4907 1.89056 14.9241C1.30084 14.3575 0.838321 13.6926 0.502992 12.9295C0.167664 12.1548 0 11.3049 0 10.3798C0 9.45478 0.167664 8.61068 0.502992 7.84752C0.838321 7.0728 1.30084 6.40214 1.89056 5.83555C2.49184 5.26896 3.19718 4.83535 4.00659 4.53471C4.82757 4.22251 5.71792 4.06641 6.67766 4.06641C7.79927 4.06641 8.79947 4.26298 9.67826 4.65612C10.1225 4.85228 10.5293 5.09161 10.8987 5.37412C11.5259 5.8538 11.4423 6.76854 10.8568 7.2983C10.2309 7.86459 9.27556 7.75792 8.54003 7.34389C8.49772 7.32007 8.45508 7.29716 8.41211 7.27515C7.94959 7.03233 7.42925 6.91091 6.8511 6.91091C6.35389 6.91091 5.89715 6.99186 5.48088 7.15374C5.06461 7.31562 4.70616 7.55266 4.40552 7.86487C4.11644 8.1655 3.88518 8.52974 3.71174 8.95757C3.54985 9.38541 3.46891 9.85949 3.46891 10.3798C3.46891 10.9002 3.54985 11.3742 3.71174 11.8021C3.88518 12.2299 4.11644 12.5999 4.40552 12.9121C4.70616 13.2128 5.06461 13.444 5.48088 13.6059C5.89715 13.7678 6.35389 13.8487 6.8511 13.8487C7.42925 13.8487 7.94959 13.7273 8.41211 13.4845C8.45676 13.4616 8.50104 13.4378 8.54496 13.413C9.27717 12.9994 10.229 12.8933 10.8526 13.4576C11.4392 13.9883 11.5186 14.9048 10.8892 15.3841C10.5223 15.6635 10.1187 15.9033 9.67826 16.1035C8.79947 16.4967 7.79927 16.6932 6.67766 16.6932Z" fill="#189D60"/>
<path d="M18.4422 7.15942C19.1503 7.15942 19.7909 7.30552 20.3641 7.59774C20.9373 7.87871 21.3869 8.31703 21.7128 8.9127C22.05 9.50836 22.2185 10.2782 22.2185 11.2223V14.8469C22.2185 15.7314 21.5015 16.4484 20.617 16.4484C19.7325 16.4484 19.0154 15.7314 19.0154 14.8469V11.7449C19.0154 11.0931 18.8806 10.621 18.6108 10.3288C18.3523 10.0254 17.9871 9.87363 17.515 9.87363C17.1779 9.87363 16.8688 9.9523 16.5878 10.1096C16.3068 10.2558 16.0877 10.4862 15.9303 10.8008C15.773 11.1155 15.6943 11.5258 15.6943 12.0315V14.8469C15.6943 15.7314 14.9773 16.4484 14.0928 16.4484C13.2083 16.4484 12.4912 15.7314 12.4912 14.8469V5.541C12.4912 4.65649 13.2083 3.93945 14.0928 3.93945C14.9773 3.93945 15.6943 4.65649 15.6943 5.54101V9.08903C15.6943 9.38803 15.3313 9.53603 15.1222 9.32224C15.0211 9.2188 14.9969 9.06113 15.0715 8.93715C15.407 8.37944 15.845 7.95545 16.3855 7.66517C16.9924 7.328 17.678 7.15942 18.4422 7.15942Z" fill="#189D60"/>
<path d="M39.8023 16.3644C38.6912 16.3644 37.7066 15.6486 37.3638 14.5916L34.6754 6.30133C34.3198 5.20467 35.1373 4.08008 36.2902 4.08008C37.0312 4.08008 37.6865 4.56067 37.9093 5.26737L40.6174 13.8596C40.7509 14.2833 40.4345 14.7148 39.9902 14.7148C39.5418 14.7148 39.225 14.2758 39.3661 13.8502L42.1083 5.58274C42.4059 4.68563 43.2447 4.08008 44.1899 4.08008C45.1484 4.08008 45.9958 4.70249 46.2825 5.61706L48.8765 13.8904C49.0046 14.2991 48.6994 14.7148 48.2711 14.7148C47.84 14.7148 47.5344 14.2941 47.6676 13.8841L50.5004 5.17017C50.7117 4.52015 51.3175 4.08008 52.001 4.08008C53.0726 4.08008 53.8325 5.12539 53.502 6.14474L50.759 14.6031C50.4185 15.6532 49.4403 16.3644 48.3363 16.3644C47.2241 16.3644 46.2405 15.6427 45.9067 14.5817L43.7737 7.80065C43.6998 7.56574 43.8752 7.32664 44.1215 7.32664C44.3696 7.32664 44.5453 7.56915 44.4679 7.80493L42.238 14.6002C41.8926 15.6527 40.9101 16.3644 39.8023 16.3644Z" fill="#189D60"/>
</svg>
