<svg width="151" height="112" viewBox="0 0 151 112" fill="none" xmlns="http://www.w3.org/2000/svg">
<path d="M150.656 98.4238H0.344727V98.499H150.656V98.4238Z" fill="#EBEBEB"/>
<path d="M26.0728 101.285H16.1162V101.36H26.0728V101.285Z" fill="#EBEBEB"/>
<path d="M65.8811 100.471H51.7939V100.546H65.8811V100.471Z" fill="#EBEBEB"/>
<path d="M46.0641 104.078H36.2188V104.153H46.0641V104.078Z" fill="#EBEBEB"/>
<path d="M135.595 103.574H133.223V103.649H135.595V103.574Z" fill="#EBEBEB"/>
<path d="M130.547 103.574H118.029V103.649H130.547V103.574Z" fill="#EBEBEB"/>
<path d="M96.6425 102.305H83.6797V102.38H96.6425V102.305Z" fill="#EBEBEB"/>
<path d="M71.5918 85.0161H13.5446C13.0899 85.0153 12.654 84.8341 12.3328 84.5123C12.0115 84.1904 11.8311 83.7543 11.8311 83.2995V1.70152C11.835 1.2494 12.0172 0.817086 12.338 0.498498C12.6589 0.17991 13.0925 0.000774521 13.5446 0H71.5918C72.0471 0 72.4837 0.180851 72.8056 0.502768C73.1275 0.824684 73.3084 1.2613 73.3084 1.71656V83.2995C73.3084 83.7548 73.1275 84.1914 72.8056 84.5133C72.4837 84.8352 72.0471 85.0161 71.5918 85.0161V85.0161ZM13.5446 0.0601248C13.1098 0.0609211 12.6931 0.234205 12.3859 0.541941C12.0787 0.849676 11.9062 1.26672 11.9062 1.70152V83.2995C11.9062 83.7343 12.0787 84.1514 12.3859 84.4591C12.6931 84.7669 13.1098 84.9401 13.5446 84.9409H71.5918C72.0269 84.9401 72.4439 84.767 72.7516 84.4593C73.0592 84.1517 73.2324 83.7346 73.2332 83.2995V1.70152C73.2324 1.26644 73.0592 0.849407 72.7516 0.541757C72.4439 0.234107 72.0269 0.0609194 71.5918 0.0601248H13.5446Z" fill="#EBEBEB"/>
<path d="M136.62 85.0161H78.5701C78.1151 85.0153 77.6789 84.8342 77.3572 84.5124C77.0354 84.1907 76.8543 83.7545 76.8535 83.2995V1.70152C76.8583 1.24912 77.0411 0.816815 77.3624 0.49831C77.6837 0.179805 78.1176 0.000766074 78.5701 0H136.62C137.072 0.00156459 137.505 0.18105 137.825 0.499553C138.145 0.818056 138.327 1.24991 138.331 1.70152V83.2995C138.331 83.7538 138.151 84.1895 137.83 84.5112C137.51 84.8329 137.075 85.0145 136.62 85.0161V85.0161ZM78.5701 0.0601248C78.135 0.0609194 77.718 0.234107 77.4103 0.541757C77.1027 0.849407 76.9295 1.26644 76.9287 1.70152V83.2995C76.9295 83.7346 77.1027 84.1517 77.4103 84.4593C77.718 84.767 78.135 84.9401 78.5701 84.9409H136.62C137.055 84.9401 137.472 84.767 137.78 84.4593C138.088 84.1517 138.261 83.7346 138.262 83.2995V1.70152C138.261 1.26644 138.088 0.849407 137.78 0.541757C137.472 0.234107 137.055 0.0609194 136.62 0.0601248H78.5701Z" fill="#EBEBEB"/>
<path d="M115.631 29.6426L131.883 29.6426V10.9439L115.631 10.9439V29.6426Z" fill="#EBEBEB"/>
<path d="M117.401 12.1361C117.418 12.1354 117.435 12.1302 117.45 12.1211C117.495 12.0941 122.037 9.39146 123.483 9.39146C124.929 9.39146 129.261 12.0971 129.306 12.1211C129.317 12.1277 129.328 12.1322 129.34 12.1342C129.353 12.1363 129.365 12.1359 129.377 12.1331C129.389 12.1303 129.4 12.1252 129.41 12.1179C129.42 12.1107 129.429 12.1016 129.435 12.0911C129.448 12.0698 129.452 12.0445 129.446 12.0204C129.441 11.9963 129.426 11.9754 129.405 11.9618C129.225 11.8476 124.98 9.20508 123.483 9.20508C121.986 9.20508 117.54 11.8476 117.353 11.9618C117.343 11.968 117.333 11.9763 117.326 11.9862C117.318 11.9961 117.313 12.0074 117.31 12.0194C117.306 12.0315 117.306 12.044 117.308 12.0563C117.31 12.0686 117.314 12.0804 117.32 12.0911C117.329 12.1046 117.341 12.1158 117.355 12.1237C117.369 12.1315 117.385 12.1358 117.401 12.1361V12.1361Z" fill="#EBEBEB"/>
<path d="M113.787 29.6426L131.376 29.6426V10.9439L113.787 10.9439V29.6426Z" fill="#F5F5F5"/>
<path d="M129.904 28.1676V12.418L115.264 12.418V28.1676H129.904Z" fill="white"/>
<path d="M121.727 22.9444C121.727 22.5876 121.621 22.2389 121.423 21.9423C121.224 21.6456 120.943 21.4144 120.613 21.2779C120.284 21.1414 119.921 21.1057 119.571 21.1753C119.221 21.2449 118.9 21.4167 118.647 21.6689C118.395 21.9212 118.223 22.2426 118.154 22.5925C118.084 22.9424 118.12 23.305 118.256 23.6346C118.393 23.9642 118.624 24.2459 118.921 24.4441C119.217 24.6423 119.566 24.7481 119.923 24.7481C120.401 24.7481 120.86 24.5581 121.198 24.2198C121.537 23.8815 121.727 23.4227 121.727 22.9444V22.9444Z" fill="#F5F5F5"/>
<path d="M127.024 17.6436C127.024 17.2868 126.919 16.9381 126.72 16.6415C126.522 16.3449 126.241 16.1137 125.911 15.9771C125.581 15.8406 125.219 15.8049 124.869 15.8745C124.519 15.9441 124.198 16.1159 123.945 16.3681C123.693 16.6204 123.521 16.9418 123.452 17.2917C123.382 17.6416 123.418 18.0042 123.554 18.3338C123.691 18.6634 123.922 18.9451 124.219 19.1433C124.515 19.3415 124.864 19.4473 125.221 19.4473C125.699 19.4473 126.158 19.2573 126.496 18.919C126.834 18.5807 127.024 18.122 127.024 17.6436V17.6436Z" fill="#F5F5F5"/>
<path d="M92.345 44.9707H108.597V26.272L92.345 26.272V44.9707Z" fill="#EBEBEB"/>
<path d="M94.1124 27.4659C94.1281 27.47 94.1447 27.47 94.1605 27.4659C94.2056 27.4389 98.748 24.7363 100.194 24.7363C101.64 24.7363 105.972 27.4419 106.017 27.4629C106.027 27.4695 106.039 27.474 106.051 27.476C106.063 27.4781 106.076 27.4777 106.088 27.4749C106.1 27.4721 106.111 27.467 106.121 27.4597C106.131 27.4525 106.14 27.4434 106.146 27.4329C106.159 27.4116 106.163 27.3863 106.157 27.3622C106.152 27.3381 106.137 27.3172 106.116 27.3036C105.936 27.1924 101.691 24.5469 100.194 24.5469C98.6969 24.5469 94.2507 27.1894 94.0643 27.3036C94.0535 27.3098 94.0441 27.3181 94.0365 27.328C94.029 27.3379 94.0236 27.3492 94.0205 27.3612C94.0174 27.3733 94.0168 27.3858 94.0186 27.3981C94.0204 27.4104 94.0247 27.4222 94.0312 27.4329C94.041 27.4446 94.0535 27.4538 94.0676 27.4595C94.0818 27.4653 94.0972 27.4675 94.1124 27.4659V27.4659Z" fill="#EBEBEB"/>
<path d="M90.4985 44.9707H108.088V26.272L90.4985 26.272V44.9707Z" fill="#F5F5F5"/>
<path d="M106.612 43.4977V27.748H91.972V43.4977H106.612Z" fill="white"/>
<path d="M97.9014 38.8057C97.9014 38.4489 97.7956 38.1002 97.5974 37.8036C97.3992 37.507 97.1175 37.2758 96.7879 37.1393C96.4584 37.0027 96.0957 36.967 95.7458 37.0366C95.3959 37.1062 95.0745 37.278 94.8223 37.5303C94.57 37.7825 94.3982 38.1039 94.3286 38.4538C94.259 38.8037 94.2947 39.1664 94.4312 39.496C94.5678 39.8255 94.799 40.1072 95.0956 40.3054C95.3922 40.5036 95.7409 40.6094 96.0977 40.6094C96.5761 40.6094 97.0348 40.4194 97.3731 40.0811C97.7114 39.7429 97.9014 39.2841 97.9014 38.8057V38.8057Z" fill="#F5F5F5"/>
<path d="M104.268 32.4405C104.268 32.0837 104.162 31.735 103.964 31.4384C103.765 31.1417 103.484 30.9105 103.154 30.774C102.825 30.6375 102.462 30.6018 102.112 30.6714C101.762 30.741 101.441 30.9128 101.188 31.165C100.936 31.4173 100.764 31.7387 100.695 32.0886C100.625 32.4385 100.661 32.8011 100.797 33.1307C100.934 33.4603 101.165 33.742 101.462 33.9402C101.758 34.1384 102.107 34.2442 102.464 34.2442C102.942 34.2442 103.401 34.0542 103.739 33.7159C104.078 33.3776 104.268 32.9188 104.268 32.4405V32.4405Z" fill="#F5F5F5"/>
<path d="M100.685 38.8057C100.685 38.4489 100.79 38.1002 100.989 37.8036C101.187 37.507 101.468 37.2758 101.798 37.1393C102.128 37.0027 102.49 36.967 102.84 37.0366C103.19 37.1062 103.511 37.278 103.764 37.5303C104.016 37.7825 104.188 38.1039 104.257 38.4538C104.327 38.8037 104.291 39.1664 104.155 39.496C104.018 39.8255 103.787 40.1072 103.49 40.3054C103.194 40.5036 102.845 40.6094 102.488 40.6094C102.01 40.6094 101.551 40.4194 101.213 40.0811C100.875 39.7429 100.685 39.2841 100.685 38.8057V38.8057Z" fill="#F5F5F5"/>
<path d="M94.3154 32.4405C94.3154 32.0837 94.4212 31.735 94.6194 31.4384C94.8176 31.1417 95.0993 30.9105 95.4289 30.774C95.7585 30.6375 96.1212 30.6018 96.4711 30.6714C96.8209 30.741 97.1423 30.9128 97.3946 31.165C97.6469 31.4173 97.8186 31.7387 97.8882 32.0886C97.9578 32.4385 97.9221 32.8011 97.7856 33.1307C97.6491 33.4603 97.4179 33.742 97.1213 33.9402C96.8246 34.1384 96.4759 34.2442 96.1192 34.2442C95.6408 34.2442 95.182 34.0542 94.8437 33.7159C94.5055 33.3776 94.3154 32.9188 94.3154 32.4405V32.4405Z" fill="#F5F5F5"/>
<path d="M23.7843 57.125L82.3516 57.125V7.2998L23.7843 7.2998L23.7843 57.125Z" fill="#E6E6E6"/>
<path d="M22.9434 57.125L81.5107 57.125V7.2998L22.9434 7.2998L22.9434 57.125Z" fill="#F5F5F5"/>
<path d="M80 55.4283V8.99414L24.454 8.99414V55.4283H80Z" fill="white"/>
<path d="M25.0898 55.4283L25.0898 8.99414H24.4525L24.4525 55.4283H25.0898Z" fill="#E6E6E6"/>
<path d="M23.5681 50.2871L80.8848 50.2871V48.0084L23.5681 48.0084V50.2871Z" fill="#F5F5F5"/>
<path d="M21.298 4.49221H83.9958C84.0265 4.49181 84.0569 4.4975 84.0853 4.50896C84.1138 4.52041 84.1396 4.5374 84.1614 4.55893C84.1833 4.58047 84.2006 4.60612 84.2124 4.6344C84.2242 4.66268 84.2303 4.69303 84.2303 4.72369C84.2303 4.75434 84.2242 4.78469 84.2124 4.81297C84.2006 4.84125 84.1833 4.8669 84.1614 4.88844C84.1396 4.90997 84.1138 4.92696 84.0853 4.93842C84.0569 4.94987 84.0265 4.95556 83.9958 4.95517H21.298C21.2673 4.95556 21.2369 4.94987 21.2085 4.93842C21.18 4.92696 21.1542 4.90997 21.1323 4.88844C21.1105 4.8669 21.0932 4.84125 21.0814 4.81297C21.0696 4.78469 21.0635 4.75434 21.0635 4.72369V4.72369C21.0635 4.69303 21.0696 4.66268 21.0814 4.6344C21.0932 4.60612 21.1105 4.58047 21.1323 4.55893C21.1542 4.5374 21.18 4.52041 21.2085 4.50896C21.2369 4.4975 21.2673 4.49181 21.298 4.49221V4.49221Z" fill="#E6E6E6"/>
<path d="M19.9033 4.72396C19.9033 4.95419 19.9716 5.17924 20.0996 5.37063C20.2276 5.56201 20.4095 5.71113 20.6222 5.7991C20.835 5.88706 21.0691 5.90993 21.2948 5.86479C21.5206 5.81966 21.7279 5.70855 21.8905 5.54555C22.053 5.38254 22.1636 5.17496 22.2082 4.94908C22.2527 4.72321 22.2292 4.48919 22.1407 4.27666C22.0522 4.06413 21.9026 3.88263 21.7109 3.75516C21.5192 3.62768 21.294 3.55996 21.0637 3.56055C20.9111 3.56055 20.7599 3.59067 20.619 3.64917C20.478 3.70767 20.3499 3.79342 20.2421 3.90149C20.1343 4.00956 20.0489 4.13784 19.9908 4.27897C19.9327 4.42011 19.9029 4.57132 19.9033 4.72396V4.72396Z" fill="#E6E6E6"/>
<path d="M82.036 6.0124C82.0767 6.01444 82.1174 6.00817 82.1556 5.99398C82.1939 5.97979 82.2288 5.95796 82.2583 5.92984C82.2879 5.90172 82.3114 5.86789 82.3274 5.8304C82.3434 5.79291 82.3517 5.75255 82.3516 5.71177V5.03537C82.3517 4.9946 82.3434 4.95424 82.3274 4.91675C82.3114 4.87926 82.2879 4.84543 82.2583 4.81731C82.2288 4.78918 82.1939 4.76736 82.1556 4.75317C82.1174 4.73898 82.0767 4.73271 82.036 4.73475C81.9562 4.73475 81.8798 4.76642 81.8234 4.8228C81.767 4.87918 81.7354 4.95564 81.7354 5.03537V5.71177C81.7354 5.7915 81.767 5.86797 81.8234 5.92435C81.8798 5.98073 81.9562 6.0124 82.036 6.0124Z" fill="#E6E6E6"/>
<path d="M24.8026 6.01202C24.8823 6.01202 24.9588 5.98035 25.0151 5.92397C25.0715 5.86759 25.1032 5.79113 25.1032 5.7114V5.035C25.1032 4.95527 25.0715 4.8788 25.0151 4.82243C24.9588 4.76605 24.8823 4.73438 24.8026 4.73438C24.7228 4.73438 24.6464 4.76605 24.59 4.82243C24.5336 4.8788 24.502 4.95527 24.502 5.035V5.7114C24.502 5.79113 24.5336 5.86759 24.59 5.92397C24.6464 5.98035 24.7228 6.01202 24.8026 6.01202Z" fill="#E6E6E6"/>
<path opacity="0.4" d="M21.3705 42.9355L80.8848 42.9355V4.7234L21.3705 4.7234L21.3705 42.9355Z" fill="#E0E0E0"/>
<path d="M77.1357 4.72396C77.1357 4.95406 77.204 5.17899 77.3318 5.37031C77.4597 5.56163 77.6413 5.71075 77.8539 5.79881C78.0665 5.88686 78.3004 5.9099 78.5261 5.86501C78.7518 5.82012 78.9591 5.70932 79.1218 5.54661C79.2845 5.38391 79.3953 5.17661 79.4402 4.95093C79.4851 4.72525 79.4621 4.49132 79.374 4.27874C79.2859 4.06615 79.1368 3.88445 78.9455 3.75662C78.7542 3.62878 78.5293 3.56055 78.2992 3.56055C77.9906 3.56055 77.6947 3.68312 77.4765 3.9013C77.2583 4.11948 77.1357 4.4154 77.1357 4.72396V4.72396Z" fill="#E6E6E6"/>
<path d="M112.853 65.3774H112.636C112.645 65.3368 112.651 65.2956 112.654 65.2542C112.654 64.3523 111.551 63.6158 110.186 63.6128C110.271 63.4299 110.316 63.2311 110.318 63.0296C110.318 62.1277 109.45 61.3852 108.373 61.3852C108.08 61.3864 107.79 61.4456 107.52 61.5595C107.53 61.5018 107.537 61.4436 107.541 61.3852C107.541 60.2127 106.416 59.2598 105.027 59.2598C103.861 59.2598 102.893 59.9332 102.604 60.841C102.238 60.4601 101.798 60.1589 101.31 59.9561C100.822 59.7533 100.298 59.6534 99.7695 59.6626C99.162 59.6465 98.5597 59.7788 98.0149 60.0481C97.4701 60.3174 96.9992 60.7154 96.643 61.2078C96.4473 61.0147 96.2154 60.8621 95.9605 60.7589C95.7056 60.6558 95.4329 60.604 95.158 60.6066C94.0847 60.6066 93.2159 61.3401 93.2159 62.248C93.2166 62.4497 93.2617 62.6489 93.3482 62.8312C91.9834 62.8312 90.8771 63.5677 90.8771 64.4756C90.8813 64.5599 90.8944 64.6435 90.9162 64.7251H90.6787C88.8749 64.7251 87.4199 65.3263 87.4199 66.0989C87.4199 66.8715 88.8779 67.4698 90.6787 67.4698C91.3432 67.4773 92.0051 67.384 92.6417 67.1932C93.3813 68.2424 95.687 68.9969 98.4167 68.9969C101.567 68.9969 104.153 67.9778 104.429 66.6791C105.335 66.997 106.289 67.1517 107.249 67.1361C108.044 67.1423 108.835 67.0412 109.603 66.8355H109.618C109.744 67.5449 111.148 68.1041 112.865 68.1041C114.668 68.1041 116.126 67.4878 116.126 66.7302C116.126 65.9727 114.653 65.3774 112.853 65.3774Z" fill="#E6E6E6"/>
<path d="M117.51 66.207C118.175 66.207 118.812 66.4709 119.281 66.9405C119.751 67.4101 120.015 68.0471 120.015 68.7112C120.015 71.483 113.142 73.7527 104.743 73.7527H97.1613C88.7619 73.7527 81.8896 71.483 81.8896 68.7112C81.8896 68.0471 82.1535 67.4101 82.6231 66.9405C83.0927 66.4709 83.7297 66.207 84.3938 66.207H117.51Z" fill="#F0F0F0"/>
<path d="M47.817 98.4238H61.1045V73.7517H47.817V98.4238Z" fill="#E6E6E6"/>
<path d="M50.3377 98.4249H47.8125V96.1191H52.9832L50.3377 98.4249Z" fill="#F0F0F0"/>
<path d="M119.897 98.4238H133.185V73.7517H119.897V98.4238Z" fill="#E6E6E6"/>
<path d="M47.8158 97.4043L122.1 97.4043V73.7543L47.8158 73.7543V97.4043Z" fill="#F0F0F0"/>
<path d="M119.574 98.4249H122.096V96.1191H116.929L119.574 98.4249Z" fill="#F0F0F0"/>
<path d="M119.993 75.8957V84.9143H49.9478V75.8957H119.993ZM120.152 75.7363H49.7734V85.0767H120.14V75.7363H120.152Z" fill="#FAFAFA"/>
<path d="M119.993 86.2335V95.2522H49.9478V86.2335H119.993ZM120.152 86.0742H49.7734V95.4206H120.14V86.0742H120.152Z" fill="#FAFAFA"/>
<path d="M78.4759 76.6595H91.4327C91.5554 76.6595 91.6768 76.6353 91.79 76.5883C91.9033 76.5413 92.0062 76.4724 92.0928 76.3855C92.1793 76.2987 92.2479 76.1956 92.2946 76.0822C92.3412 75.9687 92.365 75.8472 92.3647 75.7246H77.544C77.5436 75.8472 77.5674 75.9687 77.614 76.0822C77.6607 76.1956 77.7293 76.2987 77.8158 76.3855C77.9024 76.4724 78.0053 76.5413 78.1186 76.5883C78.2318 76.6353 78.3532 76.6595 78.4759 76.6595V76.6595Z" fill="#FAFAFA"/>
<path d="M78.4759 87.0062H91.4327C91.5551 87.0062 91.6763 86.982 91.7893 86.9352C91.9024 86.8884 92.0051 86.8197 92.0917 86.7332C92.1782 86.6467 92.2469 86.5439 92.2937 86.4309C92.3405 86.3178 92.3646 86.1966 92.3646 86.0742H77.5439C77.5439 86.3214 77.6421 86.5584 77.8169 86.7332C77.9917 86.908 78.2287 87.0062 78.4759 87.0062V87.0062Z" fill="#FAFAFA"/>
<path d="M75.5016 111.999C107.693 111.999 133.789 110.476 133.789 108.596C133.789 106.717 107.693 105.193 75.5016 105.193C43.3102 105.193 17.2139 106.717 17.2139 108.596C17.2139 110.476 43.3102 111.999 75.5016 111.999Z" fill="#F5F5F5"/>
<path d="M40 39.5765L39.7324 39.4383C42.0678 34.8785 45.2041 30.7759 48.9916 27.3262L49.196 27.5486C45.4345 30.9743 42.3196 35.0484 40 39.5765V39.5765Z" fill="#F24748"/>
<path d="M36.2371 50.3101L35.9365 50.2499C36.3717 48.1242 36.9686 46.0348 37.7222 44L38.0048 44.1052C37.2573 46.1251 36.6663 48.1995 36.2371 50.3101V50.3101Z" fill="#F24748"/>
<path opacity="0.9" d="M101.65 82.7898C114.926 69.513 114.926 47.987 101.65 34.7102C88.3729 21.4334 66.8469 21.4334 53.5701 34.7102C40.2933 47.987 40.2933 69.513 53.5701 82.7898C66.8469 96.0666 88.3729 96.0666 101.65 82.7898Z" fill="#FAFAFA"/>
<g opacity="0.4">
<path d="M53.5531 77.7646H45.5596L47.1048 73.9707H52.0079L53.5531 77.7646Z" fill="#F24748"/>
<path opacity="0.2" d="M53.5531 77.7646H45.5596L47.1048 73.9707H52.0079L53.5531 77.7646Z" fill="#FAFAFA"/>
<path d="M65.7002 77.7646H53.552L52.0068 73.9707H64.155L65.7002 77.7646Z" fill="#F24748"/>
<path opacity="0.3" d="M65.7002 77.7646H53.552L52.0068 73.9707H64.155L65.7002 77.7646Z" fill="black"/>
<path d="M63.7544 77.7646H55.7578L57.303 73.9707H62.2092L63.7544 77.7646Z" fill="#F24748"/>
<path opacity="0.2" d="M63.7544 77.7646H55.7578L57.303 73.9707H62.2092L63.7544 77.7646Z" fill="#FAFAFA"/>
<path d="M75.9003 77.7646H63.7552L62.21 73.9707H74.3551L75.9003 77.7646Z" fill="#F24748"/>
<path opacity="0.3" d="M75.9003 77.7646H63.7552L62.21 73.9707H74.3551L75.9003 77.7646Z" fill="black"/>
<path d="M73.9564 77.7646H65.9629L67.5081 73.9707H72.4112L73.9564 77.7646Z" fill="#F24748"/>
<path opacity="0.2" d="M73.9564 77.7646H65.9629L67.5081 73.9707H72.4112L73.9564 77.7646Z" fill="#FAFAFA"/>
<path d="M86.1005 77.7646H73.9554L72.4102 73.9707H84.5583L86.1005 77.7646Z" fill="#F24748"/>
<path opacity="0.3" d="M86.1005 77.7646H73.9554L72.4102 73.9707H84.5583L86.1005 77.7646Z" fill="black"/>
<path d="M84.1557 77.7646H76.1621L77.7073 73.9707H82.6105L84.1557 77.7646Z" fill="#F24748"/>
<path opacity="0.2" d="M84.1557 77.7646H76.1621L77.7073 73.9707H82.6105L84.1557 77.7646Z" fill="#FAFAFA"/>
<path d="M96.3027 77.7646H84.1546L82.6094 73.9707H94.7575L96.3027 77.7646Z" fill="#F24748"/>
<path opacity="0.3" d="M96.3027 77.7646H84.1546L82.6094 73.9707H94.7575L96.3027 77.7646Z" fill="black"/>
<path d="M94.3579 77.7646H86.3613L87.9065 73.9707H92.8127L94.3579 77.7646Z" fill="#F24748"/>
<path opacity="0.2" d="M94.3579 77.7646H86.3613L87.9065 73.9707H92.8127L94.3579 77.7646Z" fill="#FAFAFA"/>
<path d="M100.841 77.7646C101.228 76.508 101.579 75.2433 101.893 73.9707H92.8145L94.3597 77.7646H100.841Z" fill="#F24748"/>
<path opacity="0.3" d="M100.841 77.7646C101.228 76.508 101.579 75.2433 101.893 73.9707H92.8145L94.3597 77.7646H100.841Z" fill="black"/>
<path d="M101.891 73.9707H98.1096L96.5645 77.7646H100.839C101.228 76.508 101.579 75.2433 101.891 73.9707Z" fill="#F24748"/>
<path opacity="0.2" d="M101.891 73.9707H98.1096L96.5645 77.7646H100.839C101.228 76.508 101.579 75.2433 101.891 73.9707Z" fill="#FAFAFA"/>
<path d="M56.6684 73.9707H48.6719L50.2171 70.1738H55.1232L56.6684 73.9707Z" fill="#F24748"/>
<path opacity="0.2" d="M56.6684 73.9707H48.6719L50.2171 70.1738H55.1232L56.6684 73.9707Z" fill="#FAFAFA"/>
<path d="M68.8154 73.9707H56.6702L55.125 70.1738H67.2702L68.8154 73.9707Z" fill="#F24748"/>
<path opacity="0.3" d="M68.8154 73.9707H56.6702L55.125 70.1738H67.2702L68.8154 73.9707Z" fill="black"/>
<path d="M66.8705 73.9707H58.877L60.4222 70.1738H65.3253L66.8705 73.9707Z" fill="#F24748"/>
<path opacity="0.2" d="M66.8705 73.9707H58.877L60.4222 70.1738H65.3253L66.8705 73.9707Z" fill="#FAFAFA"/>
<path d="M79.0146 73.9707H66.8694L65.3242 70.1738H77.4724L79.0146 73.9707Z" fill="#F24748"/>
<path opacity="0.3" d="M79.0146 73.9707H66.8694L65.3242 70.1738H77.4724L79.0146 73.9707Z" fill="black"/>
<path d="M77.0707 73.9707H69.0771L70.6223 70.1738H75.5255L77.0707 73.9707Z" fill="#F24748"/>
<path opacity="0.2" d="M77.0707 73.9707H69.0771L70.6223 70.1738H75.5255L77.0707 73.9707Z" fill="#FAFAFA"/>
<path d="M89.2188 73.9707H77.0706L75.5254 70.1738H87.6735L89.2188 73.9707Z" fill="#F24748"/>
<path opacity="0.3" d="M89.2188 73.9707H77.0706L75.5254 70.1738H87.6735L89.2188 73.9707Z" fill="black"/>
<path d="M87.2729 73.9707H79.2764L80.8216 70.1738H85.7277L87.2729 73.9707Z" fill="#F24748"/>
<path opacity="0.2" d="M87.2729 73.9707H79.2764L80.8216 70.1738H85.7277L87.2729 73.9707Z" fill="#FAFAFA"/>
<path d="M99.4179 73.9707H87.2727L85.7275 70.1738H97.8727L99.4179 73.9707Z" fill="#F24748"/>
<path opacity="0.3" d="M99.4179 73.9707H87.2727L85.7275 70.1738H97.8727L99.4179 73.9707Z" fill="black"/>
<path d="M97.473 73.9707H89.4795L91.0247 70.1738H95.9279L97.473 73.9707Z" fill="#F24748"/>
<path opacity="0.2" d="M97.473 73.9707H89.4795L91.0247 70.1738H95.9279L97.473 73.9707Z" fill="#FAFAFA"/>
<path d="M101.893 73.9707C102.193 72.7111 102.479 71.4485 102.713 70.1738H95.9434L97.4886 73.9707H101.893Z" fill="#F24748"/>
<path opacity="0.3" d="M101.893 73.9707C102.193 72.7111 102.479 71.4485 102.713 70.1738H95.9434L97.4886 73.9707H101.893Z" fill="black"/>
<path d="M102.713 70.1738H101.225L99.6797 73.9707H101.892C102.202 72.7111 102.478 71.4485 102.713 70.1738Z" fill="#F24748"/>
<path opacity="0.2" d="M102.713 70.1738H101.225L99.6797 73.9707H101.892C102.202 72.7111 102.478 71.4485 102.713 70.1738Z" fill="#FAFAFA"/>
<path d="M59.3393 70.1747H51.3457L52.8909 66.3809H57.7941L59.3393 70.1747Z" fill="#F24748"/>
<path opacity="0.2" d="M59.3393 70.1747H51.3457L52.8909 66.3809H57.7941L59.3393 70.1747Z" fill="#FAFAFA"/>
<path d="M71.4873 70.1747H59.3391L57.7939 66.3809H69.9421L71.4873 70.1747Z" fill="#F24748"/>
<path opacity="0.3" d="M71.4873 70.1747H59.3391L57.7939 66.3809H69.9421L71.4873 70.1747Z" fill="black"/>
<path d="M69.5415 70.1747H61.5449L63.0901 66.3809H67.9933L69.5415 70.1747Z" fill="#F24748"/>
<path opacity="0.2" d="M69.5415 70.1747H61.5449L63.0901 66.3809H67.9933L69.5415 70.1747Z" fill="#FAFAFA"/>
<path d="M81.6885 70.1747H69.5433L67.9951 66.3809H80.1433L81.6885 70.1747Z" fill="#F24748"/>
<path opacity="0.3" d="M81.6885 70.1747H69.5433L67.9951 66.3809H80.1433L81.6885 70.1747Z" fill="black"/>
<path d="M79.7436 70.1747H71.75L73.2952 66.3809H78.1984L79.7436 70.1747Z" fill="#F24748"/>
<path opacity="0.2" d="M79.7436 70.1747H71.75L73.2952 66.3809H78.1984L79.7436 70.1747Z" fill="#FAFAFA"/>
<path d="M91.8876 70.1747H79.7425L78.1973 66.3809H90.3424L91.8876 70.1747Z" fill="#F24748"/>
<path opacity="0.3" d="M91.8876 70.1747H79.7425L78.1973 66.3809H90.3424L91.8876 70.1747Z" fill="black"/>
<path d="M89.9428 70.1747H81.9492L83.4944 66.3809H88.3976L89.9428 70.1747Z" fill="#F24748"/>
<path opacity="0.2" d="M89.9428 70.1747H81.9492L83.4944 66.3809H88.3976L89.9428 70.1747Z" fill="#FAFAFA"/>
<path d="M102.09 70.1747H89.9417L88.3965 66.3809H100.545L102.09 70.1747Z" fill="#F24748"/>
<path opacity="0.3" d="M102.09 70.1747H89.9417L88.3965 66.3809H100.545L102.09 70.1747Z" fill="black"/>
<path d="M100.146 70.1747H92.1494L93.6946 66.3809H98.6008L100.146 70.1747Z" fill="#F24748"/>
<path opacity="0.2" d="M100.146 70.1747H92.1494L93.6946 66.3809H98.6008L100.146 70.1747Z" fill="#FAFAFA"/>
<path d="M102.714 70.1747C102.949 68.9181 103.149 67.6535 103.315 66.3809H98.6016L100.153 70.1747H102.714Z" fill="#F24748"/>
<path opacity="0.3" d="M102.714 70.1747C102.949 68.9181 103.149 67.6535 103.315 66.3809H98.6016L100.153 70.1747H102.714Z" fill="black"/>
<path d="M102.98 68.6289L102.352 70.1741H102.712C102.809 69.661 102.898 69.146 102.98 68.6289Z" fill="#F24748"/>
<path opacity="0.2" d="M102.98 68.6289L102.352 70.1741H102.712C102.809 69.661 102.898 69.146 102.98 68.6289Z" fill="#FAFAFA"/>
<path d="M62.4525 66.3798H54.459L56.0042 62.5859H60.9103L62.4525 66.3798Z" fill="#F24748"/>
<path opacity="0.2" d="M62.4525 66.3798H54.459L56.0042 62.5859H60.9103L62.4525 66.3798Z" fill="#FAFAFA"/>
<path d="M74.6025 66.3798H62.4543L60.9121 62.5859H73.0573L74.6025 66.3798Z" fill="#F24748"/>
<path opacity="0.3" d="M74.6025 66.3798H62.4543L60.9121 62.5859H73.0573L74.6025 66.3798Z" fill="black"/>
<path d="M72.6576 66.3798H64.6641L66.2093 62.5859H71.1124L72.6576 66.3798Z" fill="#F24748"/>
<path opacity="0.2" d="M72.6576 66.3798H64.6641L66.2093 62.5859H71.1124L72.6576 66.3798Z" fill="#FAFAFA"/>
<path d="M84.8017 66.3798H72.6565L71.1113 62.5859H83.2595L84.8017 66.3798Z" fill="#F24748"/>
<path opacity="0.3" d="M84.8017 66.3798H72.6565L71.1113 62.5859H83.2595L84.8017 66.3798Z" fill="black"/>
<path d="M82.8559 66.3798H74.8623L76.4075 62.5859H81.3107L82.8559 66.3798Z" fill="#F24748"/>
<path opacity="0.2" d="M82.8559 66.3798H74.8623L76.4075 62.5859H81.3107L82.8559 66.3798Z" fill="#FAFAFA"/>
<path d="M95.0059 66.3798H82.8577L81.3125 62.5859H93.4607L95.0059 66.3798Z" fill="#F24748"/>
<path opacity="0.3" d="M95.0059 66.3798H82.8577L81.3125 62.5859H93.4607L95.0059 66.3798Z" fill="black"/>
<path d="M93.06 66.3798H85.0635L86.6087 62.5859H91.5148L93.06 66.3798Z" fill="#F24748"/>
<path opacity="0.2" d="M93.06 66.3798H85.0635L86.6087 62.5859H91.5148L93.06 66.3798Z" fill="#FAFAFA"/>
<path d="M103.302 66.3798C103.458 65.1192 103.574 63.8546 103.648 62.5859H91.5146L93.0599 66.3798H103.302Z" fill="#F24748"/>
<path opacity="0.3" d="M103.302 66.3798C103.458 65.1192 103.574 63.8546 103.648 62.5859H91.5146L93.0599 66.3798H103.302Z" fill="black"/>
<path d="M103.262 66.3798H95.2686L96.8138 62.5859H101.717L103.262 66.3798Z" fill="#F24748"/>
<path opacity="0.2" d="M103.262 66.3798H95.2686L96.8138 62.5859H101.717L103.262 66.3798Z" fill="#FAFAFA"/>
<path d="M103.303 66.3798C103.459 65.1192 103.575 63.8546 103.649 62.5859H101.716L103.261 66.3798H103.303Z" fill="#F24748"/>
<path opacity="0.3" d="M103.303 66.3798C103.459 65.1192 103.575 63.8546 103.649 62.5859H101.716L103.261 66.3798H103.303Z" fill="black"/>
<path d="M60.6826 92.9423H63.4122L61.867 89.1484H55.8125C57.5314 90.2854 59.1596 91.5538 60.6826 92.9423Z" fill="#F24748"/>
<path opacity="0.3" d="M60.6826 92.9423H63.4122L61.867 89.1484H55.8125C57.5314 90.2854 59.1596 91.5538 60.6826 92.9423Z" fill="black"/>
<path d="M60.6826 92.9423H61.4672L59.922 89.1484H55.8125C57.5314 90.2854 59.1596 91.5538 60.6826 92.9423Z" fill="#F24748"/>
<path opacity="0.2" d="M60.6826 92.9423H61.4672L59.922 89.1484H55.8125C57.5314 90.2854 59.1596 91.5538 60.6826 92.9423Z" fill="#FAFAFA"/>
<path d="M73.6132 92.9423H61.4681L59.9229 89.1484H72.068L73.6132 92.9423Z" fill="#F24748"/>
<path opacity="0.3" d="M73.6132 92.9423H61.4681L59.9229 89.1484H72.068L73.6132 92.9423Z" fill="black"/>
<path d="M71.6674 92.9423H63.6738L65.219 89.1484H70.1222L71.6674 92.9423Z" fill="#F24748"/>
<path opacity="0.2" d="M71.6674 92.9423H63.6738L65.219 89.1484H70.1222L71.6674 92.9423Z" fill="#FAFAFA"/>
<path d="M83.8134 92.9423H71.6682L70.123 89.1484H82.2682L83.8134 92.9423Z" fill="#F24748"/>
<path opacity="0.3" d="M83.8134 92.9423H71.6682L70.123 89.1484H82.2682L83.8134 92.9423Z" fill="black"/>
<path d="M81.8686 92.9423H73.875L75.4202 89.1484H80.3234L81.8686 92.9423Z" fill="#F24748"/>
<path opacity="0.2" d="M81.8686 92.9423H73.875L75.4202 89.1484H80.3234L81.8686 92.9423Z" fill="#FAFAFA"/>
<path d="M93.9508 92.78L92.4717 89.1484H80.3115L81.8567 92.9423H93.7704C93.8395 92.8912 93.8937 92.8341 93.9508 92.78Z" fill="#F24748"/>
<path opacity="0.3" d="M93.9508 92.78L92.4717 89.1484H80.3115L81.8567 92.9423H93.7704C93.8395 92.8912 93.8937 92.8341 93.9508 92.78Z" fill="black"/>
<path d="M92.0708 92.9423H84.0742L85.6194 89.1484H90.5256L92.0708 92.9423Z" fill="#F24748"/>
<path opacity="0.2" d="M92.0708 92.9423H84.0742L85.6194 89.1484H90.5256L92.0708 92.9423Z" fill="#FAFAFA"/>
<path d="M93.781 92.9423C94.9003 91.8389 95.8279 90.5567 96.5257 89.1484H90.5312L92.0765 92.9423H93.781Z" fill="#F24748"/>
<path opacity="0.3" d="M93.781 92.9423C94.9003 91.8389 95.8279 90.5567 96.5257 89.1484H90.5312L92.0765 92.9423H93.781Z" fill="black"/>
<path d="M96.5261 89.1484H95.8227L94.6562 92.0104C95.3802 91.1261 96.007 90.1666 96.5261 89.1484V89.1484Z" fill="#F24748"/>
<path opacity="0.2" d="M96.5261 89.1484H95.8227L94.6562 92.0104C95.3802 91.1261 96.007 90.1666 96.5261 89.1484V89.1484Z" fill="#FAFAFA"/>
<path d="M51.2459 85.7793C52.6919 87.0029 54.2521 88.0701 55.8123 89.1493H56.3264L54.7812 85.3555H50.7559C50.9182 85.4968 51.0805 85.6411 51.2459 85.7793Z" fill="#F24748"/>
<path opacity="0.3" d="M51.2459 85.7793C52.6919 87.0029 54.2521 88.0701 55.8123 89.1493H56.3264L54.7812 85.3555H50.7559C50.9182 85.4968 51.0805 85.6411 51.2459 85.7793Z" fill="black"/>
<path d="M51.2459 85.7796C52.0696 86.4771 52.9324 87.1234 53.8102 87.7487L52.8362 85.3438H50.7559C50.9182 85.4971 51.0805 85.6414 51.2459 85.7796Z" fill="#F24748"/>
<path opacity="0.2" d="M51.2459 85.7796C52.0696 86.4771 52.9324 87.1234 53.8102 87.7487L52.8362 85.3438H50.7559C50.9182 85.4971 51.0805 85.6414 51.2459 85.7796Z" fill="#FAFAFA"/>
<path d="M55.8132 89.1493H66.5273L64.9791 85.3555H52.834L53.808 87.7604C54.4724 88.2234 55.1458 88.6834 55.8132 89.1493Z" fill="#F24748"/>
<path opacity="0.3" d="M55.8132 89.1493H66.5273L64.9791 85.3555H52.834L53.808 87.7604C54.4724 88.2234 55.1458 88.6834 55.8132 89.1493Z" fill="black"/>
<path d="M64.5814 89.1493H56.5879L58.1331 85.3555H63.0362L64.5814 89.1493Z" fill="#F24748"/>
<path opacity="0.2" d="M64.5814 89.1493H56.5879L58.1331 85.3555H63.0362L64.5814 89.1493Z" fill="#FAFAFA"/>
<path d="M76.7305 89.1493H64.5823L63.0371 85.3555H75.1853L76.7305 89.1493Z" fill="#F24748"/>
<path opacity="0.3" d="M76.7305 89.1493H64.5823L63.0371 85.3555H75.1853L76.7305 89.1493Z" fill="black"/>
<path d="M74.7816 89.1493H66.7881L68.3333 85.3555H73.2364L74.7816 89.1493Z" fill="#F24748"/>
<path opacity="0.2" d="M74.7816 89.1493H66.7881L68.3333 85.3555H73.2364L74.7816 89.1493Z" fill="#FAFAFA"/>
<path d="M86.9307 89.1493H74.7825L73.2373 85.3555H85.3855L86.9307 89.1493Z" fill="#F24748"/>
<path opacity="0.3" d="M86.9307 89.1493H74.7825L73.2373 85.3555H85.3855L86.9307 89.1493Z" fill="black"/>
<path d="M84.9848 89.1493H76.9912L78.5364 85.3555H83.4396L84.9848 89.1493Z" fill="#F24748"/>
<path opacity="0.2" d="M84.9848 89.1493H76.9912L78.5364 85.3555H83.4396L84.9848 89.1493Z" fill="#FAFAFA"/>
<path d="M96.8602 88.488L95.5856 85.3555H83.4404L84.9856 89.1493H96.5265C96.6438 88.9299 96.752 88.7104 96.8602 88.488Z" fill="#F24748"/>
<path opacity="0.3" d="M96.8602 88.488L95.5856 85.3555H83.4404L84.9856 89.1493H96.5265C96.6438 88.9299 96.752 88.7104 96.8602 88.488Z" fill="black"/>
<path d="M95.1859 89.1493H87.1924L88.7376 85.3555H93.6407L95.1859 89.1493Z" fill="#F24748"/>
<path opacity="0.2" d="M95.1859 89.1493H87.1924L88.7376 85.3555H93.6407L95.1859 89.1493Z" fill="#FAFAFA"/>
<path d="M96.5256 89.1493C97.1545 87.9192 97.7087 86.6523 98.1851 85.3555H93.6396L95.1849 89.1493H96.5256Z" fill="#F24748"/>
<path opacity="0.3" d="M96.5256 89.1493C97.1545 87.9192 97.7087 86.6523 98.1851 85.3555H93.6396L95.1849 89.1493H96.5256Z" fill="black"/>
<path d="M50.7578 85.3555H58.9979L57.4647 81.5586H47.1143C48.2231 82.9215 49.4417 84.1914 50.7578 85.3555V85.3555Z" fill="#F24748"/>
<path opacity="0.3" d="M50.7578 85.3555H58.9979L57.4647 81.5586H47.1143C48.2231 82.9215 49.4417 84.1914 50.7578 85.3555V85.3555Z" fill="black"/>
<path d="M50.7579 85.3555H57.053L55.5078 81.5586H50.6046L49.5254 84.2071C49.9242 84.6019 50.3351 84.9847 50.7579 85.3555Z" fill="#F24748"/>
<path opacity="0.2" d="M50.7579 85.3555H57.053L55.5078 81.5586H50.6046L49.5254 84.2071C49.9242 84.6019 50.3351 84.9847 50.7579 85.3555Z" fill="#FAFAFA"/>
<path d="M69.2002 85.3555H57.052L55.5068 81.5586H67.655L69.2002 85.3555Z" fill="#F24748"/>
<path opacity="0.3" d="M69.2002 85.3555H57.052L55.5068 81.5586H67.655L69.2002 85.3555Z" fill="black"/>
<path d="M67.2514 85.3555H59.2578L60.803 81.5586H65.7092L67.2514 85.3555Z" fill="#F24748"/>
<path opacity="0.2" d="M67.2514 85.3555H59.2578L60.803 81.5586H65.7092L67.2514 85.3555Z" fill="#FAFAFA"/>
<path d="M79.4003 85.3555H67.2522L65.71 81.5586H77.8551L79.4003 85.3555Z" fill="#F24748"/>
<path opacity="0.3" d="M79.4003 85.3555H67.2522L65.71 81.5586H77.8551L79.4003 85.3555Z" fill="black"/>
<path d="M77.4545 85.3555H69.4609L71.0061 81.5586H75.9093L77.4545 85.3555Z" fill="#F24748"/>
<path opacity="0.2" d="M77.4545 85.3555H69.4609L71.0061 81.5586H75.9093L77.4545 85.3555Z" fill="#FAFAFA"/>
<path d="M89.6005 85.3555H77.4554L75.9102 81.5586H88.0553L89.6005 85.3555Z" fill="#F24748"/>
<path opacity="0.3" d="M89.6005 85.3555H77.4554L75.9102 81.5586H88.0553L89.6005 85.3555Z" fill="black"/>
<path d="M87.6547 85.3555H79.6611L81.2063 81.5586H86.1095L87.6547 85.3555Z" fill="#F24748"/>
<path opacity="0.2" d="M87.6547 85.3555H79.6611L81.2063 81.5586H86.1095L87.6547 85.3555Z" fill="#FAFAFA"/>
<path d="M98.948 83.2541L98.2596 81.5586H86.1084L87.6536 85.3555H98.1754C98.455 84.64 98.7045 83.9335 98.948 83.2541Z" fill="#F24748"/>
<path opacity="0.3" d="M98.948 83.2541L98.2596 81.5586H86.1084L87.6536 85.3555H98.1754C98.455 84.64 98.7045 83.9335 98.948 83.2541Z" fill="black"/>
<path d="M97.8589 85.3555H89.8623L91.4075 81.5586H96.3137L97.8589 85.3555Z" fill="#F24748"/>
<path opacity="0.2" d="M97.8589 85.3555H89.8623L91.4075 81.5586H96.3137L97.8589 85.3555Z" fill="#FAFAFA"/>
<path d="M98.1854 85.3555C98.6814 84.0417 99.1143 82.7581 99.5352 81.6217C99.5408 81.6003 99.5478 81.5792 99.5562 81.5586H96.3125L97.8577 85.3555H98.1854Z" fill="#F24748"/>
<path opacity="0.3" d="M98.1854 85.3555C98.6814 84.0417 99.1143 82.7581 99.5352 81.6217C99.5408 81.6003 99.5478 81.5792 99.5562 81.5586H96.3125L97.8577 85.3555H98.1854Z" fill="black"/>
<path d="M47.1141 81.5575H49.967L48.4218 77.7637H44.4355C45.2394 79.0888 46.1344 80.3565 47.1141 81.5575V81.5575Z" fill="#F24748"/>
<path opacity="0.2" d="M47.1141 81.5575H49.967L48.4218 77.7637H44.4355C45.2394 79.0888 46.1344 80.3565 47.1141 81.5575V81.5575Z" fill="#FAFAFA"/>
<path d="M62.1143 81.5575H49.9661L48.4209 77.7637H60.5691L62.1143 81.5575Z" fill="#F24748"/>
<path opacity="0.3" d="M62.1143 81.5575H49.9661L48.4209 77.7637H60.5691L62.1143 81.5575Z" fill="black"/>
<path d="M60.1694 81.5575H52.1729L53.7181 77.7637H58.6242L60.1694 81.5575Z" fill="#F24748"/>
<path opacity="0.2" d="M60.1694 81.5575H52.1729L53.7181 77.7637H58.6242L60.1694 81.5575Z" fill="#FAFAFA"/>
<path d="M72.3134 81.5575H60.1682L58.623 77.7637H70.7682L72.3134 81.5575Z" fill="#F24748"/>
<path opacity="0.3" d="M72.3134 81.5575H60.1682L58.623 77.7637H70.7682L72.3134 81.5575Z" fill="black"/>
<path d="M70.3705 81.5575H62.377L63.9222 77.7637H68.8253L70.3705 81.5575Z" fill="#F24748"/>
<path opacity="0.2" d="M70.3705 81.5575H62.377L63.9222 77.7637H68.8253L70.3705 81.5575Z" fill="#FAFAFA"/>
<path d="M82.5146 81.5575H70.3694L68.8242 77.7637H80.9694L82.5146 81.5575Z" fill="#F24748"/>
<path opacity="0.3" d="M82.5146 81.5575H70.3694L68.8242 77.7637H80.9694L82.5146 81.5575Z" fill="black"/>
<path d="M80.5687 81.5575H72.5752L74.1204 77.7637H79.0236L80.5687 81.5575Z" fill="#F24748"/>
<path opacity="0.2" d="M80.5687 81.5575H72.5752L74.1204 77.7637H79.0236L80.5687 81.5575Z" fill="#FAFAFA"/>
<path d="M92.7168 81.5575H80.5686L79.0234 77.7637H91.1716L92.7168 81.5575Z" fill="#F24748"/>
<path opacity="0.3" d="M92.7168 81.5575H80.5686L79.0234 77.7637H91.1716L92.7168 81.5575Z" fill="black"/>
<path d="M90.771 81.5575H82.7744L84.3196 77.7637H89.2258L90.771 81.5575Z" fill="#F24748"/>
<path opacity="0.2" d="M90.771 81.5575H82.7744L84.3196 77.7637H89.2258L90.771 81.5575Z" fill="#FAFAFA"/>
<path d="M99.5509 81.5575C100.014 80.3029 100.442 79.0383 100.835 77.7637H89.2275L90.7727 81.5575H99.5509Z" fill="#F24748"/>
<path opacity="0.3" d="M99.5509 81.5575C100.014 80.3029 100.442 79.0383 100.835 77.7637H89.2275L90.7727 81.5575H99.5509Z" fill="black"/>
<path d="M100.212 79.6937L99.4278 77.7637H94.5247L92.9795 81.5575H99.5511C99.7856 80.9413 100.002 80.319 100.212 79.6937Z" fill="#F24748"/>
<path opacity="0.2" d="M100.212 79.6937L99.4278 77.7637H94.5247L92.9795 81.5575H99.5511C99.7856 80.9413 100.002 80.319 100.212 79.6937Z" fill="#FAFAFA"/>
<path d="M100.841 77.7637H99.4277L100.212 79.6937C100.433 79.0543 100.642 78.411 100.841 77.7637Z" fill="#F24748"/>
<path opacity="0.3" d="M100.841 77.7637H99.4277L100.212 79.6937C100.433 79.0543 100.642 78.411 100.841 77.7637Z" fill="black"/>
</g>
<path d="M77.6598 17.2578C69.4469 17.2578 61.4185 19.6932 54.5897 24.256C47.761 28.8189 42.4386 35.3042 39.2957 42.8919C36.1528 50.4796 35.3304 58.8289 36.9327 66.8839C38.5349 74.939 42.4898 82.338 48.2972 88.1454C54.1046 93.9528 61.5036 97.9077 69.5587 99.5099C77.6137 101.112 85.963 100.29 93.5507 97.1469C101.138 94.004 107.624 88.6816 112.187 81.8529C116.749 75.0241 119.185 66.9957 119.185 58.7828C119.185 47.7697 114.81 37.2077 107.022 29.4202C99.235 21.6328 88.6729 17.2578 77.6598 17.2578V17.2578ZM77.6057 92.7472C70.8818 92.7466 64.309 90.7521 58.7185 87.0161C53.1281 83.2801 48.771 77.9702 46.1983 71.7579C43.6256 65.5456 42.9527 58.71 44.2649 52.1153C45.577 45.5207 48.8152 39.4632 53.5699 34.7089C58.3247 29.9546 64.3825 26.7169 70.9772 25.4054C77.572 24.0938 84.4076 24.7672 90.6196 27.3405C96.8317 29.9138 102.141 34.2713 105.877 39.8621C109.612 45.4529 111.606 52.0258 111.606 58.7497C111.606 63.2146 110.727 67.6357 109.018 71.7607C107.309 75.8856 104.805 79.6336 101.647 82.7906C98.4902 85.9476 94.7419 88.4518 90.6168 90.1601C86.4917 91.8685 82.0705 92.7476 77.6057 92.7472Z" fill="#F24748"/>
<path opacity="0.4" d="M77.6599 98.1713C99.3769 98.1713 117.041 80.5007 117.041 58.7898C117.041 37.0788 99.3709 19.4082 77.6599 19.4082C55.9489 19.4082 38.2783 37.0758 38.2783 58.7898C38.2783 80.5037 55.9399 98.1713 77.6599 98.1713ZM77.6599 19.7088C88.0206 19.7223 97.9532 23.8441 105.279 31.1703C112.606 38.4965 116.727 48.429 116.741 58.7898C116.741 80.3414 99.2055 97.8707 77.6599 97.8707C56.1143 97.8707 38.5789 80.3354 38.5789 58.7898C38.5789 37.2441 56.1052 19.6968 77.6599 19.6968V19.7088Z" fill="#FAFAFA"/>
<path d="M67.1373 31.5658C68.8389 31.9686 70.5825 32.3714 72.305 32.7382C74.0276 33.105 75.7592 33.4386 77.4547 33.6671L78.083 33.7393L78.2363 33.7543H78.2123C78.2123 33.7543 78.2273 33.7543 78.2604 33.7543C78.5314 33.6853 78.7886 33.5704 79.0209 33.4146C79.6959 32.9711 80.3297 32.468 80.9149 31.9115C82.1655 30.7541 83.386 29.4434 84.5614 28.1387L85.9353 29.0916C85.0353 30.7232 83.9835 32.2662 82.7938 33.7002C82.1652 34.4706 81.4545 35.1701 80.6744 35.7865C80.1886 36.1767 79.6353 36.4742 79.042 36.6643C78.846 36.7238 78.6446 36.7641 78.4407 36.7846C78.3206 36.7922 78.2001 36.7922 78.08 36.7846H77.8966L77.1811 36.7485C75.3311 36.6114 73.4903 36.3696 71.6677 36.024C69.864 35.6933 68.0963 35.3025 66.3076 34.8215L67.1373 31.5658Z" fill="#7F3E3B"/>
<path d="M64.5582 34.6196C65.7607 36.3572 72.9756 37.0246 72.9756 37.0246L73.4176 32.401C71.5804 31.7574 69.6902 31.2766 67.7689 30.964C62.6733 30.2365 63.2475 32.7136 64.5582 34.6196Z" fill="#F24748"/>
<path opacity="0.2" d="M64.5582 34.6196C65.7607 36.3572 72.9756 37.0246 72.9756 37.0246L73.4176 32.401C71.5804 31.7574 69.6902 31.2766 67.7689 30.964C62.6733 30.2365 63.2475 32.7136 64.5582 34.6196Z" fill="white"/>
<path d="M84.2783 28.7163L84.8525 26.5879L86.8336 27.4387C86.8336 27.4387 85.9979 29.7324 85.2433 29.6182L84.2783 28.7163Z" fill="#7F3E3B"/>
<path d="M86.487 25.2702L88.1253 25.168L86.8327 27.4377L84.8516 26.5869L86.487 25.2702Z" fill="#7F3E3B"/>
<path d="M69.403 31.4786C69.403 31.4786 72.2649 38.2095 70.2026 50.7425H58.2799C58.1356 48.9117 58.9744 39.9862 56.9121 31.3644C58.2233 31.109 59.5499 30.9403 60.8833 30.8593C62.5715 30.763 64.2637 30.763 65.9518 30.8593C67.1163 30.9776 68.27 31.1846 69.403 31.4786V31.4786Z" fill="#F24748"/>
<path opacity="0.2" d="M69.403 31.4786C69.403 31.4786 72.2649 38.2095 70.2026 50.7425H58.2799C58.1356 48.9117 58.9744 39.9862 56.9121 31.3644C58.2233 31.109 59.5499 30.9403 60.8833 30.8593C62.5715 30.763 64.2637 30.763 65.9518 30.8593C67.1163 30.9776 68.27 31.1846 69.403 31.4786V31.4786Z" fill="white"/>
<path opacity="0.3" d="M57.2842 33.0898C57.8419 36.0403 58.1715 39.0293 58.2702 42.0304C58.707 40.2721 59.0025 38.4817 59.1541 36.6763C59.2803 34.6771 58.5047 33.4115 57.2842 33.0898Z" fill="black"/>
<path d="M65.8484 41.0266C64.7902 39.8632 62.9714 37.5454 62.4062 35.4621L65.2441 33.959L67.8866 35.3118C67.8595 37.0825 66.9156 39.4814 66.2392 40.9424C66.152 41.1198 65.9716 41.1649 65.8484 41.0266Z" fill="#FAFAFA"/>
<path d="M61.1903 25.1543C61.566 26.7867 61.9869 29.7719 60.8896 30.8661C60.8896 30.8661 61.3676 32.2159 64.3979 32.2159C67.7288 32.2159 65.9581 30.8661 65.9581 30.8661C64.1243 30.4332 64.1244 29.0834 64.3979 27.8178L61.1903 25.1543Z" fill="#7F3E3B"/>
<path opacity="0.2" d="M62.4946 26.2383L64.3915 27.8075C64.3232 28.1039 64.2809 28.4057 64.2652 28.7094C63.5678 28.6102 62.5877 27.8466 62.4885 27.1191C62.4355 26.8277 62.4375 26.5289 62.4946 26.2383Z" fill="black"/>
<path d="M66.0905 24.2213C66.5835 23.8004 66.806 21.2842 65.835 20.0787C64.864 18.8732 64.0312 21.7953 64.0312 21.7953C64.0312 21.7953 64.4762 25.6041 66.0905 24.2213Z" fill="#263238"/>
<path d="M60.4684 23.4494C61.1478 25.5537 61.4364 26.8253 62.8072 27.6881C63.2494 27.9724 63.761 28.1303 64.2865 28.1448C64.812 28.1593 65.3314 28.0298 65.7886 27.7704C66.2459 27.511 66.6235 27.1315 66.8806 26.673C67.1377 26.2144 67.2645 25.6943 67.2474 25.1689C67.2204 23.1457 66.1141 20.0313 63.7842 19.6435C63.2823 19.5459 62.7635 19.5819 62.2799 19.7481C61.7963 19.9143 61.3649 20.2048 61.0289 20.5903C60.693 20.9759 60.4644 21.443 60.366 21.9448C60.2676 22.4466 60.3029 22.9655 60.4684 23.4494Z" fill="#7F3E3B"/>
<path d="M66.1441 19.1021C66.214 18.9742 66.2483 18.8299 66.2433 18.6842C66.2419 18.509 66.185 18.3388 66.0807 18.1981C65.9763 18.0574 65.83 17.9535 65.6628 17.9013C65.4956 17.8491 65.3161 17.8514 65.1503 17.9078C64.9845 17.9643 64.8409 18.0719 64.7401 18.2152C64.5696 18.0199 64.358 17.8648 64.1205 17.7608C63.883 17.6569 63.6255 17.6067 63.3663 17.614C63.0936 17.6231 62.8269 17.6962 62.5877 17.8274C62.433 17.6957 62.2345 17.627 62.0315 17.635C61.8343 17.6421 61.6461 17.7192 61.5007 17.8526C61.3552 17.9859 61.2621 18.1667 61.2379 18.3625C61.1534 18.3489 61.0679 18.3429 60.9824 18.3445C60.6286 18.357 60.2942 18.5093 60.0524 18.7679C59.8107 19.0266 59.6813 19.3705 59.6927 19.7243C59.6927 19.7243 59.6927 19.7243 59.6927 19.7424C59.6416 19.7393 59.5904 19.7393 59.5394 19.7424C59.3968 19.7474 59.2567 19.7805 59.1269 19.8398C58.9972 19.899 58.8804 19.9833 58.7832 20.0877C58.6861 20.1921 58.6104 20.3146 58.5607 20.4483C58.5109 20.582 58.488 20.7242 58.4932 20.8667V20.8847C58.3574 20.9585 58.2451 21.0689 58.1691 21.2033C58.0931 21.3378 58.0564 21.491 58.0633 21.6453C58.0695 21.8095 58.1238 21.9683 58.2195 22.1019C58.3152 22.2355 58.448 22.3381 58.6014 22.3969C58.622 22.6515 58.7325 22.8905 58.9132 23.0712C59.0938 23.2518 59.3328 23.3623 59.5875 23.3829C59.7047 24.4351 60.0835 26.0645 61.313 25.2227C61.782 24.9011 62.2149 22.95 61.7489 21.5972C61.785 21.5972 61.8241 21.5972 61.8632 21.5972C62.0662 21.5897 62.2647 21.5357 62.4435 21.4392C62.6223 21.3428 62.7765 21.2066 62.8943 21.0411C63.1514 21.1257 63.4246 21.1499 63.6926 21.1118C63.9605 21.0737 64.2161 20.9744 64.4395 20.8216C64.5361 20.8553 64.6379 20.8716 64.7401 20.8697C64.8804 20.8633 65.0168 20.822 65.137 20.7495C65.3078 20.8656 65.5106 20.9255 65.7172 20.9208C65.9319 20.9142 66.1384 20.8368 66.3045 20.7007C66.4707 20.5645 66.5872 20.3773 66.6359 20.1681C66.6846 19.9589 66.6628 19.7394 66.5738 19.5439C66.4849 19.3484 66.3338 19.1878 66.1441 19.087V19.1021Z" fill="#263238"/>
<path d="M60.1041 26.0152C60.5072 26.407 61.0451 26.6297 61.6072 26.6375C62.3497 26.6375 62.5091 25.934 62.1092 25.3448C61.7545 24.8187 60.9428 24.1814 60.2875 24.464C59.6321 24.7465 59.6111 25.5312 60.1041 26.0152Z" fill="#7F3E3B"/>
<path d="M63.9028 23.3289C63.9449 23.5033 64.0742 23.6295 64.2034 23.5995C64.3327 23.5694 64.3748 23.4101 64.3297 23.2357C64.2846 23.0614 64.1553 22.9351 64.0291 22.9682C63.9028 23.0012 63.8577 23.1485 63.9028 23.3289Z" fill="#263238"/>
<path d="M65.8807 22.8925C65.9258 23.0669 66.0551 23.1932 66.1814 23.1631C66.3076 23.133 66.3527 22.9767 66.3076 22.8023C66.2625 22.628 66.1333 22.5017 66.007 22.5318C65.8807 22.5618 65.8416 22.7182 65.8807 22.8925Z" fill="#263238"/>
<path d="M65.2793 23.1191C65.6271 23.6066 66.0375 24.0463 66.4998 24.4269C66.3994 24.5384 66.2758 24.6266 66.1376 24.6853C65.9995 24.744 65.8502 24.7717 65.7002 24.7666L65.2793 23.1191Z" fill="#630F0F"/>
<path d="M64.9388 25.4005C64.5727 25.4042 64.2174 25.2762 63.9378 25.0398C63.9282 25.0302 63.9229 25.0172 63.9229 25.0037C63.9229 24.9902 63.9282 24.9772 63.9378 24.9676C63.9425 24.9624 63.9484 24.9583 63.9548 24.9555C63.9613 24.9526 63.9683 24.9512 63.9753 24.9512C63.9824 24.9512 63.9894 24.9526 63.9959 24.9555C64.0023 24.9583 64.0081 24.9624 64.0129 24.9676C64.1889 25.1107 64.395 25.212 64.6158 25.2641C64.8365 25.3161 65.0662 25.3176 65.2876 25.2683C65.3011 25.2655 65.3151 25.268 65.3269 25.2753C65.3386 25.2825 65.3471 25.294 65.3507 25.3073C65.3524 25.3143 65.3527 25.3215 65.3515 25.3285C65.3503 25.3356 65.3476 25.3423 65.3437 25.3483C65.3397 25.3542 65.3345 25.3593 65.3285 25.3631C65.3225 25.3669 65.3157 25.3694 65.3086 25.3705C65.1869 25.3946 65.0628 25.4047 64.9388 25.4005V25.4005Z" fill="#263238"/>
<path d="M63.1138 22.826C63.0999 22.8288 63.0856 22.8288 63.0717 22.826C63.0588 22.8208 63.0471 22.813 63.0373 22.8031C63.0276 22.7932 63.0199 22.7815 63.0148 22.7685C63.0098 22.7556 63.0074 22.7417 63.0079 22.7278C63.0083 22.7139 63.0116 22.7003 63.0176 22.6877C63.0817 22.5354 63.182 22.401 63.3099 22.2963C63.4377 22.1915 63.5891 22.1195 63.7511 22.0865C63.7788 22.0837 63.8065 22.0915 63.8287 22.1082C63.851 22.1249 63.8662 22.1493 63.8713 22.1767C63.8748 22.2045 63.8673 22.2326 63.8505 22.255C63.8337 22.2774 63.8088 22.2925 63.7811 22.2969C63.654 22.3256 63.5356 22.3846 63.4362 22.4688C63.3367 22.5531 63.2591 22.6602 63.21 22.7809C63.1994 22.7963 63.1849 22.8086 63.168 22.8165C63.1511 22.8244 63.1323 22.8277 63.1138 22.826V22.826Z" fill="#263238"/>
<path d="M66.5575 22.0298C66.5418 22.0299 66.5264 22.0265 66.5123 22.0197C66.4983 22.0129 66.4859 22.003 66.4763 21.9907C66.3917 21.8855 66.2846 21.8007 66.1628 21.7424C66.0411 21.6841 65.9078 21.6539 65.7728 21.654C65.7449 21.6564 65.7172 21.6476 65.6958 21.6296C65.6744 21.6115 65.661 21.5857 65.6586 21.5578C65.6562 21.5299 65.665 21.5022 65.683 21.4808C65.7011 21.4594 65.7269 21.446 65.7548 21.4436C65.9238 21.4402 66.0913 21.4755 66.2445 21.5469C66.3977 21.6183 66.5326 21.7238 66.6386 21.8554C66.6562 21.8775 66.6645 21.9056 66.6617 21.9337C66.6589 21.9617 66.6452 21.9876 66.6236 22.0058C66.605 22.0211 66.5816 22.0296 66.5575 22.0298V22.0298Z" fill="#263238"/>
<path d="M59.2666 34.5724L58.8337 35.5073C58.6894 35.829 58.5481 36.1537 58.4098 36.4783C58.1333 37.1277 57.8717 37.786 57.6192 38.4414C57.3667 39.0968 57.1442 39.7581 56.9308 40.4195C56.7173 41.0809 56.552 41.7392 56.4137 42.3946V42.4517V42.4337C56.415 42.4177 56.415 42.4016 56.4137 42.3856C56.4097 42.3523 56.4006 42.3198 56.3866 42.2894C56.3626 42.2323 56.3355 42.2202 56.3476 42.2533C56.457 42.4071 56.5986 42.5353 56.7624 42.6291C57.3019 42.9581 57.8767 43.2253 58.476 43.4257C59.8177 43.8866 61.1848 44.27 62.5705 44.5741L62.4322 46.2426C60.8814 46.2924 59.3299 46.1714 57.8056 45.8818C56.9684 45.7303 56.1548 45.4695 55.3856 45.1062C54.8861 44.8684 54.437 44.5367 54.0628 44.1292C53.8074 43.838 53.615 43.4972 53.4977 43.1281C53.4339 42.919 53.3955 42.703 53.3834 42.4848C53.3774 42.3766 53.3774 42.2682 53.3834 42.1601L53.3985 42.0038V41.9226C53.5985 40.3574 53.9561 38.8164 54.4657 37.3231C54.7102 36.5896 54.9797 35.8671 55.2743 35.1556C55.4247 34.8009 55.575 34.4491 55.7403 34.0974C55.9057 33.7457 56.065 33.409 56.2604 33.0332L59.2666 34.5724Z" fill="#7F3E3B"/>
<path d="M56.9122 31.3654C54.8078 31.6661 52.6523 39.3951 52.6523 39.3951L57.7238 41.3251C57.7238 41.3251 58.9985 38.0032 59.8703 35.4239C60.7842 32.7213 59.1608 31.0348 56.9122 31.3654Z" fill="#F24748"/>
<path opacity="0.2" d="M56.9122 31.3654C54.8078 31.6661 52.6523 39.3951 52.6523 39.3951L57.7238 41.3251C57.7238 41.3251 58.9985 38.0032 59.8703 35.4239C60.7842 32.7213 59.1608 31.0348 56.9122 31.3654Z" fill="white"/>
<path d="M60.1104 107.433H62.341L62.6296 102.271H60.402L60.1104 107.433Z" fill="#7F3E3B"/>
<path opacity="0.2" d="M60.3993 102.271H62.63L62.4796 104.932H60.249L60.3993 102.271Z" fill="black"/>
<path d="M62.4588 107.176H59.9546C59.9338 107.175 59.913 107.178 59.8934 107.185C59.8738 107.192 59.8557 107.202 59.8403 107.216C59.8249 107.23 59.8125 107.247 59.8037 107.266C59.795 107.285 59.79 107.306 59.7893 107.326L59.666 109.307C59.6656 109.359 59.6754 109.41 59.6949 109.458C59.7143 109.506 59.743 109.55 59.7792 109.587C59.8155 109.624 59.8587 109.653 59.9064 109.673C59.954 109.693 60.0051 109.704 60.0568 109.704C60.9286 109.689 61.3465 109.638 62.4618 109.638C63.1382 109.638 66.0182 109.71 66.9531 109.71C67.8881 109.71 67.855 108.784 67.4672 108.7C65.6875 108.324 63.4869 107.798 62.8556 107.311C62.7424 107.223 62.6026 107.175 62.4588 107.176V107.176Z" fill="#263238"/>
<path d="M63.2471 107.56C63.3961 107.575 63.5451 107.533 63.665 107.443C63.6998 107.407 63.724 107.361 63.7351 107.312C63.7462 107.263 63.7438 107.212 63.7281 107.164C63.7226 107.132 63.7089 107.101 63.6884 107.076C63.6679 107.051 63.6412 107.031 63.6109 107.019C63.3373 106.911 62.709 107.341 62.6369 107.392C62.6291 107.398 62.623 107.406 62.6193 107.415C62.6156 107.424 62.6144 107.434 62.6158 107.443C62.6185 107.453 62.6235 107.461 62.6303 107.468C62.6371 107.475 62.6456 107.48 62.6549 107.482C62.849 107.529 63.0475 107.555 63.2471 107.56V107.56ZM63.5057 107.101C63.5285 107.096 63.552 107.096 63.5748 107.101C63.5896 107.107 63.6026 107.117 63.6125 107.129C63.6225 107.142 63.6292 107.157 63.6319 107.173C63.6425 107.205 63.6447 107.239 63.6384 107.272C63.6321 107.305 63.6175 107.336 63.5958 107.362C63.4906 107.464 63.193 107.476 62.7932 107.398C63.0064 107.249 63.2495 107.147 63.5057 107.101V107.101Z" fill="#F24748"/>
<path d="M62.6669 107.482H62.6909C62.9134 107.349 63.2441 106.88 63.193 106.643C63.1837 106.6 63.1603 106.561 63.1265 106.533C63.0928 106.505 63.0506 106.488 63.0066 106.487C62.9669 106.481 62.9266 106.485 62.8887 106.498C62.8507 106.51 62.816 106.531 62.7871 106.559C62.5647 106.775 62.6128 107.416 62.6158 107.443C62.6165 107.451 62.6194 107.459 62.6241 107.466C62.6289 107.473 62.6353 107.478 62.6428 107.482C62.6506 107.485 62.6591 107.485 62.6669 107.482ZM62.9675 106.58H62.9916C63.0697 106.58 63.0847 106.628 63.0938 106.658C63.1298 106.826 62.8923 107.181 62.709 107.337C62.6784 107.09 62.7291 106.84 62.8533 106.625C62.8688 106.61 62.8872 106.598 62.9073 106.591C62.9275 106.583 62.949 106.579 62.9705 106.58H62.9675Z" fill="#F24748"/>
<path d="M79.9176 101.927L82.1121 101.545L81.5139 96.4102L79.3193 96.7919L79.9176 101.927Z" fill="#7F3E3B"/>
<path opacity="0.2" d="M79.3193 96.7939L81.5169 96.4121L81.8235 99.0576L79.626 99.4394L79.3193 96.7939Z" fill="black"/>
<path d="M82.1132 101.276L79.6391 100.897C79.5976 100.889 79.5547 100.898 79.5198 100.922C79.4848 100.946 79.4607 100.982 79.4527 101.024L79.0318 102.963C79.0162 103.066 79.0418 103.171 79.1031 103.255C79.1645 103.34 79.2566 103.397 79.3595 103.414C80.2223 103.531 80.6432 103.543 81.7314 103.714C82.4018 103.816 85.2367 104.315 86.1626 104.46C87.0885 104.604 87.1997 103.684 86.821 103.54C85.1194 102.903 83.0211 102.058 82.4709 101.475C82.3786 101.369 82.252 101.298 82.1132 101.276V101.276Z" fill="#263238"/>
<path d="M70.2033 50.7422C70.2033 50.7422 77.1176 66.9067 78.5155 73.1416C80.0517 79.9687 82.6551 98.2616 82.6551 98.2616L78.6328 98.9621C78.6328 98.9621 74.9291 81.8747 72.7947 75.288C70.4769 68.1422 61.2207 50.7422 61.2207 50.7422H70.2033Z" fill="#263238"/>
<path opacity="0.3" d="M64.5032 54.3145L64.3408 56.7585C65.384 58.8148 66.5865 61.2137 67.7619 63.6488C68.285 61.2378 66.9502 55.4448 64.5032 54.3145Z" fill="black"/>
<path d="M66.2139 50.7432C66.2139 50.7432 66.1749 67.7735 65.8141 74.1557C65.4173 81.1422 63.4362 104.293 63.4362 104.293H59.3537C59.3537 104.293 59.477 81.7074 59.2305 74.79C58.9629 67.2745 58.2715 50.7402 58.2715 50.7402L66.2139 50.7432Z" fill="#263238"/>
<path d="M59.191 104.329H63.6011L63.8446 102.781L58.9775 103.022L59.191 104.329Z" fill="#F24748"/>
<path opacity="0.3" d="M59.191 104.329H63.6011L63.8446 102.781L58.9775 103.022L59.191 104.329Z" fill="black"/>
<path d="M78.469 98.9898L82.813 98.2353L82.789 96.666L78.0361 97.7392L78.469 98.9898Z" fill="#F24748"/>
<path opacity="0.3" d="M78.469 98.9898L82.813 98.2353L82.789 96.666L78.0361 97.7392L78.469 98.9898Z" fill="black"/>
<path d="M82.8485 101.776C82.9931 101.813 83.1464 101.795 83.2784 101.725C83.3174 101.693 83.3478 101.652 83.3667 101.605C83.3856 101.559 83.3924 101.508 83.3866 101.458C83.3853 101.425 83.3758 101.393 83.359 101.364C83.3422 101.336 83.3186 101.312 83.2904 101.295C83.0379 101.148 82.3494 101.479 82.2713 101.518C82.2629 101.522 82.2558 101.528 82.251 101.536C82.2462 101.544 82.2439 101.554 82.2442 101.563C82.2437 101.573 82.2463 101.582 82.2517 101.591C82.2571 101.599 82.2651 101.605 82.2743 101.608C82.4587 101.686 82.6513 101.742 82.8485 101.776V101.776ZM83.1731 101.362C83.1966 101.363 83.2193 101.37 83.2393 101.383C83.2542 101.39 83.2665 101.402 83.2746 101.416C83.2826 101.431 83.2861 101.447 83.2844 101.464C83.2905 101.497 83.2879 101.531 83.2768 101.562C83.2657 101.594 83.2466 101.622 83.2212 101.644C83.101 101.731 82.8064 101.698 82.4216 101.557C82.6549 101.438 82.9114 101.371 83.1731 101.362V101.362Z" fill="#F24748"/>
<path d="M82.2855 101.611C82.2943 101.614 82.3038 101.614 82.3126 101.611C82.5501 101.515 82.9499 101.106 82.9349 100.86C82.9322 100.815 82.9148 100.773 82.8854 100.74C82.8559 100.707 82.8162 100.684 82.7725 100.676C82.7344 100.665 82.6944 100.663 82.6553 100.67C82.6162 100.677 82.5792 100.692 82.5471 100.715C82.2915 100.896 82.2464 101.536 82.2464 101.563C82.2454 101.571 82.2468 101.58 82.2505 101.587C82.2543 101.595 82.2602 101.601 82.2675 101.605C82.2726 101.609 82.279 101.611 82.2855 101.611V101.611ZM82.7214 100.763H82.7455C82.8206 100.785 82.8327 100.824 82.8357 100.857C82.8357 101.028 82.5591 101.341 82.3517 101.458C82.3599 101.209 82.4485 100.97 82.6042 100.775C82.6384 100.758 82.6781 100.753 82.7154 100.763H82.7214Z" fill="#F24748"/>
<path d="M62.2368 44.5548L64.0646 44.0527L64.3171 46.3645C64.3171 46.3645 62.5134 46.9056 62.0654 45.9587L62.2368 44.5548Z" fill="#7F3E3B"/>
<path d="M65.7249 44.3714L65.6136 46.4547L64.318 46.3645L64.0654 44.0527L65.7249 44.3714Z" fill="#7F3E3B"/>
<path d="M96.2075 98.961C86.6056 97.515 79.3125 79.5679 79.3125 58.7828C79.3125 37.9978 86.6056 20.0506 96.2075 18.6046L105.157 17.2578V100.308L96.2075 98.961Z" fill="#F24748"/>
<path opacity="0.3" d="M96.2075 98.961C86.6056 97.515 79.3125 79.5679 79.3125 58.7828C79.3125 37.9978 86.6056 20.0506 96.2075 18.6046L105.157 17.2578V100.308L96.2075 98.961Z" fill="black"/>
<path d="M105.155 100.308C113.817 100.308 120.839 81.7164 120.839 58.7828C120.839 35.8492 113.817 17.2578 105.155 17.2578C96.4934 17.2578 89.4717 35.8492 89.4717 58.7828C89.4717 81.7164 96.4934 100.308 105.155 100.308Z" fill="#F24748"/>
<path opacity="0.2" d="M108.061 38.1777C103.251 38.1777 99.376 47.4038 99.376 58.7854C99.376 70.167 103.263 79.3901 108.061 79.3901C112.859 79.3901 116.746 70.167 116.746 58.7854C116.746 47.4038 112.859 38.1777 108.061 38.1777ZM114.975 58.7854C114.975 62.0592 114.446 65.0354 113.58 67.269L111.073 58.6201L113.532 50.1515C114.434 52.3972 114.987 55.4335 114.987 58.7824L114.975 58.7854ZM109.687 46.2464C110.749 46.2464 111.732 46.986 112.558 48.2576L110.313 56.0467L107.721 47.1483C108.236 46.5984 108.947 46.2733 109.699 46.2434L109.687 46.2464ZM104.405 58.7854C104.405 54.5466 105.292 50.8039 106.648 48.5342L109.582 58.6201L106.606 68.9374C105.28 66.6647 104.417 62.9641 104.417 58.7824L104.405 58.7854ZM109.687 71.3244C109.302 71.3033 108.926 71.2058 108.579 71.0375C108.232 70.8693 107.922 70.6336 107.667 70.3444L110.325 61.1844L112.642 69.193C111.801 70.5428 110.791 71.3214 109.699 71.3214L109.687 71.3244Z" fill="#FAFAFA"/>
<path opacity="0.4" d="M105.58 99.2562C98.5158 99.2562 90.9521 82.9925 90.9521 58.7834C90.9521 34.5742 98.5158 18.3105 105.58 18.3105C112.645 18.3105 120.212 34.5742 120.212 58.7834C120.212 82.9925 112.648 99.2562 105.58 99.2562ZM105.58 18.6112C98.6661 18.6112 91.2528 34.7516 91.2528 58.7834C91.2528 82.8152 98.6481 98.9556 105.58 98.9556C112.513 98.9556 119.911 82.8121 119.911 58.7834C119.911 34.7546 112.501 18.6112 105.58 18.6112V18.6112Z" fill="#FAFAFA"/>
</svg>
