<svg width="23" height="19" viewBox="0 0 23 19" fill="none" xmlns="http://www.w3.org/2000/svg">
<path d="M22.706 2.67585C21.871 3.04585 20.974 3.29585 20.031 3.40885C21.004 2.82664 21.7319 1.91031 22.079 0.830847C21.1648 1.37384 20.1643 1.75604 19.121 1.96085C18.4194 1.21171 17.4901 0.715173 16.4773 0.548321C15.4646 0.381468 14.4251 0.553638 13.5202 1.0381C12.6154 1.52256 11.8958 2.29221 11.4732 3.22755C11.0505 4.16289 10.9485 5.2116 11.183 6.21085C9.33069 6.11784 7.51863 5.6364 5.86442 4.79775C4.21022 3.95911 2.75084 2.78201 1.581 1.34285C1.181 2.03285 0.951 2.83285 0.951 3.68485C0.950554 4.45184 1.13943 5.20709 1.50088 5.88358C1.86232 6.56007 2.38516 7.13688 3.023 7.56285C2.28328 7.53931 1.55987 7.33943 0.913 6.97985V7.03985C0.912925 8.11559 1.28503 9.15822 1.96618 9.99084C2.64733 10.8235 3.59557 11.3948 4.65 11.6078C3.96378 11.7936 3.24434 11.8209 2.546 11.6878C2.8435 12.6135 3.423 13.4229 4.20337 14.0028C4.98374 14.5827 5.92592 14.904 6.898 14.9218C5.24783 16.2173 3.20989 16.9199 1.112 16.9168C0.740381 16.9169 0.369076 16.8952 0 16.8518C2.12948 18.221 4.60834 18.9477 7.14 18.9448C15.71 18.9448 20.395 11.8468 20.395 5.69085C20.395 5.49085 20.39 5.28885 20.381 5.08885C21.2923 4.42982 22.0789 3.61374 22.704 2.67885L22.706 2.67585Z" fill="white"/>
</svg>
